%TF.GenerationSoftware,KiCad,Pcbnew,8.0.3*%
%TF.CreationDate,2026-02-06T01:26:45-05:00*%
%TF.ProjectId,FrostByte_IRCamera_PCB,46726f73-7442-4797-9465-5f495243616d,rev?*%
%TF.SameCoordinates,Original*%
%TF.FileFunction,Copper,L1,Top*%
%TF.FilePolarity,Positive*%
%FSLAX46Y46*%
G04 Gerber Fmt 4.6, Leading zero omitted, Abs format (unit mm)*
G04 Created by KiCad (PCBNEW 8.0.3) date 2026-02-06 01:26:45*
%MOMM*%
%LPD*%
G01*
G04 APERTURE LIST*
G04 Aperture macros list*
%AMRoundRect*
0 Rectangle with rounded corners*
0 $1 Rounding radius*
0 $2 $3 $4 $5 $6 $7 $8 $9 X,Y pos of 4 corners*
0 Add a 4 corners polygon primitive as box body*
4,1,4,$2,$3,$4,$5,$6,$7,$8,$9,$2,$3,0*
0 Add four circle primitives for the rounded corners*
1,1,$1+$1,$2,$3*
1,1,$1+$1,$4,$5*
1,1,$1+$1,$6,$7*
1,1,$1+$1,$8,$9*
0 Add four rect primitives between the rounded corners*
20,1,$1+$1,$2,$3,$4,$5,0*
20,1,$1+$1,$4,$5,$6,$7,0*
20,1,$1+$1,$6,$7,$8,$9,0*
20,1,$1+$1,$8,$9,$2,$3,0*%
G04 Aperture macros list end*
%TA.AperFunction,SMDPad,CuDef*%
%ADD10RoundRect,0.250000X0.350000X0.450000X-0.350000X0.450000X-0.350000X-0.450000X0.350000X-0.450000X0*%
%TD*%
%TA.AperFunction,SMDPad,CuDef*%
%ADD11RoundRect,0.250000X0.450000X-0.350000X0.450000X0.350000X-0.450000X0.350000X-0.450000X-0.350000X0*%
%TD*%
%TA.AperFunction,SMDPad,CuDef*%
%ADD12RoundRect,0.625750X0.625750X1.464750X-0.625750X1.464750X-0.625750X-1.464750X0.625750X-1.464750X0*%
%TD*%
%TA.AperFunction,SMDPad,CuDef*%
%ADD13RoundRect,0.642875X0.642875X1.452375X-0.642875X1.452375X-0.642875X-1.452375X0.642875X-1.452375X0*%
%TD*%
%TA.AperFunction,HeatsinkPad*%
%ADD14C,0.600000*%
%TD*%
%TA.AperFunction,SMDPad,CuDef*%
%ADD15R,3.900000X3.900000*%
%TD*%
%TA.AperFunction,SMDPad,CuDef*%
%ADD16R,1.500000X0.900000*%
%TD*%
%TA.AperFunction,SMDPad,CuDef*%
%ADD17R,0.900000X1.500000*%
%TD*%
%TA.AperFunction,SMDPad,CuDef*%
%ADD18RoundRect,0.250000X0.475000X-0.337500X0.475000X0.337500X-0.475000X0.337500X-0.475000X-0.337500X0*%
%TD*%
%TA.AperFunction,SMDPad,CuDef*%
%ADD19RoundRect,0.250000X-0.350000X-0.450000X0.350000X-0.450000X0.350000X0.450000X-0.350000X0.450000X0*%
%TD*%
%TA.AperFunction,SMDPad,CuDef*%
%ADD20R,1.800000X1.000000*%
%TD*%
%TA.AperFunction,SMDPad,CuDef*%
%ADD21RoundRect,0.237500X0.237500X-0.287500X0.237500X0.287500X-0.237500X0.287500X-0.237500X-0.287500X0*%
%TD*%
%TA.AperFunction,SMDPad,CuDef*%
%ADD22RoundRect,0.250000X0.650000X-0.412500X0.650000X0.412500X-0.650000X0.412500X-0.650000X-0.412500X0*%
%TD*%
%TA.AperFunction,SMDPad,CuDef*%
%ADD23RoundRect,0.250000X-0.450000X0.350000X-0.450000X-0.350000X0.450000X-0.350000X0.450000X0.350000X0*%
%TD*%
%TA.AperFunction,ComponentPad*%
%ADD24R,2.000000X2.000000*%
%TD*%
%TA.AperFunction,ComponentPad*%
%ADD25C,2.000000*%
%TD*%
%TA.AperFunction,SMDPad,CuDef*%
%ADD26RoundRect,0.250000X-0.337500X-0.475000X0.337500X-0.475000X0.337500X0.475000X-0.337500X0.475000X0*%
%TD*%
%TA.AperFunction,SMDPad,CuDef*%
%ADD27R,0.650000X1.525000*%
%TD*%
%TA.AperFunction,SMDPad,CuDef*%
%ADD28R,1.295400X1.905000*%
%TD*%
%TA.AperFunction,SMDPad,CuDef*%
%ADD29R,0.660400X1.549400*%
%TD*%
%TA.AperFunction,ComponentPad*%
%ADD30C,5.600000*%
%TD*%
%TA.AperFunction,SMDPad,CuDef*%
%ADD31RoundRect,0.250000X-1.000000X-0.650000X1.000000X-0.650000X1.000000X0.650000X-1.000000X0.650000X0*%
%TD*%
%TA.AperFunction,SMDPad,CuDef*%
%ADD32RoundRect,0.250000X0.337500X0.475000X-0.337500X0.475000X-0.337500X-0.475000X0.337500X-0.475000X0*%
%TD*%
%TA.AperFunction,SMDPad,CuDef*%
%ADD33RoundRect,0.250000X0.325000X0.450000X-0.325000X0.450000X-0.325000X-0.450000X0.325000X-0.450000X0*%
%TD*%
%TA.AperFunction,SMDPad,CuDef*%
%ADD34R,0.300000X0.870000*%
%TD*%
%TA.AperFunction,ComponentPad*%
%ADD35O,1.350000X1.100000*%
%TD*%
%TA.AperFunction,SMDPad,CuDef*%
%ADD36RoundRect,0.250000X-0.475000X0.337500X-0.475000X-0.337500X0.475000X-0.337500X0.475000X0.337500X0*%
%TD*%
%TA.AperFunction,SMDPad,CuDef*%
%ADD37R,2.330000X1.550000*%
%TD*%
%TA.AperFunction,SMDPad,CuDef*%
%ADD38RoundRect,0.250000X0.412500X0.650000X-0.412500X0.650000X-0.412500X-0.650000X0.412500X-0.650000X0*%
%TD*%
%TA.AperFunction,ComponentPad*%
%ADD39R,1.600000X1.600000*%
%TD*%
%TA.AperFunction,ComponentPad*%
%ADD40C,1.600000*%
%TD*%
%TA.AperFunction,SMDPad,CuDef*%
%ADD41RoundRect,0.250000X-0.325000X-0.450000X0.325000X-0.450000X0.325000X0.450000X-0.325000X0.450000X0*%
%TD*%
%TA.AperFunction,SMDPad,CuDef*%
%ADD42RoundRect,0.237500X0.300000X0.237500X-0.300000X0.237500X-0.300000X-0.237500X0.300000X-0.237500X0*%
%TD*%
%TA.AperFunction,SMDPad,CuDef*%
%ADD43RoundRect,0.060000X-0.675000X-0.180000X0.675000X-0.180000X0.675000X0.180000X-0.675000X0.180000X0*%
%TD*%
%TA.AperFunction,SMDPad,CuDef*%
%ADD44RoundRect,0.051250X0.733750X0.153750X-0.733750X0.153750X-0.733750X-0.153750X0.733750X-0.153750X0*%
%TD*%
%TA.AperFunction,SMDPad,CuDef*%
%ADD45RoundRect,0.193750X0.971250X0.581250X-0.971250X0.581250X-0.971250X-0.581250X0.971250X-0.581250X0*%
%TD*%
%TA.AperFunction,SMDPad,CuDef*%
%ADD46R,1.003300X0.558800*%
%TD*%
%TA.AperFunction,SMDPad,CuDef*%
%ADD47R,0.990600X0.508000*%
%TD*%
%TA.AperFunction,SMDPad,CuDef*%
%ADD48R,1.900000X5.100000*%
%TD*%
%TA.AperFunction,ComponentPad*%
%ADD49R,1.700000X1.700000*%
%TD*%
%TA.AperFunction,ComponentPad*%
%ADD50O,1.700000X1.700000*%
%TD*%
%TA.AperFunction,ComponentPad*%
%ADD51R,1.500000X1.500000*%
%TD*%
%TA.AperFunction,ViaPad*%
%ADD52C,0.600000*%
%TD*%
%TA.AperFunction,ViaPad*%
%ADD53C,1.000000*%
%TD*%
%TA.AperFunction,Conductor*%
%ADD54C,0.200000*%
%TD*%
%TA.AperFunction,Conductor*%
%ADD55C,0.400000*%
%TD*%
%TA.AperFunction,Conductor*%
%ADD56C,0.300000*%
%TD*%
G04 APERTURE END LIST*
D10*
%TO.P,R28,1*%
%TO.N,/MCU/RESET_L*%
X139900000Y-104400000D03*
%TO.P,R28,2*%
%TO.N,+2V8*%
X137900000Y-104400000D03*
%TD*%
%TO.P,R27,1*%
%TO.N,/MCU/SPI_MOSI*%
X127700000Y-111900000D03*
%TO.P,R27,2*%
%TO.N,GND*%
X125700000Y-111900000D03*
%TD*%
D11*
%TO.P,R26,1*%
%TO.N,+2V8*%
X130100000Y-117400000D03*
%TO.P,R26,2*%
%TO.N,/MCU/SPI_CLK*%
X130100000Y-115400000D03*
%TD*%
%TO.P,R25,1*%
%TO.N,+2V8*%
X127000000Y-108800000D03*
%TO.P,R25,2*%
%TO.N,/MCU/SPI_CS*%
X127000000Y-106800000D03*
%TD*%
D12*
%TO.P,F1,1*%
%TO.N,Net-(J1-Pin_1)*%
X176765750Y-122909500D03*
D13*
%TO.P,F1,2*%
%TO.N,/Power_Circuitry/source*%
X168600000Y-122904750D03*
%TD*%
D14*
%TO.P,U2,41,GND*%
%TO.N,GND*%
X153237500Y-84270000D03*
X153237500Y-82870000D03*
X152537500Y-84970000D03*
X152537500Y-83570000D03*
X152537500Y-82170000D03*
X151837500Y-84270000D03*
D15*
X151837500Y-83570000D03*
D14*
X151837500Y-82870000D03*
X151137500Y-84970000D03*
X151137500Y-83570000D03*
X151137500Y-82170000D03*
X150437500Y-84270000D03*
X150437500Y-82870000D03*
D16*
%TO.P,U2,40,GND*%
X162087500Y-75850000D03*
%TO.P,U2,39,IO1*%
%TO.N,unconnected-(U2-IO1-Pad39)*%
X162087500Y-77120000D03*
%TO.P,U2,38,IO2*%
%TO.N,unconnected-(U2-IO2-Pad38)*%
X162087500Y-78390000D03*
%TO.P,U2,37,TXD0*%
%TO.N,/MCU/TX*%
X162087500Y-79660000D03*
%TO.P,U2,36,RXD0*%
%TO.N,/MCU/RX*%
X162087500Y-80930000D03*
%TO.P,U2,35,IO42*%
%TO.N,unconnected-(U2-IO42-Pad35)*%
X162087500Y-82200000D03*
%TO.P,U2,34,IO41*%
%TO.N,/MCU/EN_I2C*%
X162087500Y-83470000D03*
%TO.P,U2,33,IO40*%
%TO.N,/MCU/EN_SPI*%
X162087500Y-84740000D03*
%TO.P,U2,32,IO39*%
%TO.N,/MCU/LED_2*%
X162087500Y-86010000D03*
%TO.P,U2,31,IO38*%
%TO.N,/MCU/LED_1*%
X162087500Y-87280000D03*
%TO.P,U2,30,IO37*%
%TO.N,unconnected-(U2-IO37-Pad30)*%
X162087500Y-88550000D03*
%TO.P,U2,29,IO36*%
%TO.N,unconnected-(U2-IO36-Pad29)*%
X162087500Y-89820000D03*
%TO.P,U2,28,IO35*%
%TO.N,unconnected-(U2-IO35-Pad28)*%
X162087500Y-91090000D03*
%TO.P,U2,27,IO0*%
%TO.N,Net-(U2-IO0)*%
X162087500Y-92360000D03*
D17*
%TO.P,U2,26,IO45*%
%TO.N,/MCU/RESET_L_3v3*%
X160322500Y-93610000D03*
%TO.P,U2,25,IO48*%
%TO.N,unconnected-(U2-IO48-Pad25)*%
X159052500Y-93610000D03*
%TO.P,U2,24,IO47*%
%TO.N,unconnected-(U2-IO47-Pad24)*%
X157782500Y-93610000D03*
%TO.P,U2,23,IO21*%
%TO.N,/MCU/VSYNC*%
X156512500Y-93610000D03*
%TO.P,U2,22,IO14*%
%TO.N,unconnected-(U2-IO14-Pad22)*%
X155242500Y-93610000D03*
%TO.P,U2,21,IO13*%
%TO.N,/MCU/SPI_MISO*%
X153972500Y-93610000D03*
%TO.P,U2,20,IO12*%
%TO.N,/MCU/SPI_CLK_3v3*%
X152702500Y-93610000D03*
%TO.P,U2,19,IO11*%
%TO.N,/MCU/SPI_MOSI_3v3*%
X151432500Y-93610000D03*
%TO.P,U2,18,IO10*%
%TO.N,/MCU/SPI_CS_3v3*%
X150162500Y-93610000D03*
%TO.P,U2,17,IO9*%
%TO.N,/MCU/SCL_A*%
X148892500Y-93610000D03*
%TO.P,U2,16,IO46*%
%TO.N,unconnected-(U2-IO46-Pad16)*%
X147622500Y-93610000D03*
%TO.P,U2,15,IO3*%
%TO.N,unconnected-(U2-IO3-Pad15)*%
X146352500Y-93610000D03*
D16*
%TO.P,U2,14,IO20*%
%TO.N,/Peripherals/USB_D+*%
X144587500Y-92360000D03*
%TO.P,U2,13,IO19*%
%TO.N,/Peripherals/USB_D-*%
X144587500Y-91090000D03*
%TO.P,U2,12,IO8*%
%TO.N,/MCU/SDA_A*%
X144587500Y-89820000D03*
%TO.P,U2,11,IO18*%
%TO.N,unconnected-(U2-IO18-Pad11)*%
X144587500Y-88550000D03*
%TO.P,U2,10,IO17*%
%TO.N,Net-(U2-IO17)*%
X144587500Y-87280000D03*
%TO.P,U2,9,IO16*%
%TO.N,Net-(U2-IO16)*%
X144587500Y-86010000D03*
%TO.P,U2,8,IO15*%
%TO.N,Net-(U2-IO15)*%
X144587500Y-84740000D03*
%TO.P,U2,7,IO7*%
%TO.N,unconnected-(U2-IO7-Pad7)*%
X144587500Y-83470000D03*
%TO.P,U2,6,IO6*%
%TO.N,unconnected-(U2-IO6-Pad6)*%
X144587500Y-82200000D03*
%TO.P,U2,5,IO5*%
%TO.N,unconnected-(U2-IO5-Pad5)*%
X144587500Y-80930000D03*
%TO.P,U2,4,IO4*%
%TO.N,/MCU/CAM_TEMP*%
X144587500Y-79660000D03*
%TO.P,U2,3,EN*%
%TO.N,Net-(U2-EN)*%
X144587500Y-78390000D03*
%TO.P,U2,2,3V3*%
%TO.N,+3.3V*%
X144587500Y-77120000D03*
%TO.P,U2,1,GND*%
%TO.N,GND*%
X144587500Y-75850000D03*
%TD*%
D10*
%TO.P,R7,1*%
%TO.N,/Peripherals/USB_D+*%
X140600000Y-90800000D03*
%TO.P,R7,2*%
X138600000Y-90800000D03*
%TD*%
D18*
%TO.P,C21,1*%
%TO.N,GND*%
X123600000Y-77972500D03*
%TO.P,C21,2*%
%TO.N,+5V*%
X123600000Y-75897500D03*
%TD*%
D11*
%TO.P,R22,1*%
%TO.N,+3.3V*%
X178600000Y-86200000D03*
%TO.P,R22,2*%
%TO.N,/MCU/EN_SPI*%
X178600000Y-84200000D03*
%TD*%
D19*
%TO.P,R24,1*%
%TO.N,Net-(J4-Pin_10)*%
X110600000Y-103200000D03*
%TO.P,R24,2*%
%TO.N,/MCU/SPI_MISO*%
X112600000Y-103200000D03*
%TD*%
D20*
%TO.P,Y1,1,1*%
%TO.N,Net-(U2-IO16)*%
X141100000Y-85450000D03*
%TO.P,Y1,2,2*%
%TO.N,Net-(U2-IO15)*%
X141100000Y-82950000D03*
%TD*%
D11*
%TO.P,R2,1*%
%TO.N,+3.3V*%
X182100000Y-96237500D03*
%TO.P,R2,2*%
%TO.N,/MCU/CAM_TEMP*%
X182100000Y-94237500D03*
%TD*%
D21*
%TO.P,F2,1*%
%TO.N,/Power_Circuitry/source*%
X165400000Y-103975000D03*
%TO.P,F2,2*%
%TO.N,Net-(D6-PadC)*%
X165400000Y-102225000D03*
%TD*%
D22*
%TO.P,C13,1*%
%TO.N,+3.3V*%
X137800000Y-77325000D03*
%TO.P,C13,2*%
%TO.N,GND*%
X137800000Y-74200000D03*
%TD*%
D23*
%TO.P,R3,1*%
%TO.N,Net-(J4-Pin_2)*%
X112600000Y-92200000D03*
%TO.P,R3,2*%
%TO.N,+2V8*%
X112600000Y-94200000D03*
%TD*%
D24*
%TO.P,J2,1,Pin_1*%
%TO.N,/MCU/CAM_TEMP*%
X184600000Y-89200000D03*
D25*
%TO.P,J2,2,Pin_2*%
%TO.N,GND*%
X184600000Y-86660000D03*
%TD*%
D18*
%TO.P,C14,1*%
%TO.N,+3.3V*%
X141400000Y-76800000D03*
%TO.P,C14,2*%
%TO.N,GND*%
X141400000Y-74725000D03*
%TD*%
D26*
%TO.P,C2,1*%
%TO.N,Net-(U1-EN)*%
X151462500Y-115650001D03*
%TO.P,C2,2*%
%TO.N,GND*%
X153537500Y-115650001D03*
%TD*%
D27*
%TO.P,U5,1,VCC_1*%
%TO.N,+5V*%
X118105000Y-83688000D03*
%TO.P,U5,2,I/O1_1*%
%TO.N,/Peripherals/USB_D+*%
X116835000Y-83688000D03*
%TO.P,U5,3,I/O2_1*%
%TO.N,/Peripherals/USB_D-*%
X115565000Y-83688000D03*
%TO.P,U5,4,GND_1*%
%TO.N,GND*%
X114295000Y-83688000D03*
%TO.P,U5,5,GND_2*%
X114295000Y-89112000D03*
%TO.P,U5,6,I/O2_2*%
%TO.N,unconnected-(U5-I{slash}O2_2-Pad6)*%
X115565000Y-89112000D03*
%TO.P,U5,7,I/O1_2*%
%TO.N,unconnected-(U5-I{slash}O1_2-Pad7)*%
X116835000Y-89112000D03*
%TO.P,U5,8,VCC_2*%
%TO.N,unconnected-(U5-VCC_2-Pad8)*%
X118105000Y-89112000D03*
%TD*%
D10*
%TO.P,R23,1*%
%TO.N,Net-(U2-IO17)*%
X125600000Y-93200000D03*
%TO.P,R23,2*%
%TO.N,+2V8*%
X123600000Y-93200000D03*
%TD*%
D19*
%TO.P,R12,1*%
%TO.N,/MCU/SPI_CLK*%
X133600000Y-114200000D03*
%TO.P,R12,2*%
%TO.N,Net-(U3-1B1)*%
X135600000Y-114200000D03*
%TD*%
%TO.P,R6,1*%
%TO.N,+3.3V*%
X137600000Y-97200000D03*
%TO.P,R6,2*%
%TO.N,/MCU/SDA_A*%
X139600000Y-97200000D03*
%TD*%
D28*
%TO.P,J5,6*%
%TO.N,N/C*%
X178400000Y-77120000D03*
%TO.P,J5,5*%
X172800000Y-77120000D03*
D29*
%TO.P,J5,4,Pin_4*%
%TO.N,GND*%
X177100000Y-79700000D03*
%TO.P,J5,3,Pin_3*%
%TO.N,/MCU/RX*%
X176100000Y-79700000D03*
%TO.P,J5,2,Pin_2*%
%TO.N,/MCU/TX*%
X175100000Y-79700000D03*
%TO.P,J5,1,Pin_1*%
%TO.N,+5V*%
X174100000Y-79700000D03*
%TD*%
D30*
%TO.P,H4,1,1*%
%TO.N,GND*%
X183600000Y-128200000D03*
%TD*%
D31*
%TO.P,D1,1,A1*%
%TO.N,/Power_Circuitry/source*%
X168600000Y-130200000D03*
%TO.P,D1,2,A2*%
%TO.N,GND*%
X172600000Y-130200000D03*
%TD*%
D23*
%TO.P,R21,1*%
%TO.N,+2V8*%
X119600000Y-94200000D03*
%TO.P,R21,2*%
%TO.N,/MCU/SDA_B*%
X119600000Y-96200000D03*
%TD*%
D32*
%TO.P,C7,1*%
%TO.N,+3.3V*%
X106637500Y-88200000D03*
%TO.P,C7,2*%
%TO.N,GND*%
X104562500Y-88200000D03*
%TD*%
D33*
%TO.P,D2,1,K*%
%TO.N,GND*%
X161200000Y-130300000D03*
%TO.P,D2,2,A*%
%TO.N,Net-(D2-A)*%
X159150000Y-130300000D03*
%TD*%
D10*
%TO.P,R11,1*%
%TO.N,+3.3V*%
X173837500Y-85700000D03*
%TO.P,R11,2*%
%TO.N,Net-(D4-A)*%
X171837500Y-85700000D03*
%TD*%
D34*
%TO.P,J6,A1,GND_A*%
%TO.N,GND*%
X120100000Y-77700000D03*
%TO.P,J6,A4,VBUS_A*%
%TO.N,+5V*%
X118600000Y-77700000D03*
%TO.P,J6,A5,CC1*%
%TO.N,Net-(J6-CC1)*%
X118100000Y-77700000D03*
%TO.P,J6,A6,D1+*%
%TO.N,/Peripherals/USB_D+*%
X117600000Y-77700000D03*
%TO.P,J6,A7,D1-*%
%TO.N,/Peripherals/USB_D-*%
X117100000Y-77700000D03*
%TO.P,J6,A8,SBU1*%
%TO.N,unconnected-(J6-SBU1-PadA8)*%
X116600000Y-77700000D03*
%TO.P,J6,A9,VBUS_A__1*%
%TO.N,+5V*%
X116100000Y-77700000D03*
%TO.P,J6,A12,GND_A__1*%
%TO.N,GND*%
X114600000Y-77700000D03*
%TO.P,J6,B1,GND_B*%
X114600000Y-75970000D03*
%TO.P,J6,B4,VBUS_B*%
%TO.N,+5V*%
X116100000Y-75970000D03*
%TO.P,J6,B5,CC2*%
%TO.N,Net-(J6-CC2)*%
X116600000Y-75970000D03*
%TO.P,J6,B6,D2+*%
%TO.N,/Peripherals/USB_D+*%
X117100000Y-75970000D03*
%TO.P,J6,B7,D2-*%
%TO.N,/Peripherals/USB_D-*%
X117600000Y-75970000D03*
%TO.P,J6,B8,SBU2*%
%TO.N,unconnected-(J6-SBU2-PadB8)*%
X118100000Y-75970000D03*
%TO.P,J6,B9,VBUS_B__1*%
%TO.N,+5V*%
X118600000Y-75970000D03*
%TO.P,J6,B12,GND_B__1*%
%TO.N,GND*%
X120100000Y-75970000D03*
D35*
%TO.P,J6,S1,SHIELD*%
X119750000Y-78985000D03*
%TO.P,J6,S2,SHIELD__1*%
X119750000Y-74685000D03*
%TO.P,J6,S3,SHIELD__2*%
X114950000Y-78985000D03*
%TO.P,J6,S4,SHIELD__3*%
X114950000Y-74685000D03*
%TD*%
D36*
%TO.P,C15,1*%
%TO.N,+3.3V*%
X146600000Y-115162500D03*
%TO.P,C15,2*%
%TO.N,GND*%
X146600000Y-117237500D03*
%TD*%
D19*
%TO.P,R13,1*%
%TO.N,/MCU/SPI_MOSI*%
X133600000Y-110200000D03*
%TO.P,R13,2*%
%TO.N,Net-(U3-1B2)*%
X135600000Y-110200000D03*
%TD*%
%TO.P,R8,1*%
%TO.N,+3.3V*%
X153675000Y-130300000D03*
%TO.P,R8,2*%
%TO.N,Net-(D2-A)*%
X155675000Y-130300000D03*
%TD*%
D37*
%TO.P,D6,A*%
%TO.N,+5V*%
X176472500Y-96200000D03*
%TO.P,D6,C*%
%TO.N,Net-(D6-PadC)*%
X172202500Y-96200000D03*
%TD*%
D23*
%TO.P,R17,1*%
%TO.N,Net-(U2-IO0)*%
X165900000Y-95100000D03*
%TO.P,R17,2*%
%TO.N,+3.3V*%
X165900000Y-97100000D03*
%TD*%
D30*
%TO.P,H2,1,1*%
%TO.N,GND*%
X183600000Y-78200000D03*
%TD*%
D26*
%TO.P,C12,1*%
%TO.N,GND*%
X135062500Y-86450000D03*
%TO.P,C12,2*%
%TO.N,Net-(U2-IO16)*%
X137137500Y-86450000D03*
%TD*%
D38*
%TO.P,C4,1*%
%TO.N,+3.3V*%
X159284550Y-115650001D03*
%TO.P,C4,2*%
%TO.N,GND*%
X156159550Y-115650001D03*
%TD*%
D39*
%TO.P,C1,1*%
%TO.N,Net-(U1-EN)*%
X154800000Y-123200000D03*
D40*
%TO.P,C1,2*%
%TO.N,GND*%
X154800000Y-125200000D03*
%TD*%
D24*
%TO.P,J1,1,Pin_1*%
%TO.N,Net-(J1-Pin_1)*%
X184100000Y-119240000D03*
D25*
%TO.P,J1,2,Pin_2*%
%TO.N,GND*%
X184100000Y-116700000D03*
%TD*%
D36*
%TO.P,C16,1*%
%TO.N,+2V8*%
X141600000Y-115162500D03*
%TO.P,C16,2*%
%TO.N,GND*%
X141600000Y-117237500D03*
%TD*%
D11*
%TO.P,R4,1*%
%TO.N,+3.3V*%
X141600000Y-101700000D03*
%TO.P,R4,2*%
%TO.N,/MCU/SCL_A*%
X141600000Y-99700000D03*
%TD*%
D23*
%TO.P,R19,1*%
%TO.N,Net-(J6-CC1)*%
X123600000Y-81700000D03*
%TO.P,R19,2*%
%TO.N,GND*%
X123600000Y-83700000D03*
%TD*%
D10*
%TO.P,R10,1*%
%TO.N,+3.3V*%
X173837500Y-90200000D03*
%TO.P,R10,2*%
%TO.N,Net-(D3-A)*%
X171837500Y-90200000D03*
%TD*%
D11*
%TO.P,R5,1*%
%TO.N,Net-(U2-EN)*%
X136100000Y-121700000D03*
%TO.P,R5,2*%
%TO.N,+3.3V*%
X136100000Y-119700000D03*
%TD*%
D28*
%TO.P,J3,6*%
%TO.N,N/C*%
X115000000Y-130200000D03*
%TO.P,J3,5*%
X120600000Y-130200000D03*
D29*
%TO.P,J3,4,Pin_4*%
%TO.N,GND*%
X116300000Y-127620000D03*
%TO.P,J3,3,Pin_3*%
%TO.N,+3.3V*%
X117300000Y-127620000D03*
%TO.P,J3,2,Pin_2*%
%TO.N,/MCU/SDA_A*%
X118300000Y-127620000D03*
%TO.P,J3,1,Pin_1*%
%TO.N,/MCU/SCL_A*%
X119300000Y-127620000D03*
%TD*%
D30*
%TO.P,H1,1,1*%
%TO.N,GND*%
X104600000Y-78200000D03*
%TD*%
D41*
%TO.P,D3,1,K*%
%TO.N,/MCU/LED_1*%
X167312500Y-90200000D03*
%TO.P,D3,2,A*%
%TO.N,Net-(D3-A)*%
X169362500Y-90200000D03*
%TD*%
D19*
%TO.P,R15,1*%
%TO.N,/Peripherals/USB_D-*%
X138600000Y-92800000D03*
%TO.P,R15,2*%
X140600000Y-92800000D03*
%TD*%
D42*
%TO.P,FB1,1*%
%TO.N,Net-(FB1-Pad1)*%
X163062500Y-123900000D03*
%TO.P,FB1,2*%
%TO.N,Net-(U1-EN)*%
X161337500Y-123900000D03*
%TD*%
D43*
%TO.P,U4,1,VCCA*%
%TO.N,+2V8*%
X126450000Y-96225000D03*
%TO.P,U4,2,SCLA*%
%TO.N,/MCU/SCL_B*%
X126450000Y-96875000D03*
%TO.P,U4,3,SDAA*%
%TO.N,/MCU/SDA_B*%
X126450000Y-97525000D03*
%TO.P,U4,4,GND*%
%TO.N,GND*%
X126450000Y-98175000D03*
%TO.P,U4,5,EN*%
%TO.N,/MCU/EN_I2C*%
X130750000Y-98175000D03*
%TO.P,U4,6,SDAB*%
%TO.N,/MCU/SDA_A*%
X130750000Y-97525000D03*
%TO.P,U4,7,SCLB*%
%TO.N,/MCU/SCL_A*%
X130750000Y-96875000D03*
%TO.P,U4,8,VCCB*%
%TO.N,+3.3V*%
X130750000Y-96225000D03*
%TD*%
D26*
%TO.P,C11,1*%
%TO.N,GND*%
X135062500Y-81950000D03*
%TO.P,C11,2*%
%TO.N,Net-(U2-IO15)*%
X137137500Y-81950000D03*
%TD*%
%TO.P,C18,1*%
%TO.N,GND*%
X134562500Y-101200000D03*
%TO.P,C18,2*%
%TO.N,+2V8*%
X136637500Y-101200000D03*
%TD*%
D25*
%TO.P,SW2,1,1*%
%TO.N,GND*%
X136350000Y-130450000D03*
X129850000Y-130450000D03*
%TO.P,SW2,2,2*%
%TO.N,Net-(U2-EN)*%
X136350000Y-125950000D03*
X129850000Y-125950000D03*
%TD*%
D38*
%TO.P,C5,1*%
%TO.N,+3.3V*%
X159284550Y-119200000D03*
%TO.P,C5,2*%
%TO.N,GND*%
X156159550Y-119200000D03*
%TD*%
D36*
%TO.P,C9,1*%
%TO.N,GND*%
X141100000Y-120162500D03*
%TO.P,C9,2*%
%TO.N,Net-(C9-Pad2)*%
X141100000Y-122237500D03*
%TD*%
D18*
%TO.P,C20,1*%
%TO.N,GND*%
X109142500Y-83160500D03*
%TO.P,C20,2*%
%TO.N,+5V*%
X109142500Y-81085500D03*
%TD*%
D23*
%TO.P,R20,1*%
%TO.N,+2V8*%
X115600000Y-94200000D03*
%TO.P,R20,2*%
%TO.N,/MCU/SCL_B*%
X115600000Y-96200000D03*
%TD*%
D44*
%TO.P,U3,1,VCCA*%
%TO.N,+3.3V*%
X146970000Y-112475000D03*
%TO.P,U3,2,1DIR*%
X146970000Y-111825000D03*
%TO.P,U3,3,2DIR*%
X146970000Y-111175000D03*
%TO.P,U3,4,1A1*%
%TO.N,/MCU/SPI_CS_3v3*%
X146970000Y-110525000D03*
%TO.P,U3,5,1A2*%
%TO.N,/MCU/SPI_MOSI_3v3*%
X146970000Y-109875000D03*
%TO.P,U3,6,2A1*%
%TO.N,/MCU/SPI_CLK_3v3*%
X146970000Y-109225000D03*
%TO.P,U3,7,2A2*%
%TO.N,/MCU/RESET_L_3v3*%
X146970000Y-108575000D03*
%TO.P,U3,8,GND-1*%
%TO.N,GND*%
X146970000Y-107925000D03*
%TO.P,U3,9,GND*%
X141230000Y-107925000D03*
%TO.P,U3,10,2B2*%
%TO.N,/MCU/RESET_L*%
X141230000Y-108575000D03*
%TO.P,U3,11,2B1*%
%TO.N,Net-(U3-2B1)*%
X141230000Y-109225000D03*
%TO.P,U3,12,1B2*%
%TO.N,Net-(U3-1B2)*%
X141230000Y-109875000D03*
%TO.P,U3,13,1B1*%
%TO.N,Net-(U3-1B1)*%
X141230000Y-110525000D03*
%TO.P,U3,14,2~OE*%
%TO.N,/MCU/EN_SPI*%
X141230000Y-111175000D03*
%TO.P,U3,15,1~OE*%
X141230000Y-111825000D03*
%TO.P,U3,16,VCCB*%
%TO.N,+2V8*%
X141230000Y-112475000D03*
%TD*%
D45*
%TO.P,D5,1,K*%
%TO.N,/Power_Circuitry/source*%
X179235000Y-109565000D03*
%TO.P,D5,2,A*%
%TO.N,Net-(D5-A)*%
X174965000Y-109565000D03*
%TD*%
D41*
%TO.P,D4,1,K*%
%TO.N,/MCU/LED_2*%
X167312500Y-85700000D03*
%TO.P,D4,2,A*%
%TO.N,Net-(D4-A)*%
X169362500Y-85700000D03*
%TD*%
D11*
%TO.P,R16,1*%
%TO.N,GND*%
X110842500Y-77923000D03*
%TO.P,R16,2*%
%TO.N,Net-(J6-CC2)*%
X110842500Y-75923000D03*
%TD*%
D25*
%TO.P,SW1,1,1*%
%TO.N,GND*%
X147350000Y-130450000D03*
X140850000Y-130450000D03*
%TO.P,SW1,2,2*%
%TO.N,Net-(C9-Pad2)*%
X147350000Y-125950000D03*
X140850000Y-125950000D03*
%TD*%
D36*
%TO.P,C6,1*%
%TO.N,/MCU/CAM_TEMP*%
X186600000Y-94162500D03*
%TO.P,C6,2*%
%TO.N,GND*%
X186600000Y-96237500D03*
%TD*%
D26*
%TO.P,C17,1*%
%TO.N,+3.3V*%
X127562500Y-102200000D03*
%TO.P,C17,2*%
%TO.N,GND*%
X129637500Y-102200000D03*
%TD*%
D10*
%TO.P,R1,1*%
%TO.N,GND*%
X178100000Y-114100000D03*
%TO.P,R1,2*%
%TO.N,Net-(D5-A)*%
X176100000Y-114100000D03*
%TD*%
D36*
%TO.P,C8,1*%
%TO.N,+2V8*%
X112600000Y-97162500D03*
%TO.P,C8,2*%
%TO.N,GND*%
X112600000Y-99237500D03*
%TD*%
D23*
%TO.P,R18,1*%
%TO.N,Net-(U2-IO0)*%
X161600000Y-99200000D03*
%TO.P,R18,2*%
%TO.N,Net-(C9-Pad2)*%
X161600000Y-101200000D03*
%TD*%
D19*
%TO.P,R14,1*%
%TO.N,/MCU/SPI_CS*%
X133600000Y-106200000D03*
%TO.P,R14,2*%
%TO.N,Net-(U3-2B1)*%
X135600000Y-106200000D03*
%TD*%
D46*
%TO.P,U1,1,FB*%
%TO.N,+3.3V*%
X154344100Y-110700000D03*
%TO.P,U1,2,EN*%
%TO.N,Net-(U1-EN)*%
X154344100Y-111650001D03*
%TO.P,U1,3,VIN*%
X154344100Y-112600002D03*
%TO.P,U1,4,GND*%
%TO.N,GND*%
X157100000Y-112600002D03*
%TO.P,U1,5,SW*%
%TO.N,Net-(U1-SW)*%
X157100000Y-111650001D03*
%TO.P,U1,6,BST*%
%TO.N,Net-(U1-BST)*%
X157100000Y-110700000D03*
%TD*%
D30*
%TO.P,H3,1,1*%
%TO.N,GND*%
X104600000Y-128200000D03*
%TD*%
D26*
%TO.P,C3,1*%
%TO.N,Net-(U1-BST)*%
X157684550Y-107150001D03*
%TO.P,C3,2*%
%TO.N,Net-(U1-SW)*%
X159759550Y-107150001D03*
%TD*%
D47*
%TO.P,Q1,1,1*%
%TO.N,/Power_Circuitry/source*%
X172446200Y-116650001D03*
%TO.P,Q1,2,2*%
X172446200Y-115700000D03*
%TO.P,Q1,3,3*%
%TO.N,Net-(D5-A)*%
X172446200Y-114749999D03*
%TO.P,Q1,4,4*%
%TO.N,Net-(FB1-Pad1)*%
X169753800Y-114749999D03*
%TO.P,Q1,5,5*%
%TO.N,/Power_Circuitry/source*%
X169753800Y-115700000D03*
%TO.P,Q1,6,6*%
X169753800Y-116650001D03*
%TD*%
D36*
%TO.P,C10,1*%
%TO.N,GND*%
X130100000Y-119662500D03*
%TO.P,C10,2*%
%TO.N,Net-(U2-EN)*%
X130100000Y-121737500D03*
%TD*%
D48*
%TO.P,L1,1*%
%TO.N,Net-(U1-SW)*%
X161622050Y-111650001D03*
%TO.P,L1,2*%
%TO.N,+3.3V*%
X165822050Y-111650001D03*
%TD*%
D18*
%TO.P,C19,1*%
%TO.N,GND*%
X110600000Y-114437500D03*
%TO.P,C19,2*%
%TO.N,+2V8*%
X110600000Y-112362500D03*
%TD*%
D11*
%TO.P,R9,1*%
%TO.N,+3.3V*%
X157600000Y-101200000D03*
%TO.P,R9,2*%
%TO.N,/MCU/RESET_L_3v3*%
X157600000Y-99200000D03*
%TD*%
D49*
%TO.P,J4,1,Pin_1*%
%TO.N,GND*%
X104600000Y-92580000D03*
D50*
%TO.P,J4,2,Pin_2*%
%TO.N,Net-(J4-Pin_2)*%
X107140000Y-92580000D03*
%TO.P,J4,3,Pin_3*%
%TO.N,/MCU/RESET_L*%
X104600000Y-95120000D03*
%TO.P,J4,4,Pin_4*%
%TO.N,unconnected-(J4-Pin_4-Pad4)*%
X107140000Y-95120000D03*
%TO.P,J4,5,Pin_5*%
%TO.N,/MCU/VSYNC*%
X104600000Y-97660000D03*
%TO.P,J4,6,Pin_6*%
%TO.N,unconnected-(J4-Pin_6-Pad6)*%
X107140000Y-97660000D03*
%TO.P,J4,7,Pin_7*%
%TO.N,unconnected-(J4-Pin_7-Pad7)*%
X104600000Y-100200000D03*
%TO.P,J4,8,Pin_8*%
%TO.N,unconnected-(J4-Pin_8-Pad8)*%
X107140000Y-100200000D03*
%TO.P,J4,9,Pin_9*%
%TO.N,unconnected-(J4-Pin_9-Pad9)*%
X104600000Y-102740000D03*
%TO.P,J4,10,Pin_10*%
%TO.N,Net-(J4-Pin_10)*%
X107140000Y-102740000D03*
%TO.P,J4,11,Pin_11*%
%TO.N,/MCU/SPI_MOSI*%
X104600000Y-105280000D03*
%TO.P,J4,12,Pin_12*%
%TO.N,/MCU/SPI_CS*%
X107140000Y-105280000D03*
%TO.P,J4,13,Pin_13*%
%TO.N,/MCU/SPI_CLK*%
X104600000Y-107820000D03*
%TO.P,J4,14,Pin_14*%
%TO.N,/MCU/SCL_B*%
X107140000Y-107820000D03*
%TO.P,J4,15,Pin_15*%
%TO.N,/MCU/SDA_B*%
X104600000Y-110360000D03*
%TO.P,J4,16,Pin_16*%
%TO.N,+2V8*%
X107140000Y-110360000D03*
%TO.P,J4,17,Pin_17*%
%TO.N,unconnected-(J4-Pin_17-Pad17)*%
X104600000Y-112900000D03*
%TO.P,J4,18,Pin_18*%
%TO.N,unconnected-(J4-Pin_18-Pad18)*%
X107140000Y-112900000D03*
%TO.P,J4,19,Pin_19*%
%TO.N,GND*%
X104600000Y-115440000D03*
%TO.P,J4,20,Pin_20*%
%TO.N,+3.3V*%
X107140000Y-115440000D03*
%TD*%
D51*
%TO.P,RX,1,1*%
%TO.N,/MCU/RX*%
X168600000Y-75700000D03*
%TD*%
%TO.P,MISO,1,1*%
%TO.N,/MCU/SPI_MISO*%
X111100000Y-120700000D03*
%TD*%
%TO.P,SCL,1,1*%
%TO.N,/MCU/SCL_A*%
X111100000Y-131250000D03*
%TD*%
%TO.P,2v8,1,1*%
%TO.N,+2V8*%
X114700000Y-115400000D03*
%TD*%
%TO.P,CLK,1,1*%
%TO.N,/MCU/SPI_CLK*%
X121600000Y-120700000D03*
%TD*%
%TO.P,MOSI,1,1*%
%TO.N,/MCU/SPI_MOSI*%
X118100000Y-120700000D03*
%TD*%
%TO.P,3v3,1,1*%
%TO.N,+3.3V*%
X118200000Y-115400000D03*
%TD*%
%TO.P,CS,1,1*%
%TO.N,/MCU/SPI_CS*%
X114600000Y-120700000D03*
%TD*%
%TO.P,TX,1,1*%
%TO.N,/MCU/TX*%
X168600000Y-79700000D03*
%TD*%
%TO.P,SDA,1,1*%
%TO.N,/MCU/SDA_A*%
X111100000Y-126700000D03*
%TD*%
D52*
%TO.N,+2V8*%
X125500000Y-109400000D03*
%TO.N,GND*%
X124600000Y-110800000D03*
%TO.N,+2V8*%
X131900000Y-116900000D03*
X139600000Y-113700000D03*
X114600000Y-98200000D03*
X114600000Y-92200000D03*
X118600000Y-92200000D03*
X121600000Y-92200000D03*
X135600000Y-102700000D03*
%TO.N,/MCU/VSYNC*%
X150600000Y-105200000D03*
%TO.N,GND*%
X153600000Y-119200000D03*
X153600000Y-117700000D03*
X154600000Y-117700000D03*
X154600000Y-119200000D03*
%TO.N,+3.3V*%
X165100000Y-118700000D03*
X165100000Y-117200000D03*
X163100000Y-117200000D03*
X163100000Y-118700000D03*
X120300000Y-118400000D03*
%TO.N,GND*%
X131600000Y-84200000D03*
X141100000Y-81200000D03*
X137600000Y-80200000D03*
X132600000Y-80700000D03*
X132600000Y-87700000D03*
X137600000Y-88200000D03*
X141100000Y-87200000D03*
X111600000Y-88200000D03*
X123600000Y-79700000D03*
X109100000Y-79200000D03*
X111600000Y-81700000D03*
X123600000Y-85200000D03*
X109100000Y-85200000D03*
X120600000Y-81700000D03*
X120600000Y-83700000D03*
X111600000Y-83700000D03*
X124600000Y-99200000D03*
%TO.N,/MCU/EN_I2C*%
X131600000Y-99700000D03*
%TO.N,+5V*%
X172600000Y-80700000D03*
%TO.N,+3.3V*%
X133100000Y-96700000D03*
%TO.N,/MCU/EN_SPI*%
X143100000Y-110200000D03*
X159100000Y-91200000D03*
%TO.N,+3.3V*%
X152600000Y-110200000D03*
D53*
%TO.N,+5V*%
X169600000Y-93700000D03*
X142100000Y-89200000D03*
D52*
%TO.N,Net-(J6-CC2)*%
X111600000Y-74700000D03*
X117100000Y-74700000D03*
%TO.N,/MCU/CAM_TEMP*%
X164600000Y-90700000D03*
X157100000Y-90200000D03*
%TO.N,GND*%
X133600000Y-85450000D03*
X134600000Y-75700000D03*
X131600000Y-101700000D03*
X102100000Y-92200000D03*
X188100000Y-97237500D03*
X142600000Y-119737500D03*
X133600000Y-82450000D03*
X140100000Y-106200000D03*
X163175000Y-129300000D03*
X164337500Y-76700000D03*
X179500000Y-113700000D03*
X111900000Y-116000000D03*
X175200000Y-130200000D03*
X114100000Y-100200000D03*
X102600000Y-88700000D03*
X178100000Y-81317800D03*
X131900000Y-119400000D03*
X115600000Y-125200000D03*
X146600000Y-106200000D03*
X147600000Y-118700000D03*
X132600000Y-100700000D03*
X142600000Y-118700000D03*
%TO.N,Net-(U2-EN)*%
X138600000Y-120200000D03*
X147600000Y-89200000D03*
%TO.N,+3.3V*%
X136100000Y-97200000D03*
X158600000Y-102700000D03*
X175337500Y-89700000D03*
X148600000Y-114700000D03*
X137600000Y-119200000D03*
X152175000Y-129300000D03*
X130600000Y-76200000D03*
X176600000Y-88200000D03*
X108100000Y-88700000D03*
X116600000Y-125200000D03*
X164262500Y-97500000D03*
X148600000Y-113200000D03*
X143600000Y-102700000D03*
X180600000Y-97237500D03*
X132100000Y-103600000D03*
X175337500Y-86200000D03*
%TO.N,/MCU/SPI_MISO*%
X125600000Y-104200000D03*
X149600000Y-100200000D03*
%TO.N,/MCU/RESET_L_3v3*%
X148600000Y-106200000D03*
X153600000Y-102200000D03*
%TO.N,/MCU/SDA_A*%
X124600000Y-100200000D03*
X142600000Y-94000000D03*
X142980000Y-89820000D03*
X118600000Y-124200000D03*
%TO.N,/MCU/SCL_A*%
X124600000Y-101200000D03*
X119600000Y-124200000D03*
%TO.N,/MCU/SDA_B*%
X122600000Y-97200000D03*
%TO.N,/MCU/SCL_B*%
X118600000Y-100200000D03*
%TO.N,Net-(U2-IO17)*%
X146600000Y-91200000D03*
X134600000Y-95200000D03*
%TO.N,/MCU/EN_I2C*%
X159600000Y-85200000D03*
%TO.N,/Peripherals/USB_D-*%
X142100000Y-93200000D03*
X142224265Y-91575735D03*
X117950000Y-74739614D03*
X116600000Y-79200000D03*
%TD*%
D54*
%TO.N,+3.3V*%
X118450000Y-115400000D02*
X118200000Y-115400000D01*
X120300000Y-118400000D02*
X120300000Y-117250000D01*
X120300000Y-117250000D02*
X118450000Y-115400000D01*
%TO.N,/MCU/SDA_A*%
X113300000Y-128900000D02*
X111100000Y-126700000D01*
X118300000Y-128594700D02*
X117994700Y-128900000D01*
X118300000Y-127620000D02*
X118300000Y-128594700D01*
X117994700Y-128900000D02*
X113300000Y-128900000D01*
%TO.N,/MCU/SCL_A*%
X111450000Y-131600000D02*
X111100000Y-131250000D01*
X116700000Y-131600000D02*
X111450000Y-131600000D01*
X119300000Y-127620000D02*
X119300000Y-129000000D01*
X119300000Y-129000000D02*
X116700000Y-131600000D01*
%TO.N,GND*%
X125700000Y-111900000D02*
X124600000Y-110800000D01*
%TO.N,/MCU/SPI_CLK*%
X130100000Y-114200000D02*
X130100000Y-115400000D01*
X130100000Y-114200000D02*
X130700000Y-113600000D01*
X133000000Y-113600000D02*
X130300000Y-113600000D01*
X133600000Y-114200000D02*
X133000000Y-113600000D01*
X116270000Y-108970000D02*
X105750000Y-108970000D01*
X120900000Y-113600000D02*
X116270000Y-108970000D01*
X105750000Y-108970000D02*
X104600000Y-107820000D01*
X130300000Y-113600000D02*
X120900000Y-113600000D01*
%TO.N,/Power_Circuitry/source*%
X180100000Y-109565000D02*
X179235000Y-109565000D01*
X181600000Y-113200000D02*
X181600000Y-111065000D01*
X178600000Y-116200000D02*
X181600000Y-113200000D01*
X172446200Y-115700000D02*
X172946200Y-116200000D01*
X172946200Y-116200000D02*
X178600000Y-116200000D01*
X181600000Y-111065000D02*
X180100000Y-109565000D01*
D55*
X171100000Y-111400000D02*
X165400000Y-105700000D01*
X165400000Y-105700000D02*
X165400000Y-103975000D01*
X171100000Y-115000000D02*
X171100000Y-111400000D01*
X170400000Y-115700000D02*
X171100000Y-115000000D01*
X169753800Y-115700000D02*
X170400000Y-115700000D01*
D54*
%TO.N,Net-(C9-Pad2)*%
X158700000Y-104100000D02*
X161600000Y-101200000D01*
X154265686Y-104100000D02*
X158700000Y-104100000D01*
X149300000Y-124000000D02*
X149300000Y-109065686D01*
X149300000Y-109065686D02*
X154265686Y-104100000D01*
X147350000Y-125950000D02*
X149300000Y-124000000D01*
D55*
%TO.N,Net-(D6-PadC)*%
X165400000Y-99800000D02*
X165400000Y-102225000D01*
X169000000Y-96200000D02*
X165400000Y-99800000D01*
X172202500Y-96200000D02*
X169000000Y-96200000D01*
D54*
%TO.N,Net-(U2-IO0)*%
X164760000Y-92360000D02*
X162087500Y-92360000D01*
X165900000Y-93500000D02*
X164760000Y-92360000D01*
X165900000Y-95100000D02*
X165900000Y-93500000D01*
%TO.N,Net-(D5-A)*%
X176100000Y-110700000D02*
X176100000Y-114100000D01*
%TO.N,GND*%
X178500000Y-113700000D02*
X179500000Y-113700000D01*
X178100000Y-114100000D02*
X178500000Y-113700000D01*
%TO.N,Net-(D5-A)*%
X174965000Y-109565000D02*
X176100000Y-110700000D01*
X173096199Y-114100000D02*
X174496199Y-114100000D01*
X172446200Y-114749999D02*
X173096199Y-114100000D01*
%TO.N,/MCU/SPI_MOSI*%
X105990000Y-106670000D02*
X104600000Y-105280000D01*
X119370000Y-106670000D02*
X105990000Y-106670000D01*
X122900000Y-110200000D02*
X119370000Y-106670000D01*
X129500000Y-110200000D02*
X122900000Y-110200000D01*
X129400000Y-110200000D02*
X129500000Y-110200000D01*
X127700000Y-111900000D02*
X129400000Y-110200000D01*
X131200000Y-110200000D02*
X129500000Y-110200000D01*
%TO.N,/MCU/SPI_CS*%
X127000000Y-106800000D02*
X127000000Y-106900000D01*
X128520000Y-105280000D02*
X127000000Y-106800000D01*
X131000000Y-105280000D02*
X128520000Y-105280000D01*
%TO.N,+3.3V*%
X164662500Y-97100000D02*
X165900000Y-97100000D01*
X164262500Y-97500000D02*
X164662500Y-97100000D01*
%TO.N,/MCU/SPI_CS*%
X127000000Y-106780000D02*
X127000000Y-106800000D01*
%TO.N,+2V8*%
X126200000Y-108800000D02*
X125500000Y-109500000D01*
X127000000Y-108800000D02*
X126200000Y-108800000D01*
%TO.N,/MCU/RESET_L*%
X137292372Y-106307628D02*
X137992372Y-106307628D01*
X137292372Y-106307628D02*
X135184744Y-104200000D01*
X139559744Y-108575000D02*
X137292372Y-106307628D01*
X137992372Y-106307628D02*
X139900000Y-104400000D01*
%TO.N,+2V8*%
X137900000Y-102462500D02*
X136637500Y-101200000D01*
X137900000Y-104400000D02*
X137900000Y-102462500D01*
%TO.N,/MCU/SPI_CS*%
X131000000Y-105280000D02*
X107140000Y-105280000D01*
X132680000Y-105280000D02*
X131000000Y-105280000D01*
%TO.N,/MCU/SPI_MOSI*%
X133600000Y-110200000D02*
X131200000Y-110200000D01*
%TO.N,GND*%
X130362500Y-119400000D02*
X130100000Y-119662500D01*
X131900000Y-119400000D02*
X130362500Y-119400000D01*
%TO.N,+2V8*%
X131400000Y-117400000D02*
X131900000Y-116900000D01*
X130100000Y-117400000D02*
X131400000Y-117400000D01*
D55*
%TO.N,+5V*%
X124756878Y-85200000D02*
X124756878Y-86231572D01*
X124756878Y-77054378D02*
X124756878Y-85200000D01*
D54*
%TO.N,/Peripherals/USB_D-*%
X117125000Y-78500000D02*
X117125000Y-80256800D01*
X117125000Y-78500000D02*
X117125000Y-78675000D01*
X117125000Y-78377501D02*
X117125000Y-78500000D01*
X117125000Y-78675000D02*
X116600000Y-79200000D01*
%TO.N,Net-(U1-BST)*%
X157684550Y-107150001D02*
X157684550Y-110115450D01*
X157684550Y-110115450D02*
X157100000Y-110700000D01*
D55*
%TO.N,+5V*%
X141600000Y-89700000D02*
X142100000Y-89200000D01*
X137942893Y-89700000D02*
X141600000Y-89700000D01*
X124756878Y-86231572D02*
X129600306Y-91075000D01*
X129600306Y-91075000D02*
X136567893Y-91075000D01*
X121302500Y-73600000D02*
X124756878Y-77054378D01*
X119100000Y-73600000D02*
X121302500Y-73600000D01*
X136567893Y-91075000D02*
X137942893Y-89700000D01*
D56*
X116100000Y-74780761D02*
X117280761Y-73600000D01*
X116100000Y-75970000D02*
X116100000Y-74780761D01*
X117280761Y-73600000D02*
X119100000Y-73600000D01*
X118600000Y-74100000D02*
X119100000Y-73600000D01*
X118600000Y-75970000D02*
X118600000Y-74100000D01*
D54*
%TO.N,GND*%
X110600000Y-114700000D02*
X111900000Y-116000000D01*
X111900000Y-116000000D02*
X111700000Y-115800000D01*
X110600000Y-114437500D02*
X110600000Y-114700000D01*
D55*
%TO.N,Net-(U1-EN)*%
X151462500Y-119862500D02*
X154800000Y-123200000D01*
X151462500Y-115650001D02*
X151462500Y-119862500D01*
D54*
%TO.N,+3.3V*%
X127562500Y-102200000D02*
X128962500Y-103600000D01*
X128962500Y-103600000D02*
X132100000Y-103600000D01*
%TO.N,+2V8*%
X140005000Y-113700000D02*
X139600000Y-113700000D01*
X141230000Y-112475000D02*
X140005000Y-113700000D01*
X136637500Y-101662500D02*
X135600000Y-102700000D01*
X136637500Y-101200000D02*
X136637500Y-101662500D01*
%TO.N,/MCU/VSYNC*%
X150600000Y-100700000D02*
X150600000Y-105200000D01*
X156512500Y-94787500D02*
X150600000Y-100700000D01*
X156512500Y-93610000D02*
X156512500Y-94787500D01*
%TO.N,+3.3V*%
X131725000Y-77325000D02*
X137800000Y-77325000D01*
X130600000Y-76200000D02*
X131725000Y-77325000D01*
%TO.N,Net-(U2-IO16)*%
X144227500Y-86010000D02*
X144587500Y-86010000D01*
X143537500Y-86700000D02*
X144227500Y-86010000D01*
X142350000Y-86700000D02*
X143537500Y-86700000D01*
X141100000Y-85450000D02*
X142350000Y-86700000D01*
%TO.N,Net-(U2-IO15)*%
X142890000Y-84740000D02*
X144587500Y-84740000D01*
X141100000Y-82950000D02*
X142890000Y-84740000D01*
%TO.N,GND*%
X112512000Y-89112000D02*
X111600000Y-88200000D01*
X114295000Y-89112000D02*
X112512000Y-89112000D01*
X125425000Y-99200000D02*
X124600000Y-99200000D01*
X126450000Y-98175000D02*
X125425000Y-99200000D01*
%TO.N,/MCU/EN_I2C*%
X131600000Y-99025000D02*
X131600000Y-99700000D01*
X130750000Y-98175000D02*
X131600000Y-99025000D01*
%TO.N,+5V*%
X173100000Y-80700000D02*
X172600000Y-80700000D01*
X174100000Y-79700000D02*
X173100000Y-80700000D01*
%TO.N,+3.3V*%
X132625000Y-96225000D02*
X133100000Y-96700000D01*
X130750000Y-96225000D02*
X132625000Y-96225000D01*
%TO.N,/MCU/EN_SPI*%
X159100000Y-86777500D02*
X159100000Y-91200000D01*
X161137500Y-84740000D02*
X159100000Y-86777500D01*
X162087500Y-84740000D02*
X161137500Y-84740000D01*
X142125000Y-111175000D02*
X143100000Y-110200000D01*
X141230000Y-111175000D02*
X142125000Y-111175000D01*
X141230000Y-111825000D02*
X141230000Y-111175000D01*
%TO.N,+3.3V*%
X153100000Y-110700000D02*
X152600000Y-110200000D01*
X154344100Y-110700000D02*
X153100000Y-110700000D01*
%TO.N,Net-(J6-CC2)*%
X111600000Y-75165500D02*
X110842500Y-75923000D01*
X111600000Y-74700000D02*
X111600000Y-75165500D01*
X116600000Y-75200000D02*
X117100000Y-74700000D01*
X116600000Y-75970000D02*
X116600000Y-75200000D01*
%TO.N,/Peripherals/USB_D-*%
X117600000Y-75089614D02*
X117600000Y-75970000D01*
X117950000Y-74739614D02*
X117600000Y-75089614D01*
D56*
%TO.N,+5V*%
X118600000Y-75970000D02*
X118600000Y-77700000D01*
D54*
X114714500Y-81085500D02*
X109142500Y-81085500D01*
X116000000Y-79800000D02*
X114714500Y-81085500D01*
X116000000Y-77800000D02*
X116000000Y-79800000D01*
X116100000Y-77700000D02*
X116000000Y-77800000D01*
D55*
X173972500Y-93700000D02*
X176472500Y-96200000D01*
X169600000Y-93700000D02*
X173972500Y-93700000D01*
D54*
%TO.N,/MCU/CAM_TEMP*%
X166600000Y-92700000D02*
X164600000Y-90700000D01*
X181600000Y-92700000D02*
X166600000Y-92700000D01*
X182100000Y-92200000D02*
X181600000Y-92700000D01*
X147000000Y-89600000D02*
X147600000Y-90200000D01*
X147000000Y-81122500D02*
X147000000Y-89600000D01*
X147600000Y-90200000D02*
X157100000Y-90200000D01*
X145537500Y-79660000D02*
X147000000Y-81122500D01*
X144587500Y-79660000D02*
X145537500Y-79660000D01*
X182100000Y-92700000D02*
X182100000Y-94237500D01*
X182100000Y-91700000D02*
X182100000Y-92700000D01*
%TO.N,GND*%
X134600000Y-75700000D02*
X136100000Y-74200000D01*
X136100000Y-74200000D02*
X137800000Y-74200000D01*
%TO.N,/MCU/SPI_CLK*%
X118600000Y-117700000D02*
X121600000Y-120700000D01*
X102500000Y-117001471D02*
X102500000Y-108800000D01*
X102500000Y-108800000D02*
X103480000Y-107820000D01*
X103198529Y-117700000D02*
X102500000Y-117001471D01*
X118600000Y-117700000D02*
X103198529Y-117700000D01*
X103480000Y-107820000D02*
X104600000Y-107820000D01*
%TO.N,/MCU/SPI_MOSI*%
X103520000Y-105280000D02*
X104600000Y-105280000D01*
X102100000Y-106700000D02*
X103520000Y-105280000D01*
X103100000Y-119700000D02*
X102100000Y-118700000D01*
X109434314Y-119700000D02*
X103100000Y-119700000D01*
X109934314Y-119200000D02*
X109434314Y-119700000D01*
X102100000Y-118700000D02*
X102100000Y-106700000D01*
X118100000Y-120700000D02*
X116600000Y-119200000D01*
X116600000Y-119200000D02*
X109934314Y-119200000D01*
%TO.N,/MCU/SPI_CS*%
X113550000Y-119650000D02*
X114600000Y-120700000D01*
X110050000Y-119650000D02*
X113550000Y-119650000D01*
X109500000Y-120200000D02*
X110050000Y-119650000D01*
X102665686Y-120200000D02*
X109500000Y-120200000D01*
X101600000Y-106200000D02*
X101600000Y-119134314D01*
X101600000Y-119134314D02*
X102665686Y-120200000D01*
X105990000Y-104130000D02*
X103670000Y-104130000D01*
X103670000Y-104130000D02*
X101600000Y-106200000D01*
X107140000Y-105280000D02*
X105990000Y-104130000D01*
%TO.N,/MCU/SPI_MISO*%
X101100000Y-104613654D02*
X101100000Y-119200000D01*
X110990000Y-101590000D02*
X104123654Y-101590000D01*
X101100000Y-119200000D02*
X102600000Y-120700000D01*
X102600000Y-120700000D02*
X111100000Y-120700000D01*
X112600000Y-103200000D02*
X110990000Y-101590000D01*
X104123654Y-101590000D02*
X101100000Y-104613654D01*
%TO.N,+2V8*%
X125125000Y-96225000D02*
X123600000Y-94700000D01*
X123600000Y-94700000D02*
X123600000Y-93200000D01*
X126450000Y-96225000D02*
X125125000Y-96225000D01*
%TO.N,GND*%
X146970000Y-107925000D02*
X146600000Y-107555000D01*
X134562500Y-101200000D02*
X133100000Y-101200000D01*
X141400000Y-74725000D02*
X138325000Y-74725000D01*
X114600000Y-75035000D02*
X114950000Y-74685000D01*
X146600000Y-117237500D02*
X147600000Y-118237500D01*
X141637500Y-117237500D02*
X142600000Y-118200000D01*
X161200000Y-130300000D02*
X162175000Y-130300000D01*
X113137500Y-99237500D02*
X114100000Y-100200000D01*
X114600000Y-77700000D02*
X114600000Y-78635000D01*
X104562500Y-88200000D02*
X103100000Y-88200000D01*
X177100000Y-80317800D02*
X178100000Y-81317800D01*
X147115000Y-108070000D02*
X147600000Y-108070000D01*
X129637500Y-102200000D02*
X131100000Y-102200000D01*
X133100000Y-101200000D02*
X132600000Y-100700000D01*
X143250000Y-75850000D02*
X142125000Y-74725000D01*
X131100000Y-102200000D02*
X131600000Y-101700000D01*
X120100000Y-77700000D02*
X120100000Y-78635000D01*
X135062500Y-81950000D02*
X134100000Y-81950000D01*
X116300000Y-127620000D02*
X116300000Y-125900000D01*
X146600000Y-107555000D02*
X146600000Y-106200000D01*
X141600000Y-117237500D02*
X141637500Y-117237500D01*
X142125000Y-74725000D02*
X141400000Y-74725000D01*
X120100000Y-78635000D02*
X119750000Y-78985000D01*
X120100000Y-75970000D02*
X120100000Y-77700000D01*
X112600000Y-99237500D02*
X113137500Y-99237500D01*
X114600000Y-75970000D02*
X114600000Y-77700000D01*
X187600000Y-97237500D02*
X188100000Y-97237500D01*
X114600000Y-75970000D02*
X114600000Y-75035000D01*
X141100000Y-120200000D02*
X142137500Y-120200000D01*
X104600000Y-92580000D02*
X102480000Y-92580000D01*
X172600000Y-130200000D02*
X175200000Y-130200000D01*
X142137500Y-120200000D02*
X142600000Y-119737500D01*
X120100000Y-75035000D02*
X119750000Y-74685000D01*
X143250000Y-75850000D02*
X144587500Y-75850000D01*
X138325000Y-74725000D02*
X137800000Y-74200000D01*
X134100000Y-81950000D02*
X133600000Y-82450000D01*
X116300000Y-125900000D02*
X115600000Y-125200000D01*
X162087500Y-75850000D02*
X163487500Y-75850000D01*
X186600000Y-96237500D02*
X187600000Y-97237500D01*
X140100000Y-106795000D02*
X140100000Y-106200000D01*
X102480000Y-92580000D02*
X102100000Y-92200000D01*
X163487500Y-75850000D02*
X164337500Y-76700000D01*
X103100000Y-88200000D02*
X102600000Y-88700000D01*
X147600000Y-118237500D02*
X147600000Y-118700000D01*
X162175000Y-130300000D02*
X163175000Y-129300000D01*
X134600000Y-86450000D02*
X135062500Y-86450000D01*
X114600000Y-78635000D02*
X114950000Y-78985000D01*
X133600000Y-85450000D02*
X134600000Y-86450000D01*
X120100000Y-75970000D02*
X120100000Y-75035000D01*
X141230000Y-107925000D02*
X140100000Y-106795000D01*
X142600000Y-118200000D02*
X142600000Y-118700000D01*
%TO.N,Net-(U2-EN)*%
X147600000Y-80452500D02*
X147600000Y-89200000D01*
X144587500Y-78390000D02*
X145537500Y-78390000D01*
X145537500Y-78390000D02*
X147600000Y-80452500D01*
X129850000Y-125950000D02*
X136350000Y-125950000D01*
X136100000Y-121700000D02*
X136100000Y-125700000D01*
X136100000Y-125700000D02*
X136350000Y-125950000D01*
X130100000Y-121737500D02*
X130100000Y-125700000D01*
X137100000Y-121700000D02*
X136100000Y-121700000D01*
X130100000Y-125700000D02*
X129850000Y-125950000D01*
X138600000Y-120200000D02*
X137100000Y-121700000D01*
%TO.N,Net-(U2-IO0)*%
X162087500Y-92360000D02*
X162087500Y-93712500D01*
X165900000Y-95100000D02*
X165900000Y-94837500D01*
X162247500Y-92200000D02*
X162087500Y-92360000D01*
X162087500Y-93712500D02*
X161600000Y-94200000D01*
X161600000Y-94200000D02*
X161600000Y-99200000D01*
D55*
%TO.N,Net-(U1-EN)*%
X155500000Y-123900000D02*
X154800000Y-123200000D01*
X161337500Y-123900000D02*
X155500000Y-123900000D01*
D54*
%TO.N,Net-(U2-IO15)*%
X141310000Y-82740000D02*
X141100000Y-82950000D01*
X138137500Y-82950000D02*
X137137500Y-81950000D01*
X141100000Y-82950000D02*
X138137500Y-82950000D01*
%TO.N,/MCU/CAM_TEMP*%
X184600000Y-89200000D02*
X186600000Y-91200000D01*
X186600000Y-91200000D02*
X186600000Y-94162500D01*
X184600000Y-89200000D02*
X182100000Y-91700000D01*
%TO.N,Net-(U2-IO16)*%
X138137500Y-85450000D02*
X137137500Y-86450000D01*
X141850000Y-85450000D02*
X141100000Y-85450000D01*
X141100000Y-85450000D02*
X138137500Y-85450000D01*
%TO.N,+3.3V*%
X178600000Y-86200000D02*
X176600000Y-88200000D01*
X182100000Y-96237500D02*
X181100000Y-97237500D01*
X153175000Y-130300000D02*
X152175000Y-129300000D01*
X174837500Y-90200000D02*
X175337500Y-89700000D01*
X181100000Y-97237500D02*
X180600000Y-97237500D01*
X174837500Y-85700000D02*
X175337500Y-86200000D01*
X107600000Y-88200000D02*
X106637500Y-88200000D01*
X141600000Y-101700000D02*
X142600000Y-101700000D01*
X148600000Y-113200000D02*
X147875000Y-112475000D01*
X138325000Y-76800000D02*
X137800000Y-77325000D01*
X142937500Y-76800000D02*
X141400000Y-76800000D01*
X143257500Y-77120000D02*
X142937500Y-76800000D01*
X117300000Y-127620000D02*
X117300000Y-125900000D01*
X148137500Y-115162500D02*
X146600000Y-115162500D01*
X136100000Y-97200000D02*
X136600000Y-96700000D01*
X173837500Y-90200000D02*
X174837500Y-90200000D01*
X158600000Y-102200000D02*
X158600000Y-102700000D01*
X148600000Y-114700000D02*
X148137500Y-115162500D01*
X144587500Y-77120000D02*
X143257500Y-77120000D01*
X173837500Y-85700000D02*
X174837500Y-85700000D01*
X153675000Y-130300000D02*
X153175000Y-130300000D01*
X137100000Y-119700000D02*
X137600000Y-119200000D01*
X141400000Y-76800000D02*
X138325000Y-76800000D01*
X146970000Y-111175000D02*
X146970000Y-112475000D01*
X142600000Y-101700000D02*
X143600000Y-102700000D01*
X157600000Y-101200000D02*
X158600000Y-102200000D01*
X147875000Y-112475000D02*
X146970000Y-112475000D01*
X108100000Y-88700000D02*
X107600000Y-88200000D01*
X136600000Y-96700000D02*
X137600000Y-96700000D01*
X117300000Y-125900000D02*
X116600000Y-125200000D01*
X136100000Y-119700000D02*
X137100000Y-119700000D01*
%TO.N,Net-(D4-A)*%
X169362500Y-85700000D02*
X171837500Y-85700000D01*
%TO.N,/MCU/LED_1*%
X165892500Y-88780000D02*
X164392500Y-87280000D01*
X167312500Y-90200000D02*
X165892500Y-88780000D01*
X164392500Y-87280000D02*
X162087500Y-87280000D01*
%TO.N,/MCU/LED_2*%
X165502500Y-86010000D02*
X162087500Y-86010000D01*
X167312500Y-85700000D02*
X167002500Y-86010000D01*
X167002500Y-86010000D02*
X165502500Y-86010000D01*
%TO.N,+2V8*%
X112600000Y-97162500D02*
X113562500Y-97162500D01*
X110600000Y-112362500D02*
X109142500Y-112362500D01*
X113562500Y-97162500D02*
X114600000Y-98200000D01*
X112600000Y-94200000D02*
X112600000Y-97162500D01*
X141600000Y-112845000D02*
X141600000Y-115162500D01*
X109142500Y-112362500D02*
X107140000Y-110360000D01*
X115600000Y-93200000D02*
X114600000Y-92200000D01*
X141230000Y-112475000D02*
X141600000Y-112845000D01*
X122600000Y-93200000D02*
X121600000Y-92200000D01*
X123600000Y-93200000D02*
X122600000Y-93200000D01*
X115600000Y-94200000D02*
X115600000Y-93200000D01*
D55*
%TO.N,Net-(FB1-Pad1)*%
X169753800Y-114749999D02*
X169150001Y-114749999D01*
X164400000Y-123900000D02*
X163062500Y-123900000D01*
D54*
X169753800Y-114749999D02*
X169512500Y-114749999D01*
D55*
X169150001Y-114749999D02*
X166400000Y-117500000D01*
X166400000Y-121900000D02*
X164400000Y-123900000D01*
X166400000Y-117500000D02*
X166400000Y-121900000D01*
D54*
X169703801Y-114700000D02*
X169753800Y-114749999D01*
%TO.N,/MCU/RX*%
X163887500Y-82200000D02*
X174574700Y-82200000D01*
X174574700Y-82200000D02*
X176100000Y-80674700D01*
X176100000Y-79700000D02*
X176100000Y-78219800D01*
X162317500Y-80700000D02*
X162087500Y-80930000D01*
X163137500Y-81450000D02*
X163887500Y-82200000D01*
X176100000Y-78219800D02*
X173580200Y-75700000D01*
X173580200Y-75700000D02*
X168600000Y-75700000D01*
X162087500Y-80930000D02*
X162607500Y-81450000D01*
X162607500Y-81450000D02*
X163137500Y-81450000D01*
X176100000Y-80674700D02*
X176100000Y-79700000D01*
%TO.N,/MCU/TX*%
X167100000Y-81800000D02*
X165200000Y-81800000D01*
X167100000Y-81800000D02*
X168600000Y-80300000D01*
X168600000Y-80300000D02*
X168600000Y-79700000D01*
X162127500Y-79700000D02*
X162087500Y-79660000D01*
X165200000Y-81800000D02*
X163060000Y-79660000D01*
X175100000Y-79700000D02*
X175100000Y-80700000D01*
X175100000Y-80700000D02*
X174000000Y-81800000D01*
X163060000Y-79660000D02*
X162087500Y-79660000D01*
X174000000Y-81800000D02*
X167100000Y-81800000D01*
%TO.N,Net-(D2-A)*%
X159150000Y-130300000D02*
X155675000Y-130300000D01*
%TO.N,Net-(D3-A)*%
X169362500Y-90200000D02*
X171837500Y-90200000D01*
%TO.N,/MCU/SPI_CS*%
X133600000Y-106200000D02*
X132680000Y-105280000D01*
%TO.N,/MCU/SPI_MISO*%
X124600000Y-103200000D02*
X125600000Y-104200000D01*
X112600000Y-103200000D02*
X124600000Y-103200000D01*
X149837500Y-100200000D02*
X153972500Y-96065000D01*
X149600000Y-100200000D02*
X149837500Y-100200000D01*
X153972500Y-96065000D02*
X153972500Y-93610000D01*
%TO.N,/MCU/RESET_L*%
X107523173Y-96270000D02*
X105750000Y-96270000D01*
X135184744Y-104200000D02*
X126751471Y-104200000D01*
X141230000Y-108575000D02*
X139559744Y-108575000D01*
X105750000Y-96270000D02*
X104600000Y-95120000D01*
X112453173Y-101200000D02*
X107523173Y-96270000D01*
X126751471Y-104200000D02*
X123751471Y-101200000D01*
X123751471Y-101200000D02*
X112453173Y-101200000D01*
D55*
%TO.N,Net-(J1-Pin_1)*%
X180435250Y-119240000D02*
X184100000Y-119240000D01*
X176765750Y-122909500D02*
X180435250Y-119240000D01*
D54*
%TO.N,/MCU/RESET_L_3v3*%
X148600000Y-107729999D02*
X148600000Y-106200000D01*
X153600000Y-102200000D02*
X156600000Y-99200000D01*
X160322500Y-95477500D02*
X157600000Y-98200000D01*
X157600000Y-98200000D02*
X157600000Y-99200000D01*
X146970000Y-108575000D02*
X147754999Y-108575000D01*
X147754999Y-108575000D02*
X148600000Y-107729999D01*
X160322500Y-93610000D02*
X160322500Y-95477500D01*
X156600000Y-99200000D02*
X157600000Y-99200000D01*
%TO.N,Net-(U3-1B1)*%
X140494336Y-110525000D02*
X136819336Y-114200000D01*
X141230000Y-110525000D02*
X140494336Y-110525000D01*
X136819336Y-114200000D02*
X135600000Y-114200000D01*
%TO.N,Net-(J4-Pin_2)*%
X112600000Y-92200000D02*
X107520000Y-92200000D01*
X107520000Y-92200000D02*
X107140000Y-92580000D01*
%TO.N,Net-(U3-1B2)*%
X137600000Y-110200000D02*
X135600000Y-110200000D01*
X141230000Y-109875000D02*
X137925000Y-109875000D01*
X137925000Y-109875000D02*
X137600000Y-110200000D01*
%TO.N,Net-(U3-2B1)*%
X138625000Y-109225000D02*
X136612500Y-107212500D01*
X141230000Y-109225000D02*
X138625000Y-109225000D01*
X136625000Y-107225000D02*
X135600000Y-106200000D01*
%TO.N,/MCU/SPI_CS_3v3*%
X145200000Y-109539999D02*
X145200000Y-100600000D01*
X146970000Y-110525000D02*
X146185001Y-110525000D01*
X150162500Y-95637500D02*
X150162500Y-93610000D01*
X146185001Y-110525000D02*
X145200000Y-109539999D01*
X145200000Y-100600000D02*
X150162500Y-95637500D01*
%TO.N,/MCU/SPI_CLK_3v3*%
X149200000Y-108600000D02*
X149200000Y-105951471D01*
X148600000Y-100200000D02*
X152702500Y-96097500D01*
X148600000Y-105351471D02*
X148600000Y-100200000D01*
X148575000Y-109225000D02*
X149200000Y-108600000D01*
X149200000Y-105951471D02*
X148600000Y-105351471D01*
X152702500Y-96097500D02*
X152702500Y-93610000D01*
X146970000Y-109225000D02*
X148575000Y-109225000D01*
%TO.N,/MCU/SPI_MOSI_3v3*%
X145600000Y-101417157D02*
X151432500Y-95584657D01*
X146234336Y-109875000D02*
X145600000Y-109240664D01*
X151432500Y-95584657D02*
X151432500Y-93610000D01*
X145600000Y-109240664D02*
X145600000Y-101417157D01*
X146970000Y-109875000D02*
X146234336Y-109875000D01*
D56*
%TO.N,+5V*%
X116100000Y-76823000D02*
X116100000Y-77700000D01*
X116100000Y-75970000D02*
X116100000Y-76823000D01*
D54*
%TO.N,Net-(D5-A)*%
X174496199Y-114100000D02*
X176100000Y-114100000D01*
%TO.N,/MCU/SDA_A*%
X142600000Y-94000000D02*
X142600000Y-94200000D01*
X142980000Y-89820000D02*
X144587500Y-89820000D01*
X118300000Y-127620000D02*
X118300000Y-124500000D01*
X139600000Y-97200000D02*
X138100000Y-98700000D01*
X118300000Y-124500000D02*
X118600000Y-124200000D01*
X126600000Y-100200000D02*
X124600000Y-100200000D01*
X133600000Y-98700000D02*
X131775000Y-96875000D01*
X129925000Y-96875000D02*
X126600000Y-100200000D01*
X142600000Y-94200000D02*
X139600000Y-97200000D01*
X138100000Y-98700000D02*
X133600000Y-98700000D01*
X131775000Y-96875000D02*
X130750000Y-96875000D01*
X130750000Y-96875000D02*
X129925000Y-96875000D01*
%TO.N,/MCU/SCL_A*%
X125100000Y-100700000D02*
X124600000Y-101200000D01*
X148892500Y-94560000D02*
X148892500Y-93610000D01*
X141600000Y-99700000D02*
X143100000Y-98200000D01*
X119300000Y-124500000D02*
X119600000Y-124200000D01*
X145252500Y-98200000D02*
X148892500Y-94560000D01*
X119300000Y-127620000D02*
X119300000Y-124500000D01*
X141600000Y-99700000D02*
X133640778Y-99700000D01*
X143100000Y-98200000D02*
X145252500Y-98200000D01*
X131465778Y-97525000D02*
X130750000Y-97525000D01*
X126840001Y-100700000D02*
X125100000Y-100700000D01*
X130015001Y-97525000D02*
X126840001Y-100700000D01*
X133640778Y-99700000D02*
X131465778Y-97525000D01*
X130750000Y-97525000D02*
X130015001Y-97525000D01*
%TO.N,/MCU/SDA_B*%
X123600000Y-96200000D02*
X119600000Y-96200000D01*
X126450000Y-96875000D02*
X124275000Y-96875000D01*
X124275000Y-96875000D02*
X123600000Y-96200000D01*
X122925000Y-96875000D02*
X122600000Y-97200000D01*
X124275000Y-96875000D02*
X122925000Y-96875000D01*
%TO.N,/MCU/SCL_B*%
X107260000Y-107700000D02*
X107140000Y-107820000D01*
X126450000Y-97525000D02*
X125734222Y-97525000D01*
X125734222Y-97525000D02*
X125059222Y-98200000D01*
%TO.N,+2V8*%
X119600000Y-94200000D02*
X119600000Y-93200000D01*
%TO.N,/MCU/SCL_B*%
X120600000Y-98200000D02*
X117600000Y-98200000D01*
X120600000Y-98200000D02*
X118600000Y-100200000D01*
%TO.N,+2V8*%
X119600000Y-93200000D02*
X118600000Y-92200000D01*
%TO.N,/MCU/SCL_B*%
X125059222Y-98200000D02*
X120600000Y-98200000D01*
X117600000Y-98200000D02*
X115600000Y-96200000D01*
%TO.N,Net-(J6-CC1)*%
X122600000Y-81700000D02*
X121100000Y-80200000D01*
X118100000Y-78662082D02*
X118100000Y-77700000D01*
X123600000Y-81700000D02*
X122600000Y-81700000D01*
X121100000Y-80200000D02*
X119637918Y-80200000D01*
X119637918Y-80200000D02*
X118100000Y-78662082D01*
%TO.N,Net-(C9-Pad2)*%
X140850000Y-125950000D02*
X147350000Y-125950000D01*
X141100000Y-125700000D02*
X140850000Y-125950000D01*
X141100000Y-121737500D02*
X141100000Y-125700000D01*
%TO.N,Net-(J4-Pin_10)*%
X107600000Y-103200000D02*
X107140000Y-102740000D01*
X110600000Y-103200000D02*
X107600000Y-103200000D01*
%TO.N,/MCU/EN_SPI*%
X163037500Y-84740000D02*
X162087500Y-84740000D01*
X178600000Y-84200000D02*
X163577500Y-84200000D01*
X163577500Y-84200000D02*
X163037500Y-84740000D01*
%TO.N,Net-(U2-IO17)*%
X144587500Y-87280000D02*
X145537500Y-87280000D01*
X145537500Y-87280000D02*
X146600000Y-88342500D01*
X146600000Y-88342500D02*
X146600000Y-91200000D01*
X125600000Y-93200000D02*
X132600000Y-93200000D01*
X132600000Y-93200000D02*
X134600000Y-95200000D01*
%TO.N,/MCU/EN_I2C*%
X159600000Y-85200000D02*
X161330000Y-83470000D01*
X161330000Y-83470000D02*
X162087500Y-83470000D01*
%TO.N,/Peripherals/USB_D-*%
X115975000Y-85793200D02*
X117506800Y-87325000D01*
X142710000Y-91090000D02*
X144587500Y-91090000D01*
X115565000Y-82544249D02*
X115565000Y-83688000D01*
X115975000Y-85241751D02*
X115975000Y-85793200D01*
X115565000Y-83688000D02*
X115565000Y-84831751D01*
X124506800Y-87325000D02*
X129206800Y-92025000D01*
X136774999Y-92025000D02*
X137549999Y-92800000D01*
X115975000Y-81406800D02*
X115975000Y-82134249D01*
X142100000Y-93200000D02*
X141700000Y-92800000D01*
X115565000Y-84831751D02*
X115975000Y-85241751D01*
X129206800Y-92025000D02*
X136774999Y-92025000D01*
X137549999Y-92800000D02*
X138600000Y-92800000D01*
X115975000Y-82134249D02*
X115565000Y-82544249D01*
X117100000Y-77700000D02*
X117100000Y-78352501D01*
X117100000Y-78352501D02*
X117125000Y-78377501D01*
X142224265Y-91575735D02*
X142710000Y-91090000D01*
X117506800Y-87325000D02*
X124506800Y-87325000D01*
X117125000Y-80256800D02*
X115975000Y-81406800D01*
X141700000Y-92800000D02*
X140600000Y-92800000D01*
%TO.N,/Peripherals/USB_D+*%
X117575000Y-80443200D02*
X116425000Y-81593200D01*
X116425000Y-85241751D02*
X116425000Y-85606800D01*
X116835000Y-84831751D02*
X116425000Y-85241751D01*
X140600000Y-90800000D02*
X142160000Y-92360000D01*
X116425000Y-82134249D02*
X116835000Y-82544249D01*
X116425000Y-81593200D02*
X116425000Y-82134249D01*
X116425000Y-85606800D02*
X117693200Y-86875000D01*
X124693200Y-86875000D02*
X129393200Y-91575000D01*
X117600000Y-77105000D02*
X117600000Y-77700000D01*
X116835000Y-83688000D02*
X116835000Y-84831751D01*
X136774999Y-91575000D02*
X137549999Y-90800000D01*
X129393200Y-91575000D02*
X136774999Y-91575000D01*
X116835000Y-82544249D02*
X116835000Y-83688000D01*
X117575000Y-78377501D02*
X117575000Y-80443200D01*
X117600000Y-77700000D02*
X117600000Y-78352501D01*
X142160000Y-92360000D02*
X144587500Y-92360000D01*
X117100000Y-76605000D02*
X117600000Y-77105000D01*
X117100000Y-75970000D02*
X117100000Y-76605000D01*
X137549999Y-90800000D02*
X138600000Y-90800000D01*
X117693200Y-86875000D02*
X124693200Y-86875000D01*
X117600000Y-78352501D02*
X117575000Y-78377501D01*
%TO.N,+5V*%
X118105000Y-83688000D02*
X118993000Y-82800000D01*
X118993000Y-82800000D02*
X124284744Y-82800000D01*
X124284744Y-82800000D02*
X124756878Y-83272134D01*
%TD*%
%TA.AperFunction,Conductor*%
%TO.N,Net-(U1-EN)*%
G36*
X152793799Y-111216612D02*
G01*
X152868216Y-111259577D01*
X153020943Y-111300501D01*
X153020945Y-111300501D01*
X153186654Y-111300501D01*
X153186670Y-111300500D01*
X153218450Y-111300500D01*
X153285489Y-111320185D01*
X153331244Y-111372989D01*
X153335638Y-111393189D01*
X153342450Y-111400001D01*
X153527863Y-111400001D01*
X153594902Y-111419686D01*
X153599365Y-111422784D01*
X153600120Y-111423197D01*
X153734967Y-111473491D01*
X153734966Y-111473491D01*
X153741894Y-111474235D01*
X153794577Y-111479900D01*
X154470101Y-111479899D01*
X154537139Y-111499583D01*
X154582894Y-111552387D01*
X154594100Y-111603899D01*
X154594100Y-113379402D01*
X154893578Y-113379402D01*
X154893594Y-113379401D01*
X154953122Y-113373000D01*
X154953129Y-113372998D01*
X155087836Y-113322756D01*
X155087843Y-113322752D01*
X155201689Y-113237527D01*
X155267153Y-113213109D01*
X155335426Y-113227960D01*
X155384832Y-113277365D01*
X155400000Y-113336793D01*
X155400000Y-113876000D01*
X155380315Y-113943039D01*
X155327511Y-113988794D01*
X155276000Y-114000000D01*
X152500000Y-114000000D01*
X152500000Y-114514978D01*
X152480315Y-114582017D01*
X152427511Y-114627772D01*
X152358353Y-114637716D01*
X152294797Y-114608691D01*
X152288319Y-114602659D01*
X152268345Y-114582685D01*
X152119124Y-114490644D01*
X152119119Y-114490642D01*
X151952697Y-114435495D01*
X151952690Y-114435494D01*
X151849986Y-114425001D01*
X151712500Y-114425001D01*
X151712500Y-115776001D01*
X151692815Y-115843040D01*
X151640011Y-115888795D01*
X151588500Y-115900001D01*
X150375001Y-115900001D01*
X150375001Y-116174987D01*
X150385494Y-116277698D01*
X150440641Y-116444120D01*
X150440643Y-116444125D01*
X150532684Y-116593347D01*
X150537161Y-116599008D01*
X150534599Y-116601033D01*
X150561142Y-116649642D01*
X150556158Y-116719334D01*
X150514286Y-116775267D01*
X150448822Y-116799684D01*
X150439976Y-116800000D01*
X150024500Y-116800000D01*
X149957461Y-116780315D01*
X149911706Y-116727511D01*
X149900500Y-116676000D01*
X149900500Y-115125014D01*
X150375000Y-115125014D01*
X150375000Y-115400001D01*
X151212500Y-115400001D01*
X151212500Y-114425001D01*
X151075027Y-114425001D01*
X151075012Y-114425002D01*
X150972302Y-114435495D01*
X150805880Y-114490642D01*
X150805875Y-114490644D01*
X150656654Y-114582685D01*
X150532684Y-114706655D01*
X150440643Y-114855876D01*
X150440641Y-114855881D01*
X150385494Y-115022303D01*
X150385493Y-115022310D01*
X150375000Y-115125014D01*
X149900500Y-115125014D01*
X149900500Y-112927246D01*
X153342450Y-112927246D01*
X153348851Y-112986774D01*
X153348853Y-112986781D01*
X153399095Y-113121488D01*
X153399099Y-113121495D01*
X153485259Y-113236589D01*
X153485262Y-113236592D01*
X153600356Y-113322752D01*
X153600363Y-113322756D01*
X153735070Y-113372998D01*
X153735077Y-113373000D01*
X153794605Y-113379401D01*
X153794622Y-113379402D01*
X154094100Y-113379402D01*
X154094100Y-112850002D01*
X153342450Y-112850002D01*
X153342450Y-112927246D01*
X149900500Y-112927246D01*
X149900500Y-111977245D01*
X153342450Y-111977245D01*
X153348851Y-112036773D01*
X153348853Y-112036780D01*
X153365595Y-112081668D01*
X153370579Y-112151360D01*
X153365595Y-112168333D01*
X153348853Y-112213218D01*
X153348851Y-112213229D01*
X153342450Y-112272757D01*
X153342450Y-112350002D01*
X154094100Y-112350002D01*
X154094100Y-111900001D01*
X153342450Y-111900001D01*
X153342450Y-111977245D01*
X149900500Y-111977245D01*
X149900500Y-111324000D01*
X149920185Y-111256961D01*
X149972989Y-111211206D01*
X150024500Y-111200000D01*
X152731800Y-111200000D01*
X152793799Y-111216612D01*
G37*
%TD.AperFunction*%
%TD*%
%TA.AperFunction,Conductor*%
%TO.N,+3.3V*%
G36*
X166825020Y-108119685D02*
G01*
X166845662Y-108136319D01*
X167187714Y-108478371D01*
X167221199Y-108539694D01*
X167216215Y-108609386D01*
X167174343Y-108665319D01*
X167108879Y-108689736D01*
X167040606Y-108674884D01*
X167025722Y-108665319D01*
X167014139Y-108656648D01*
X167014136Y-108656646D01*
X166879429Y-108606404D01*
X166879422Y-108606402D01*
X166819894Y-108600001D01*
X166072050Y-108600001D01*
X166072050Y-111400001D01*
X167272050Y-111400001D01*
X167272050Y-109052173D01*
X167272049Y-109052156D01*
X167265648Y-108992628D01*
X167265646Y-108992621D01*
X167215404Y-108857914D01*
X167215402Y-108857911D01*
X167206732Y-108846329D01*
X167182314Y-108780864D01*
X167197165Y-108712591D01*
X167246570Y-108663185D01*
X167314843Y-108648333D01*
X167380307Y-108672749D01*
X167393679Y-108684336D01*
X167563681Y-108854338D01*
X167597166Y-108915661D01*
X167600000Y-108942019D01*
X167600000Y-115257980D01*
X167580315Y-115325019D01*
X167563681Y-115345661D01*
X165855888Y-117053453D01*
X165855887Y-117053454D01*
X165779222Y-117168192D01*
X165726421Y-117295667D01*
X165726418Y-117295679D01*
X165706872Y-117393946D01*
X165706872Y-117393949D01*
X165699500Y-117431006D01*
X165699500Y-120976000D01*
X165679815Y-121043039D01*
X165627011Y-121088794D01*
X165575500Y-121100000D01*
X158624000Y-121100000D01*
X158556961Y-121080315D01*
X158511206Y-121027511D01*
X158500000Y-120976000D01*
X158500000Y-120688539D01*
X158519685Y-120621500D01*
X158572489Y-120575745D01*
X158641647Y-120565801D01*
X158663004Y-120570833D01*
X158719352Y-120589505D01*
X158719359Y-120589506D01*
X158822069Y-120599999D01*
X159034549Y-120599999D01*
X159534550Y-120599999D01*
X159747022Y-120599999D01*
X159747036Y-120599998D01*
X159849747Y-120589505D01*
X160016169Y-120534358D01*
X160016174Y-120534356D01*
X160165395Y-120442315D01*
X160289365Y-120318345D01*
X160381406Y-120169124D01*
X160381408Y-120169119D01*
X160436555Y-120002697D01*
X160436556Y-120002690D01*
X160447049Y-119899986D01*
X160447050Y-119899973D01*
X160447050Y-119450000D01*
X159534550Y-119450000D01*
X159534550Y-120599999D01*
X159034549Y-120599999D01*
X159034550Y-120599998D01*
X159034550Y-118950000D01*
X159534550Y-118950000D01*
X160447049Y-118950000D01*
X160447049Y-118500028D01*
X160447048Y-118500013D01*
X160436555Y-118397302D01*
X160381408Y-118230880D01*
X160381406Y-118230875D01*
X160289365Y-118081654D01*
X160165395Y-117957684D01*
X160016174Y-117865643D01*
X160016169Y-117865641D01*
X159849747Y-117810494D01*
X159849740Y-117810493D01*
X159747036Y-117800000D01*
X159534550Y-117800000D01*
X159534550Y-118950000D01*
X159034550Y-118950000D01*
X159034550Y-117800000D01*
X158822079Y-117800000D01*
X158822062Y-117800001D01*
X158719351Y-117810494D01*
X158663003Y-117829166D01*
X158593175Y-117831568D01*
X158533133Y-117795836D01*
X158501941Y-117733315D01*
X158500000Y-117711460D01*
X158500000Y-117138540D01*
X158519685Y-117071501D01*
X158572489Y-117025746D01*
X158641647Y-117015802D01*
X158663004Y-117020834D01*
X158719352Y-117039506D01*
X158719359Y-117039507D01*
X158822069Y-117050000D01*
X159034549Y-117050000D01*
X159534550Y-117050000D01*
X159747022Y-117050000D01*
X159747036Y-117049999D01*
X159849747Y-117039506D01*
X160016169Y-116984359D01*
X160016174Y-116984357D01*
X160165395Y-116892316D01*
X160289365Y-116768346D01*
X160381406Y-116619125D01*
X160381408Y-116619120D01*
X160436555Y-116452698D01*
X160436556Y-116452691D01*
X160447049Y-116349987D01*
X160447050Y-116349974D01*
X160447050Y-115900001D01*
X159534550Y-115900001D01*
X159534550Y-117050000D01*
X159034549Y-117050000D01*
X159034550Y-117049999D01*
X159034550Y-115524001D01*
X159054235Y-115456962D01*
X159107039Y-115411207D01*
X159158550Y-115400001D01*
X160498403Y-115400001D01*
X160498412Y-115400000D01*
X164200000Y-115400000D01*
X164200000Y-114509090D01*
X164219685Y-114442051D01*
X164272489Y-114396296D01*
X164341647Y-114386352D01*
X164405203Y-114415377D01*
X164421892Y-114436104D01*
X164423381Y-114434990D01*
X164514859Y-114557188D01*
X164514862Y-114557191D01*
X164629956Y-114643351D01*
X164629963Y-114643355D01*
X164764670Y-114693597D01*
X164764677Y-114693599D01*
X164824205Y-114700000D01*
X164824222Y-114700001D01*
X165572050Y-114700001D01*
X166072050Y-114700001D01*
X166819878Y-114700001D01*
X166819894Y-114700000D01*
X166879422Y-114693599D01*
X166879429Y-114693597D01*
X167014136Y-114643355D01*
X167014143Y-114643351D01*
X167129237Y-114557191D01*
X167129240Y-114557188D01*
X167215400Y-114442094D01*
X167215404Y-114442087D01*
X167265646Y-114307380D01*
X167265648Y-114307373D01*
X167272049Y-114247845D01*
X167272050Y-114247828D01*
X167272050Y-111900001D01*
X166072050Y-111900001D01*
X166072050Y-114700001D01*
X165572050Y-114700001D01*
X165572050Y-108600001D01*
X164824205Y-108600001D01*
X164764677Y-108606402D01*
X164764670Y-108606404D01*
X164629963Y-108656646D01*
X164629956Y-108656650D01*
X164514862Y-108742810D01*
X164514859Y-108742813D01*
X164423381Y-108865012D01*
X164420411Y-108862788D01*
X164383295Y-108899815D01*
X164315004Y-108914584D01*
X164249569Y-108890088D01*
X164207766Y-108834103D01*
X164200000Y-108790911D01*
X164200000Y-108224000D01*
X164219685Y-108156961D01*
X164272489Y-108111206D01*
X164324000Y-108100000D01*
X166757981Y-108100000D01*
X166825020Y-108119685D01*
G37*
%TD.AperFunction*%
%TD*%
%TA.AperFunction,Conductor*%
%TO.N,/Power_Circuitry/source*%
G36*
X171401199Y-115219685D02*
G01*
X171446954Y-115272489D01*
X171457449Y-115337256D01*
X171450900Y-115398155D01*
X171450900Y-115450000D01*
X171692109Y-115450000D01*
X171735442Y-115457818D01*
X171843417Y-115498090D01*
X171843416Y-115498090D01*
X171850344Y-115498834D01*
X171903027Y-115504499D01*
X172572201Y-115504498D01*
X172639239Y-115524182D01*
X172684994Y-115576986D01*
X172696200Y-115628498D01*
X172696200Y-116776001D01*
X172676515Y-116843040D01*
X172623711Y-116888795D01*
X172572200Y-116900001D01*
X171450900Y-116900001D01*
X171450900Y-116951845D01*
X171457301Y-117011373D01*
X171457303Y-117011380D01*
X171502540Y-117132667D01*
X171507524Y-117202359D01*
X171474039Y-117263682D01*
X171412716Y-117297166D01*
X171386358Y-117300000D01*
X170900000Y-117300000D01*
X170900000Y-129256484D01*
X170893706Y-129295488D01*
X170860001Y-129397203D01*
X170860000Y-129397204D01*
X170849500Y-129499983D01*
X170849500Y-130900001D01*
X170849501Y-130900018D01*
X170860000Y-131002796D01*
X170877955Y-131056979D01*
X170893706Y-131104513D01*
X170900000Y-131143515D01*
X170900000Y-131476000D01*
X170880315Y-131543039D01*
X170827511Y-131588794D01*
X170776000Y-131600000D01*
X170210023Y-131600000D01*
X170142984Y-131580315D01*
X170097229Y-131527511D01*
X170087285Y-131458353D01*
X170116310Y-131394797D01*
X170122342Y-131388319D01*
X170192315Y-131318345D01*
X170284356Y-131169124D01*
X170284358Y-131169119D01*
X170339505Y-131002697D01*
X170339506Y-131002690D01*
X170349999Y-130899986D01*
X170350000Y-130899973D01*
X170350000Y-130450000D01*
X168474000Y-130450000D01*
X168406961Y-130430315D01*
X168361206Y-130377511D01*
X168350000Y-130326000D01*
X168350000Y-129950000D01*
X168850000Y-129950000D01*
X170349999Y-129950000D01*
X170349999Y-129500028D01*
X170349998Y-129500013D01*
X170339505Y-129397302D01*
X170284358Y-129230880D01*
X170284356Y-129230875D01*
X170192315Y-129081654D01*
X170068345Y-128957684D01*
X169919124Y-128865643D01*
X169919119Y-128865641D01*
X169752697Y-128810494D01*
X169752690Y-128810493D01*
X169649986Y-128800000D01*
X168850000Y-128800000D01*
X168850000Y-129950000D01*
X168350000Y-129950000D01*
X168350000Y-128800000D01*
X167550028Y-128800000D01*
X167550012Y-128800001D01*
X167447302Y-128810494D01*
X167280880Y-128865641D01*
X167280875Y-128865643D01*
X167131654Y-128957684D01*
X167111681Y-128977658D01*
X167050358Y-129011143D01*
X166980666Y-129006159D01*
X166924733Y-128964287D01*
X166900316Y-128898823D01*
X166900000Y-128889977D01*
X166900000Y-125215631D01*
X166919685Y-125148592D01*
X166972489Y-125102837D01*
X167041647Y-125092893D01*
X167105203Y-125121918D01*
X167111681Y-125127950D01*
X167223875Y-125240144D01*
X167398614Y-125359842D01*
X167592374Y-125445396D01*
X167592380Y-125445398D01*
X167798542Y-125493887D01*
X167798558Y-125493889D01*
X167886587Y-125499999D01*
X169313411Y-125499999D01*
X169401440Y-125493889D01*
X169401456Y-125493887D01*
X169607619Y-125445398D01*
X169607625Y-125445396D01*
X169801385Y-125359842D01*
X169976124Y-125240144D01*
X170125894Y-125090374D01*
X170245594Y-124915633D01*
X170249188Y-124907491D01*
X170249188Y-124907490D01*
X168334128Y-122992430D01*
X168300643Y-122931107D01*
X168302528Y-122904749D01*
X168953553Y-122904749D01*
X168953553Y-122904751D01*
X170385748Y-124336946D01*
X170385749Y-124336945D01*
X170385749Y-121472553D01*
X170385748Y-121472552D01*
X168953553Y-122904749D01*
X168302528Y-122904749D01*
X168305627Y-122861415D01*
X168334128Y-122817068D01*
X168600000Y-122551197D01*
X170249187Y-120902009D01*
X170249187Y-120902007D01*
X170245593Y-120893865D01*
X170125894Y-120719125D01*
X169976124Y-120569355D01*
X169801385Y-120449657D01*
X169607625Y-120364103D01*
X169607619Y-120364101D01*
X169401457Y-120315612D01*
X169401441Y-120315610D01*
X169313413Y-120309500D01*
X168024000Y-120309500D01*
X167956961Y-120289815D01*
X167911206Y-120237011D01*
X167900000Y-120185500D01*
X167900000Y-117042017D01*
X167919685Y-116974978D01*
X167936312Y-116954344D01*
X167938811Y-116951845D01*
X168758500Y-116951845D01*
X168764901Y-117011373D01*
X168764903Y-117011380D01*
X168815145Y-117146087D01*
X168815149Y-117146094D01*
X168901309Y-117261188D01*
X168901312Y-117261191D01*
X169016406Y-117347351D01*
X169016413Y-117347355D01*
X169151120Y-117397597D01*
X169151127Y-117397599D01*
X169210655Y-117404000D01*
X169210672Y-117404001D01*
X169503800Y-117404001D01*
X170003800Y-117404001D01*
X170296928Y-117404001D01*
X170296944Y-117404000D01*
X170356472Y-117397599D01*
X170356479Y-117397597D01*
X170491186Y-117347355D01*
X170491193Y-117347351D01*
X170606287Y-117261191D01*
X170606290Y-117261188D01*
X170692450Y-117146094D01*
X170692454Y-117146087D01*
X170742696Y-117011380D01*
X170742698Y-117011373D01*
X170749099Y-116951845D01*
X170749100Y-116951828D01*
X170749100Y-116900001D01*
X170003800Y-116900001D01*
X170003800Y-117404001D01*
X169503800Y-117404001D01*
X169503800Y-116900001D01*
X168758500Y-116900001D01*
X168758500Y-116951845D01*
X167938811Y-116951845D01*
X168546822Y-116343834D01*
X168608142Y-116310351D01*
X168677834Y-116315335D01*
X168733767Y-116357207D01*
X168744510Y-116386011D01*
X168758500Y-116400001D01*
X169503800Y-116400001D01*
X170003800Y-116400001D01*
X170749100Y-116400001D01*
X170749100Y-116348173D01*
X170749099Y-116348156D01*
X170742697Y-116288623D01*
X170742696Y-116288618D01*
X170716481Y-116218333D01*
X170711496Y-116148642D01*
X170716481Y-116131664D01*
X170742697Y-116061375D01*
X170742698Y-116061372D01*
X170749099Y-116001844D01*
X171450900Y-116001844D01*
X171457301Y-116061372D01*
X171457303Y-116061383D01*
X171483518Y-116131668D01*
X171488502Y-116201359D01*
X171483518Y-116218332D01*
X171457304Y-116288617D01*
X171457301Y-116288628D01*
X171450900Y-116348156D01*
X171450900Y-116400001D01*
X172196200Y-116400001D01*
X172196200Y-115950000D01*
X171450900Y-115950000D01*
X171450900Y-116001844D01*
X170749099Y-116001844D01*
X170749100Y-116001827D01*
X170749100Y-115950000D01*
X170003800Y-115950000D01*
X170003800Y-116400001D01*
X169503800Y-116400001D01*
X169503800Y-115628498D01*
X169523485Y-115561459D01*
X169576289Y-115515704D01*
X169627800Y-115504498D01*
X170296971Y-115504498D01*
X170296972Y-115504498D01*
X170356583Y-115498090D01*
X170464558Y-115457818D01*
X170507891Y-115450000D01*
X170749100Y-115450000D01*
X170749100Y-115398172D01*
X170749099Y-115398155D01*
X170742551Y-115337256D01*
X170754955Y-115268497D01*
X170802565Y-115217359D01*
X170865840Y-115200000D01*
X171334160Y-115200000D01*
X171401199Y-115219685D01*
G37*
%TD.AperFunction*%
%TD*%
%TA.AperFunction,Conductor*%
%TO.N,Net-(U1-SW)*%
G36*
X163443039Y-105919685D02*
G01*
X163488794Y-105972489D01*
X163500000Y-106024000D01*
X163500000Y-114576000D01*
X163480315Y-114643039D01*
X163427511Y-114688794D01*
X163376000Y-114700000D01*
X163070054Y-114700000D01*
X163003015Y-114680315D01*
X162957260Y-114627511D01*
X162947316Y-114558353D01*
X162970787Y-114501689D01*
X163015403Y-114442089D01*
X163015404Y-114442087D01*
X163065646Y-114307380D01*
X163065648Y-114307373D01*
X163072049Y-114247845D01*
X163072050Y-114247828D01*
X163072050Y-111900001D01*
X160172050Y-111900001D01*
X160172050Y-112076000D01*
X160152365Y-112143039D01*
X160099561Y-112188794D01*
X160048050Y-112200000D01*
X158940425Y-112200000D01*
X158873386Y-112180315D01*
X158836110Y-112143040D01*
X158770829Y-112041462D01*
X158770820Y-112041451D01*
X158725076Y-111988659D01*
X158725072Y-111988656D01*
X158725070Y-111988653D01*
X158616336Y-111894433D01*
X158616333Y-111894431D01*
X158616331Y-111894430D01*
X158485465Y-111834664D01*
X158485460Y-111834662D01*
X158485459Y-111834662D01*
X158418420Y-111814977D01*
X158418422Y-111814977D01*
X158418417Y-111814976D01*
X158370944Y-111808150D01*
X158276000Y-111794500D01*
X158203014Y-111794500D01*
X158203012Y-111794500D01*
X158148963Y-111797397D01*
X158148962Y-111797397D01*
X158122629Y-111800229D01*
X158122602Y-111800232D01*
X158069206Y-111808885D01*
X158069204Y-111808885D01*
X158004190Y-111833135D01*
X158000092Y-111834664D01*
X157994676Y-111836684D01*
X157951342Y-111844502D01*
X157916219Y-111844502D01*
X157898211Y-111844822D01*
X157889329Y-111845140D01*
X157871330Y-111846104D01*
X157837640Y-111853433D01*
X157767952Y-111848448D01*
X157709135Y-111826511D01*
X157709133Y-111826510D01*
X157649533Y-111820103D01*
X157649531Y-111820102D01*
X157649523Y-111820102D01*
X157649515Y-111820102D01*
X156974000Y-111820102D01*
X156906961Y-111800417D01*
X156861206Y-111747613D01*
X156850000Y-111696102D01*
X156850000Y-111603899D01*
X156869685Y-111536860D01*
X156922489Y-111491105D01*
X156973997Y-111479899D01*
X157649522Y-111479899D01*
X157709133Y-111473491D01*
X157843979Y-111423197D01*
X157851762Y-111418947D01*
X157852723Y-111420707D01*
X157907389Y-111400317D01*
X157916237Y-111400001D01*
X158101650Y-111400001D01*
X158101650Y-111322773D01*
X158101649Y-111322756D01*
X158095248Y-111263228D01*
X158093464Y-111255677D01*
X158095903Y-111255100D01*
X158091798Y-111197634D01*
X158125287Y-111136313D01*
X158186612Y-111102832D01*
X158212962Y-111100000D01*
X158700000Y-111100000D01*
X158700000Y-109052156D01*
X160172050Y-109052156D01*
X160172050Y-111400001D01*
X161372050Y-111400001D01*
X161872050Y-111400001D01*
X163072050Y-111400001D01*
X163072050Y-109052173D01*
X163072049Y-109052156D01*
X163065648Y-108992628D01*
X163065646Y-108992621D01*
X163015404Y-108857914D01*
X163015400Y-108857907D01*
X162929240Y-108742813D01*
X162929237Y-108742810D01*
X162814143Y-108656650D01*
X162814136Y-108656646D01*
X162679429Y-108606404D01*
X162679422Y-108606402D01*
X162619894Y-108600001D01*
X161872050Y-108600001D01*
X161872050Y-111400001D01*
X161372050Y-111400001D01*
X161372050Y-108600001D01*
X160624205Y-108600001D01*
X160564677Y-108606402D01*
X160564670Y-108606404D01*
X160429963Y-108656646D01*
X160429956Y-108656650D01*
X160314862Y-108742810D01*
X160314859Y-108742813D01*
X160228699Y-108857907D01*
X160228695Y-108857914D01*
X160178453Y-108992621D01*
X160178451Y-108992628D01*
X160172050Y-109052156D01*
X158700000Y-109052156D01*
X158700000Y-108262974D01*
X158719685Y-108195935D01*
X158772489Y-108150180D01*
X158841647Y-108140236D01*
X158905203Y-108169261D01*
X158911681Y-108175293D01*
X158953704Y-108217316D01*
X159102925Y-108309357D01*
X159102930Y-108309359D01*
X159269352Y-108364506D01*
X159269359Y-108364507D01*
X159372069Y-108375000D01*
X159509549Y-108375000D01*
X160009550Y-108375000D01*
X160147022Y-108375000D01*
X160147036Y-108374999D01*
X160249747Y-108364506D01*
X160416169Y-108309359D01*
X160416174Y-108309357D01*
X160565395Y-108217316D01*
X160689365Y-108093346D01*
X160781406Y-107944125D01*
X160781408Y-107944120D01*
X160836555Y-107777698D01*
X160836556Y-107777691D01*
X160847049Y-107674987D01*
X160847050Y-107674974D01*
X160847050Y-107400001D01*
X160009550Y-107400001D01*
X160009550Y-108375000D01*
X159509549Y-108375000D01*
X159509550Y-108374999D01*
X159509550Y-107024001D01*
X159529235Y-106956962D01*
X159582039Y-106911207D01*
X159633550Y-106900001D01*
X160847049Y-106900001D01*
X160847049Y-106625029D01*
X160847048Y-106625014D01*
X160836555Y-106522303D01*
X160781408Y-106355881D01*
X160781406Y-106355876D01*
X160689365Y-106206655D01*
X160594391Y-106111681D01*
X160560906Y-106050358D01*
X160565890Y-105980666D01*
X160607762Y-105924733D01*
X160673226Y-105900316D01*
X160682072Y-105900000D01*
X163376000Y-105900000D01*
X163443039Y-105919685D01*
G37*
%TD.AperFunction*%
%TD*%
%TA.AperFunction,Conductor*%
%TO.N,GND*%
G36*
X158343039Y-112319685D02*
G01*
X158388794Y-112372489D01*
X158400000Y-112424000D01*
X158400000Y-114359321D01*
X158380315Y-114426360D01*
X158363681Y-114447002D01*
X158279339Y-114531343D01*
X158187237Y-114680664D01*
X158187235Y-114680669D01*
X158178704Y-114706415D01*
X158132051Y-114847204D01*
X158132051Y-114847205D01*
X158132050Y-114847205D01*
X158121550Y-114949984D01*
X158121550Y-116350002D01*
X158121551Y-116350019D01*
X158132050Y-116452797D01*
X158132051Y-116452800D01*
X158182262Y-116604326D01*
X158184664Y-116674155D01*
X158158269Y-116724532D01*
X158094435Y-116798200D01*
X158094430Y-116798208D01*
X158034664Y-116929074D01*
X158014976Y-116996122D01*
X157994500Y-117138541D01*
X157994500Y-117711469D01*
X157996480Y-117756165D01*
X157998423Y-117778034D01*
X158004354Y-117822408D01*
X158004354Y-117822409D01*
X158049610Y-117958987D01*
X158076892Y-118013671D01*
X158076936Y-118013777D01*
X158080800Y-118021504D01*
X158164443Y-118142313D01*
X158186420Y-118208636D01*
X158180199Y-118251902D01*
X158132051Y-118397203D01*
X158132050Y-118397204D01*
X158121550Y-118499983D01*
X158121550Y-119900001D01*
X158121551Y-119900018D01*
X158132050Y-120002796D01*
X158132051Y-120002799D01*
X158182262Y-120154325D01*
X158184664Y-120224154D01*
X158158269Y-120274531D01*
X158094435Y-120348199D01*
X158094430Y-120348207D01*
X158034664Y-120479073D01*
X158014976Y-120546121D01*
X157994500Y-120688540D01*
X157994500Y-120976000D01*
X157974815Y-121043039D01*
X157922011Y-121088794D01*
X157870500Y-121100000D01*
X153742019Y-121100000D01*
X153674980Y-121080315D01*
X153654338Y-121063681D01*
X152736319Y-120145662D01*
X152702834Y-120084339D01*
X152700000Y-120057981D01*
X152700000Y-119899986D01*
X154997051Y-119899986D01*
X155007544Y-120002697D01*
X155062691Y-120169119D01*
X155062693Y-120169124D01*
X155154734Y-120318345D01*
X155278704Y-120442315D01*
X155427925Y-120534356D01*
X155427930Y-120534358D01*
X155594352Y-120589505D01*
X155594359Y-120589506D01*
X155697069Y-120599999D01*
X155909549Y-120599999D01*
X156409550Y-120599999D01*
X156622022Y-120599999D01*
X156622036Y-120599998D01*
X156724747Y-120589505D01*
X156891169Y-120534358D01*
X156891174Y-120534356D01*
X157040395Y-120442315D01*
X157164365Y-120318345D01*
X157256406Y-120169124D01*
X157256408Y-120169119D01*
X157311555Y-120002697D01*
X157311556Y-120002690D01*
X157322049Y-119899986D01*
X157322050Y-119899973D01*
X157322050Y-119450000D01*
X156409550Y-119450000D01*
X156409550Y-120599999D01*
X155909549Y-120599999D01*
X155909550Y-120599998D01*
X155909550Y-119450000D01*
X154997051Y-119450000D01*
X154997051Y-119899986D01*
X152700000Y-119899986D01*
X152700000Y-118500013D01*
X154997050Y-118500013D01*
X154997050Y-118950000D01*
X155909550Y-118950000D01*
X156409550Y-118950000D01*
X157322049Y-118950000D01*
X157322049Y-118500028D01*
X157322048Y-118500013D01*
X157311555Y-118397302D01*
X157256408Y-118230880D01*
X157256406Y-118230875D01*
X157164365Y-118081654D01*
X157040395Y-117957684D01*
X156891174Y-117865643D01*
X156891169Y-117865641D01*
X156724747Y-117810494D01*
X156724740Y-117810493D01*
X156622036Y-117800000D01*
X156409550Y-117800000D01*
X156409550Y-118950000D01*
X155909550Y-118950000D01*
X155909550Y-117800000D01*
X155697079Y-117800000D01*
X155697062Y-117800001D01*
X155594352Y-117810494D01*
X155427930Y-117865641D01*
X155427925Y-117865643D01*
X155278704Y-117957684D01*
X155154734Y-118081654D01*
X155062693Y-118230875D01*
X155062691Y-118230880D01*
X155007544Y-118397302D01*
X155007543Y-118397309D01*
X154997050Y-118500013D01*
X152700000Y-118500013D01*
X152700000Y-116919655D01*
X152719685Y-116852616D01*
X152772489Y-116806861D01*
X152841647Y-116796917D01*
X152876403Y-116807272D01*
X152880877Y-116809358D01*
X153047302Y-116864506D01*
X153047309Y-116864507D01*
X153150019Y-116875000D01*
X153287499Y-116875000D01*
X153787500Y-116875000D01*
X153924972Y-116875000D01*
X153924986Y-116874999D01*
X154027697Y-116864506D01*
X154194119Y-116809359D01*
X154194124Y-116809357D01*
X154343345Y-116717316D01*
X154467315Y-116593346D01*
X154559356Y-116444125D01*
X154559358Y-116444120D01*
X154590551Y-116349987D01*
X154997051Y-116349987D01*
X155007544Y-116452698D01*
X155062691Y-116619120D01*
X155062693Y-116619125D01*
X155154734Y-116768346D01*
X155278704Y-116892316D01*
X155427925Y-116984357D01*
X155427930Y-116984359D01*
X155594352Y-117039506D01*
X155594359Y-117039507D01*
X155697069Y-117050000D01*
X155909549Y-117050000D01*
X156409550Y-117050000D01*
X156622022Y-117050000D01*
X156622036Y-117049999D01*
X156724747Y-117039506D01*
X156891169Y-116984359D01*
X156891174Y-116984357D01*
X157040395Y-116892316D01*
X157164365Y-116768346D01*
X157256406Y-116619125D01*
X157256408Y-116619120D01*
X157311555Y-116452698D01*
X157311556Y-116452691D01*
X157322049Y-116349987D01*
X157322050Y-116349974D01*
X157322050Y-115900001D01*
X156409550Y-115900001D01*
X156409550Y-117050000D01*
X155909549Y-117050000D01*
X155909550Y-117049999D01*
X155909550Y-115900001D01*
X154997051Y-115900001D01*
X154997051Y-116349987D01*
X154590551Y-116349987D01*
X154614505Y-116277698D01*
X154614506Y-116277691D01*
X154624999Y-116174987D01*
X154625000Y-116174974D01*
X154625000Y-115900001D01*
X153787500Y-115900001D01*
X153787500Y-116875000D01*
X153287499Y-116875000D01*
X153287500Y-116874999D01*
X153287500Y-115524001D01*
X153307185Y-115456962D01*
X153359989Y-115411207D01*
X153411500Y-115400001D01*
X154624999Y-115400001D01*
X154624999Y-115125029D01*
X154624998Y-115125014D01*
X154614505Y-115022303D01*
X154559358Y-114855881D01*
X154559356Y-114855876D01*
X154467316Y-114706657D01*
X154467125Y-114706415D01*
X154467045Y-114706217D01*
X154463525Y-114700510D01*
X154464499Y-114699908D01*
X154440982Y-114641621D01*
X154454019Y-114572979D01*
X154502097Y-114522281D01*
X154564388Y-114505500D01*
X154949832Y-114505500D01*
X155016871Y-114525185D01*
X155062626Y-114577989D01*
X155072570Y-114647147D01*
X155064598Y-114673902D01*
X155064964Y-114674024D01*
X155007544Y-114847303D01*
X155007543Y-114847310D01*
X154997050Y-114950014D01*
X154997050Y-115400001D01*
X157322049Y-115400001D01*
X157322049Y-114950029D01*
X157322048Y-114950014D01*
X157311555Y-114847303D01*
X157256408Y-114680881D01*
X157256406Y-114680876D01*
X157164365Y-114531655D01*
X157040395Y-114407685D01*
X156891174Y-114315644D01*
X156891169Y-114315642D01*
X156724747Y-114260495D01*
X156724740Y-114260494D01*
X156622036Y-114250001D01*
X156324000Y-114250001D01*
X156256961Y-114230316D01*
X156211206Y-114177512D01*
X156200000Y-114126001D01*
X156200000Y-113443067D01*
X156219685Y-113376028D01*
X156272489Y-113330273D01*
X156341647Y-113320329D01*
X156367333Y-113326885D01*
X156490970Y-113372998D01*
X156490977Y-113373000D01*
X156550505Y-113379401D01*
X156550522Y-113379402D01*
X156850000Y-113379402D01*
X157350000Y-113379402D01*
X157649478Y-113379402D01*
X157649494Y-113379401D01*
X157709022Y-113373000D01*
X157709029Y-113372998D01*
X157843736Y-113322756D01*
X157843743Y-113322752D01*
X157958837Y-113236592D01*
X157958840Y-113236589D01*
X158045000Y-113121495D01*
X158045004Y-113121488D01*
X158095246Y-112986781D01*
X158095248Y-112986774D01*
X158101649Y-112927246D01*
X158101650Y-112927229D01*
X158101650Y-112850002D01*
X157350000Y-112850002D01*
X157350000Y-113379402D01*
X156850000Y-113379402D01*
X156850000Y-112553900D01*
X156869685Y-112486861D01*
X156922489Y-112441106D01*
X156973997Y-112429900D01*
X157649522Y-112429900D01*
X157709133Y-112423492D01*
X157843979Y-112373198D01*
X157851762Y-112368948D01*
X157852723Y-112370708D01*
X157907389Y-112350318D01*
X157916237Y-112350002D01*
X158101650Y-112350002D01*
X158115333Y-112336319D01*
X158176656Y-112302834D01*
X158203014Y-112300000D01*
X158276000Y-112300000D01*
X158343039Y-112319685D01*
G37*
%TD.AperFunction*%
%TD*%
%TA.AperFunction,Conductor*%
%TO.N,GND*%
G36*
X111371354Y-73719685D02*
G01*
X111417109Y-73772489D01*
X111427053Y-73841647D01*
X111398028Y-73905203D01*
X111345269Y-73941042D01*
X111250478Y-73974210D01*
X111097737Y-74070184D01*
X110970184Y-74197737D01*
X110874211Y-74350476D01*
X110814631Y-74520745D01*
X110814630Y-74520750D01*
X110793655Y-74706919D01*
X110792017Y-74706734D01*
X110774750Y-74765539D01*
X110721946Y-74811294D01*
X110670435Y-74822500D01*
X110342499Y-74822500D01*
X110342480Y-74822501D01*
X110239703Y-74833000D01*
X110239700Y-74833001D01*
X110073168Y-74888185D01*
X110073163Y-74888187D01*
X109923842Y-74980289D01*
X109799789Y-75104342D01*
X109707687Y-75253663D01*
X109707685Y-75253668D01*
X109685889Y-75319444D01*
X109652501Y-75420203D01*
X109652501Y-75420204D01*
X109652500Y-75420204D01*
X109642000Y-75522983D01*
X109642000Y-76323001D01*
X109642001Y-76323019D01*
X109652500Y-76425796D01*
X109652501Y-76425799D01*
X109707685Y-76592331D01*
X109707687Y-76592336D01*
X109741132Y-76646559D01*
X109798934Y-76740272D01*
X109799789Y-76741657D01*
X109893804Y-76835672D01*
X109927289Y-76896995D01*
X109922305Y-76966687D01*
X109893805Y-77011034D01*
X109800182Y-77104657D01*
X109708143Y-77253875D01*
X109708141Y-77253880D01*
X109652994Y-77420302D01*
X109652993Y-77420309D01*
X109642500Y-77523013D01*
X109642500Y-77673000D01*
X112042499Y-77673000D01*
X112042499Y-77523028D01*
X112042498Y-77523013D01*
X112032005Y-77420302D01*
X111976858Y-77253880D01*
X111976856Y-77253875D01*
X111884815Y-77104654D01*
X111791195Y-77011034D01*
X111757710Y-76949711D01*
X111762694Y-76880019D01*
X111791191Y-76835676D01*
X111866776Y-76760092D01*
X112739500Y-76760092D01*
X112739500Y-76909907D01*
X112768723Y-77056822D01*
X112768725Y-77056830D01*
X112826051Y-77195229D01*
X112826056Y-77195238D01*
X112909280Y-77319790D01*
X112909283Y-77319794D01*
X113015205Y-77425716D01*
X113015209Y-77425719D01*
X113139761Y-77508943D01*
X113139767Y-77508946D01*
X113139768Y-77508947D01*
X113278170Y-77566275D01*
X113425092Y-77595499D01*
X113425096Y-77595500D01*
X113425097Y-77595500D01*
X113774904Y-77595500D01*
X113774905Y-77595499D01*
X113921830Y-77566275D01*
X113938334Y-77559438D01*
X113985786Y-77550000D01*
X114450000Y-77550000D01*
X114450000Y-76974902D01*
X114452383Y-76950710D01*
X114452582Y-76949711D01*
X114460500Y-76909903D01*
X114460500Y-76835000D01*
X114460500Y-76769108D01*
X114460500Y-76760097D01*
X114452382Y-76719282D01*
X114450000Y-76695093D01*
X114450000Y-76120000D01*
X113985786Y-76120000D01*
X113938334Y-76110561D01*
X113921830Y-76103725D01*
X113921822Y-76103723D01*
X113774907Y-76074500D01*
X113774903Y-76074500D01*
X113765892Y-76074500D01*
X113565892Y-76074500D01*
X113500000Y-76074500D01*
X113425097Y-76074500D01*
X113425092Y-76074500D01*
X113278177Y-76103723D01*
X113278169Y-76103725D01*
X113139770Y-76161051D01*
X113139761Y-76161056D01*
X113015209Y-76244280D01*
X113015205Y-76244283D01*
X112909283Y-76350205D01*
X112909280Y-76350209D01*
X112826056Y-76474761D01*
X112826051Y-76474770D01*
X112768725Y-76613169D01*
X112768723Y-76613177D01*
X112739500Y-76760092D01*
X111866776Y-76760092D01*
X111885212Y-76741656D01*
X111977314Y-76592334D01*
X112032499Y-76425797D01*
X112043000Y-76323009D01*
X112042999Y-75623097D01*
X112062683Y-75556059D01*
X112079315Y-75535420D01*
X112080520Y-75534216D01*
X112159577Y-75397284D01*
X112196653Y-75258915D01*
X112225987Y-75208113D01*
X112225475Y-75207705D01*
X112228184Y-75204307D01*
X112228750Y-75203327D01*
X112229816Y-75202262D01*
X112325789Y-75049522D01*
X112385368Y-74879255D01*
X112385505Y-74878039D01*
X112405565Y-74700003D01*
X112405565Y-74699996D01*
X112385369Y-74520750D01*
X112385368Y-74520745D01*
X112368533Y-74472634D01*
X112325789Y-74350478D01*
X112229816Y-74197738D01*
X112102262Y-74070184D01*
X112015488Y-74015660D01*
X111949521Y-73974210D01*
X111854731Y-73941042D01*
X111797954Y-73900320D01*
X111772207Y-73835367D01*
X111785663Y-73766806D01*
X111834050Y-73716403D01*
X111895685Y-73700000D01*
X114025712Y-73700000D01*
X114092751Y-73719685D01*
X114138506Y-73772489D01*
X114148450Y-73841647D01*
X114119425Y-73905203D01*
X114113393Y-73911681D01*
X114009413Y-74015660D01*
X114009410Y-74015664D01*
X113894505Y-74187631D01*
X113894500Y-74187641D01*
X113815351Y-74378723D01*
X113815350Y-74378725D01*
X113804157Y-74435000D01*
X114658012Y-74435000D01*
X114640795Y-74444940D01*
X114584940Y-74500795D01*
X114545444Y-74569204D01*
X114525000Y-74645504D01*
X114525000Y-74724496D01*
X114545444Y-74800796D01*
X114584940Y-74869205D01*
X114640795Y-74925060D01*
X114658012Y-74935000D01*
X113804157Y-74935000D01*
X113815350Y-74991274D01*
X113815351Y-74991276D01*
X113894500Y-75182358D01*
X113894505Y-75182368D01*
X113957677Y-75276910D01*
X113978555Y-75343587D01*
X113970757Y-75389133D01*
X113956404Y-75427616D01*
X113956401Y-75427627D01*
X113950000Y-75487155D01*
X113950000Y-75820000D01*
X114626000Y-75820000D01*
X114693039Y-75839685D01*
X114738794Y-75892489D01*
X114750000Y-75944000D01*
X114750000Y-77726000D01*
X114730315Y-77793039D01*
X114677511Y-77838794D01*
X114626000Y-77850000D01*
X113950000Y-77850000D01*
X113950000Y-78182844D01*
X113956401Y-78242372D01*
X113956403Y-78242382D01*
X113970757Y-78280866D01*
X113975741Y-78350557D01*
X113957678Y-78393088D01*
X113894500Y-78487639D01*
X113815351Y-78678723D01*
X113815350Y-78678725D01*
X113804157Y-78735000D01*
X114658012Y-78735000D01*
X114640795Y-78744940D01*
X114584940Y-78800795D01*
X114545444Y-78869204D01*
X114525000Y-78945504D01*
X114525000Y-79024496D01*
X114545444Y-79100796D01*
X114584940Y-79169205D01*
X114640795Y-79225060D01*
X114658012Y-79235000D01*
X113804157Y-79235000D01*
X113815350Y-79291274D01*
X113815351Y-79291276D01*
X113894500Y-79482358D01*
X113894505Y-79482368D01*
X114009410Y-79654335D01*
X114009413Y-79654339D01*
X114155660Y-79800586D01*
X114155664Y-79800589D01*
X114327631Y-79915494D01*
X114327641Y-79915499D01*
X114518725Y-79994649D01*
X114518724Y-79994649D01*
X114656017Y-80021957D01*
X114717928Y-80054342D01*
X114752503Y-80115057D01*
X114748764Y-80184827D01*
X114719508Y-80231256D01*
X114502084Y-80448681D01*
X114440761Y-80482166D01*
X114414403Y-80485000D01*
X110406268Y-80485000D01*
X110339229Y-80465315D01*
X110300729Y-80426097D01*
X110210212Y-80279344D01*
X110086156Y-80155288D01*
X109936834Y-80063186D01*
X109770297Y-80008001D01*
X109770295Y-80008000D01*
X109667510Y-79997500D01*
X108617498Y-79997500D01*
X108617480Y-79997501D01*
X108514703Y-80008000D01*
X108514700Y-80008001D01*
X108348168Y-80063185D01*
X108348163Y-80063187D01*
X108198842Y-80155289D01*
X108074789Y-80279342D01*
X107982687Y-80428663D01*
X107982685Y-80428668D01*
X107970542Y-80465315D01*
X107927501Y-80595203D01*
X107927501Y-80595204D01*
X107927500Y-80595204D01*
X107917000Y-80697983D01*
X107917000Y-81473001D01*
X107917001Y-81473019D01*
X107927500Y-81575796D01*
X107927501Y-81575799D01*
X107982685Y-81742331D01*
X107982687Y-81742336D01*
X108003478Y-81776043D01*
X108074788Y-81891656D01*
X108198844Y-82015712D01*
X108202128Y-82017737D01*
X108202153Y-82017753D01*
X108203945Y-82019746D01*
X108204511Y-82020193D01*
X108204434Y-82020289D01*
X108248879Y-82069699D01*
X108260103Y-82138661D01*
X108232261Y-82202744D01*
X108202165Y-82228826D01*
X108199160Y-82230679D01*
X108199155Y-82230683D01*
X108075184Y-82354654D01*
X107983143Y-82503875D01*
X107983141Y-82503880D01*
X107927994Y-82670302D01*
X107927993Y-82670309D01*
X107917500Y-82773013D01*
X107917500Y-82910500D01*
X110367499Y-82910500D01*
X110367499Y-82877655D01*
X113470000Y-82877655D01*
X113470000Y-83438000D01*
X114045000Y-83438000D01*
X114045000Y-82425500D01*
X113922155Y-82425500D01*
X113862627Y-82431901D01*
X113862620Y-82431903D01*
X113727913Y-82482145D01*
X113727906Y-82482149D01*
X113612812Y-82568309D01*
X113612809Y-82568312D01*
X113526649Y-82683406D01*
X113526645Y-82683413D01*
X113476403Y-82818120D01*
X113476401Y-82818127D01*
X113470000Y-82877655D01*
X110367499Y-82877655D01*
X110367499Y-82773028D01*
X110367498Y-82773013D01*
X110357005Y-82670302D01*
X110301858Y-82503880D01*
X110301856Y-82503875D01*
X110209815Y-82354654D01*
X110085844Y-82230683D01*
X110085841Y-82230681D01*
X110082839Y-82228829D01*
X110081213Y-82227021D01*
X110080177Y-82226202D01*
X110080317Y-82226024D01*
X110036117Y-82176880D01*
X110024897Y-82107917D01*
X110052743Y-82043836D01*
X110082844Y-82017754D01*
X110086156Y-82015712D01*
X110210212Y-81891656D01*
X110300729Y-81744902D01*
X110352677Y-81698179D01*
X110406268Y-81686000D01*
X114627831Y-81686000D01*
X114627847Y-81686001D01*
X114635443Y-81686001D01*
X114793554Y-81686001D01*
X114793557Y-81686001D01*
X114946285Y-81645077D01*
X114996404Y-81616139D01*
X115083216Y-81566020D01*
X115162820Y-81486415D01*
X115224141Y-81452932D01*
X115293833Y-81457916D01*
X115349767Y-81499787D01*
X115374184Y-81565251D01*
X115374500Y-81574098D01*
X115374500Y-81834150D01*
X115354815Y-81901189D01*
X115338181Y-81921831D01*
X115189214Y-82070797D01*
X115189215Y-82070798D01*
X115084478Y-82175535D01*
X115068770Y-82202744D01*
X115047016Y-82240423D01*
X115031791Y-82266792D01*
X115005422Y-82312464D01*
X115005422Y-82312465D01*
X114986367Y-82383577D01*
X114950002Y-82443237D01*
X114887154Y-82473765D01*
X114823260Y-82467664D01*
X114727379Y-82431903D01*
X114727372Y-82431901D01*
X114667844Y-82425500D01*
X114545000Y-82425500D01*
X114545000Y-84950500D01*
X114667828Y-84950500D01*
X114667844Y-84950499D01*
X114727372Y-84944098D01*
X114727380Y-84944096D01*
X114823258Y-84908335D01*
X114892950Y-84903349D01*
X114954273Y-84936834D01*
X114986368Y-84992422D01*
X115005423Y-85063536D01*
X115034358Y-85113651D01*
X115034359Y-85113655D01*
X115034360Y-85113655D01*
X115084480Y-85200467D01*
X115196284Y-85312271D01*
X115196285Y-85312272D01*
X115338182Y-85454168D01*
X115371666Y-85515489D01*
X115374500Y-85541848D01*
X115374500Y-85706530D01*
X115374499Y-85706548D01*
X115374499Y-85872254D01*
X115374498Y-85872254D01*
X115374499Y-85872257D01*
X115415423Y-86024985D01*
X115415425Y-86024989D01*
X115416897Y-86028541D01*
X115417246Y-86031788D01*
X115417527Y-86032836D01*
X115417363Y-86032879D01*
X115424369Y-86098010D01*
X115393097Y-86160491D01*
X115333010Y-86196147D01*
X115302338Y-86200000D01*
X107724000Y-86200000D01*
X107656961Y-86180315D01*
X107611206Y-86127511D01*
X107600000Y-86076000D01*
X107600000Y-84498344D01*
X113470000Y-84498344D01*
X113476401Y-84557872D01*
X113476403Y-84557879D01*
X113526645Y-84692586D01*
X113526649Y-84692593D01*
X113612809Y-84807687D01*
X113612812Y-84807690D01*
X113727906Y-84893850D01*
X113727913Y-84893854D01*
X113862620Y-84944096D01*
X113862627Y-84944098D01*
X113922155Y-84950499D01*
X113922172Y-84950500D01*
X114045000Y-84950500D01*
X114045000Y-83938000D01*
X113470000Y-83938000D01*
X113470000Y-84498344D01*
X107600000Y-84498344D01*
X107600000Y-83547986D01*
X107917501Y-83547986D01*
X107927994Y-83650697D01*
X107983141Y-83817119D01*
X107983143Y-83817124D01*
X108075184Y-83966345D01*
X108199154Y-84090315D01*
X108348375Y-84182356D01*
X108348380Y-84182358D01*
X108514802Y-84237505D01*
X108514809Y-84237506D01*
X108617519Y-84247999D01*
X108892499Y-84247999D01*
X109392500Y-84247999D01*
X109667472Y-84247999D01*
X109667486Y-84247998D01*
X109770197Y-84237505D01*
X109936619Y-84182358D01*
X109936624Y-84182356D01*
X110085845Y-84090315D01*
X110209815Y-83966345D01*
X110301856Y-83817124D01*
X110301858Y-83817119D01*
X110357005Y-83650697D01*
X110357006Y-83650690D01*
X110367499Y-83547986D01*
X110367500Y-83547973D01*
X110367500Y-83410500D01*
X109392500Y-83410500D01*
X109392500Y-84247999D01*
X108892499Y-84247999D01*
X108892500Y-84247998D01*
X108892500Y-83410500D01*
X107917501Y-83410500D01*
X107917501Y-83547986D01*
X107600000Y-83547986D01*
X107600000Y-79609951D01*
X107608807Y-79564054D01*
X107731850Y-79255238D01*
X107731852Y-79255232D01*
X107827578Y-78910457D01*
X107827584Y-78910431D01*
X107885472Y-78557331D01*
X107885473Y-78557314D01*
X107898179Y-78322986D01*
X109642501Y-78322986D01*
X109652994Y-78425697D01*
X109708141Y-78592119D01*
X109708143Y-78592124D01*
X109800184Y-78741345D01*
X109924154Y-78865315D01*
X110073375Y-78957356D01*
X110073380Y-78957358D01*
X110239802Y-79012505D01*
X110239809Y-79012506D01*
X110342519Y-79022999D01*
X110592499Y-79022999D01*
X111092500Y-79022999D01*
X111342472Y-79022999D01*
X111342486Y-79022998D01*
X111445197Y-79012505D01*
X111611619Y-78957358D01*
X111611624Y-78957356D01*
X111760845Y-78865315D01*
X111884815Y-78741345D01*
X111976856Y-78592124D01*
X111976858Y-78592119D01*
X112032005Y-78425697D01*
X112032006Y-78425690D01*
X112042499Y-78322986D01*
X112042500Y-78322973D01*
X112042500Y-78173000D01*
X111092500Y-78173000D01*
X111092500Y-79022999D01*
X110592499Y-79022999D01*
X110592500Y-79022998D01*
X110592500Y-78173000D01*
X109642501Y-78173000D01*
X109642501Y-78322986D01*
X107898179Y-78322986D01*
X107904847Y-78200002D01*
X107904847Y-78199997D01*
X107885473Y-77842685D01*
X107885472Y-77842668D01*
X107827584Y-77489568D01*
X107827578Y-77489542D01*
X107731852Y-77144767D01*
X107731850Y-77144760D01*
X107608807Y-76835944D01*
X107600000Y-76790047D01*
X107600000Y-73824000D01*
X107619685Y-73756961D01*
X107672489Y-73711206D01*
X107724000Y-73700000D01*
X111304315Y-73700000D01*
X111371354Y-73719685D01*
G37*
%TD.AperFunction*%
%TA.AperFunction,Conductor*%
G36*
X122366177Y-83420185D02*
G01*
X122386819Y-83436819D01*
X122400000Y-83450000D01*
X123726000Y-83450000D01*
X123793039Y-83469685D01*
X123838794Y-83522489D01*
X123850000Y-83574000D01*
X123850000Y-84799999D01*
X123932378Y-84799999D01*
X123999417Y-84819684D01*
X124045172Y-84872488D01*
X124056378Y-84923999D01*
X124056378Y-86076000D01*
X124036693Y-86143039D01*
X123983889Y-86188794D01*
X123932378Y-86200000D01*
X117918798Y-86200000D01*
X117851759Y-86180315D01*
X117831117Y-86163681D01*
X117179391Y-85511956D01*
X117145906Y-85450633D01*
X117150890Y-85380942D01*
X117179390Y-85336595D01*
X117315520Y-85200467D01*
X117394577Y-85063535D01*
X117413502Y-84992905D01*
X117449866Y-84933248D01*
X117512713Y-84902719D01*
X117576609Y-84908820D01*
X117614653Y-84923009D01*
X117672517Y-84944591D01*
X117732127Y-84951000D01*
X118477872Y-84950999D01*
X118537483Y-84944591D01*
X118672331Y-84894296D01*
X118787546Y-84808046D01*
X118873796Y-84692831D01*
X118924091Y-84557983D01*
X118930500Y-84498373D01*
X118930499Y-84099986D01*
X122400001Y-84099986D01*
X122410494Y-84202697D01*
X122465641Y-84369119D01*
X122465643Y-84369124D01*
X122557684Y-84518345D01*
X122681654Y-84642315D01*
X122830875Y-84734356D01*
X122830880Y-84734358D01*
X122997302Y-84789505D01*
X122997309Y-84789506D01*
X123100019Y-84799999D01*
X123349999Y-84799999D01*
X123350000Y-84799998D01*
X123350000Y-83950000D01*
X122400001Y-83950000D01*
X122400001Y-84099986D01*
X118930499Y-84099986D01*
X118930499Y-83763097D01*
X118950183Y-83696059D01*
X118966818Y-83675416D01*
X119205418Y-83436818D01*
X119266741Y-83403334D01*
X119293099Y-83400500D01*
X122299138Y-83400500D01*
X122366177Y-83420185D01*
G37*
%TD.AperFunction*%
%TA.AperFunction,Conductor*%
G36*
X118380703Y-79792466D02*
G01*
X118387181Y-79798498D01*
X119153057Y-80564374D01*
X119153067Y-80564385D01*
X119157397Y-80568715D01*
X119157398Y-80568716D01*
X119269202Y-80680520D01*
X119269204Y-80680521D01*
X119269208Y-80680524D01*
X119401698Y-80757016D01*
X119406134Y-80759577D01*
X119517937Y-80789534D01*
X119558860Y-80800500D01*
X119558861Y-80800500D01*
X120799903Y-80800500D01*
X120866942Y-80820185D01*
X120887584Y-80836819D01*
X122038584Y-81987819D01*
X122072069Y-82049142D01*
X122067085Y-82118834D01*
X122025213Y-82174767D01*
X121959749Y-82199184D01*
X121950903Y-82199500D01*
X119079670Y-82199500D01*
X119079654Y-82199499D01*
X119072058Y-82199499D01*
X118913943Y-82199499D01*
X118837579Y-82219961D01*
X118761214Y-82240423D01*
X118761209Y-82240426D01*
X118624285Y-82319477D01*
X118555081Y-82388682D01*
X118493757Y-82422166D01*
X118467400Y-82425000D01*
X117732129Y-82425000D01*
X117732123Y-82425001D01*
X117672514Y-82431409D01*
X117576608Y-82467179D01*
X117506916Y-82472163D01*
X117445594Y-82438677D01*
X117413502Y-82383092D01*
X117394577Y-82312465D01*
X117352986Y-82240426D01*
X117315524Y-82175539D01*
X117315518Y-82175531D01*
X117091392Y-81951405D01*
X117057907Y-81890082D01*
X117062891Y-81820390D01*
X117091392Y-81776043D01*
X117539692Y-81327743D01*
X118055520Y-80811916D01*
X118134577Y-80674984D01*
X118175501Y-80522257D01*
X118175501Y-80364142D01*
X118175501Y-80356547D01*
X118175500Y-80356529D01*
X118175500Y-79886179D01*
X118195185Y-79819140D01*
X118247989Y-79773385D01*
X118317147Y-79763441D01*
X118380703Y-79792466D01*
G37*
%TD.AperFunction*%
%TA.AperFunction,Conductor*%
G36*
X121105724Y-74393881D02*
G01*
X122338181Y-75626338D01*
X122371666Y-75687661D01*
X122374500Y-75714019D01*
X122374500Y-76285001D01*
X122374501Y-76285019D01*
X122385000Y-76387796D01*
X122385001Y-76387799D01*
X122438204Y-76548352D01*
X122440186Y-76554334D01*
X122532288Y-76703656D01*
X122656344Y-76827712D01*
X122659628Y-76829737D01*
X122659653Y-76829753D01*
X122661445Y-76831746D01*
X122662011Y-76832193D01*
X122661934Y-76832289D01*
X122706379Y-76881699D01*
X122717603Y-76950661D01*
X122689761Y-77014744D01*
X122659665Y-77040826D01*
X122656660Y-77042679D01*
X122656655Y-77042683D01*
X122532684Y-77166654D01*
X122440643Y-77315875D01*
X122440641Y-77315880D01*
X122385494Y-77482302D01*
X122385493Y-77482309D01*
X122375000Y-77585013D01*
X122375000Y-77722500D01*
X123726000Y-77722500D01*
X123793039Y-77742185D01*
X123838794Y-77794989D01*
X123850000Y-77846500D01*
X123850000Y-79059999D01*
X123932378Y-79059999D01*
X123999417Y-79079684D01*
X124045172Y-79132488D01*
X124056378Y-79183999D01*
X124056378Y-80475500D01*
X124036693Y-80542539D01*
X123983889Y-80588294D01*
X123932378Y-80599500D01*
X123099998Y-80599500D01*
X123099980Y-80599501D01*
X122997203Y-80610000D01*
X122997200Y-80610001D01*
X122830668Y-80665185D01*
X122830663Y-80665187D01*
X122681336Y-80757293D01*
X122675672Y-80761772D01*
X122674840Y-80760720D01*
X122620265Y-80790507D01*
X122550574Y-80785508D01*
X122506251Y-80757016D01*
X121587590Y-79838355D01*
X121587588Y-79838352D01*
X121468717Y-79719481D01*
X121468716Y-79719480D01*
X121381904Y-79669360D01*
X121381904Y-79669359D01*
X121381900Y-79669358D01*
X121331785Y-79640423D01*
X121179057Y-79599499D01*
X121020943Y-79599499D01*
X121013347Y-79599499D01*
X121013331Y-79599500D01*
X120942557Y-79599500D01*
X120875518Y-79579815D01*
X120829763Y-79527011D01*
X120819819Y-79457853D01*
X120827996Y-79428047D01*
X120884648Y-79291276D01*
X120884649Y-79291274D01*
X120895843Y-79235000D01*
X120041988Y-79235000D01*
X120059205Y-79225060D01*
X120115060Y-79169205D01*
X120154556Y-79100796D01*
X120175000Y-79024496D01*
X120175000Y-78945504D01*
X120154556Y-78869204D01*
X120115060Y-78800795D01*
X120059205Y-78744940D01*
X120041988Y-78735000D01*
X120895843Y-78735000D01*
X120884649Y-78678725D01*
X120884648Y-78678723D01*
X120805499Y-78487641D01*
X120742321Y-78393087D01*
X120731957Y-78359986D01*
X122375001Y-78359986D01*
X122385494Y-78462697D01*
X122440641Y-78629119D01*
X122440643Y-78629124D01*
X122532684Y-78778345D01*
X122656654Y-78902315D01*
X122805875Y-78994356D01*
X122805880Y-78994358D01*
X122972302Y-79049505D01*
X122972309Y-79049506D01*
X123075019Y-79059999D01*
X123349999Y-79059999D01*
X123350000Y-79059998D01*
X123350000Y-78222500D01*
X122375001Y-78222500D01*
X122375001Y-78359986D01*
X120731957Y-78359986D01*
X120721444Y-78326410D01*
X120729242Y-78280863D01*
X120743598Y-78242371D01*
X120749999Y-78182844D01*
X120750000Y-78182827D01*
X120750000Y-77850000D01*
X120074000Y-77850000D01*
X120006961Y-77830315D01*
X119961206Y-77777511D01*
X119950000Y-77726000D01*
X119950000Y-77550000D01*
X120250000Y-77550000D01*
X120750000Y-77550000D01*
X120750000Y-77431325D01*
X120769685Y-77364286D01*
X120822489Y-77318531D01*
X120891647Y-77308587D01*
X120906072Y-77311545D01*
X121032791Y-77345500D01*
X121032794Y-77345500D01*
X121167206Y-77345500D01*
X121167209Y-77345500D01*
X121297046Y-77310710D01*
X121413454Y-77243502D01*
X121508502Y-77148454D01*
X121575710Y-77032046D01*
X121610500Y-76902209D01*
X121610500Y-76767791D01*
X121575710Y-76637954D01*
X121527430Y-76554331D01*
X121508504Y-76521549D01*
X121508500Y-76521544D01*
X121413455Y-76426499D01*
X121413450Y-76426495D01*
X121297048Y-76359291D01*
X121297047Y-76359290D01*
X121264586Y-76350592D01*
X121167209Y-76324500D01*
X121032791Y-76324500D01*
X120906092Y-76358448D01*
X120836244Y-76356786D01*
X120778381Y-76317624D01*
X120750877Y-76253395D01*
X120750000Y-76238674D01*
X120750000Y-76120000D01*
X120250000Y-76120000D01*
X120250000Y-77550000D01*
X119950000Y-77550000D01*
X119950000Y-75944000D01*
X119969685Y-75876961D01*
X120022489Y-75831206D01*
X120074000Y-75820000D01*
X120750000Y-75820000D01*
X120750000Y-75487172D01*
X120749999Y-75487155D01*
X120743597Y-75427622D01*
X120743597Y-75427620D01*
X120729243Y-75389136D01*
X120724258Y-75319444D01*
X120742322Y-75276910D01*
X120805499Y-75182359D01*
X120884648Y-74991276D01*
X120884649Y-74991274D01*
X120895843Y-74935000D01*
X120041988Y-74935000D01*
X120059205Y-74925060D01*
X120115060Y-74869205D01*
X120154556Y-74800796D01*
X120175000Y-74724496D01*
X120175000Y-74645504D01*
X120154556Y-74569204D01*
X120115060Y-74500795D01*
X120059205Y-74444940D01*
X120041988Y-74435000D01*
X120895842Y-74435000D01*
X120922190Y-74402896D01*
X120979937Y-74363562D01*
X121049781Y-74361693D01*
X121105724Y-74393881D01*
G37*
%TD.AperFunction*%
%TD*%
M02*
