%TF.GenerationSoftware,KiCad,Pcbnew,8.0.3*%
%TF.CreationDate,2026-02-06T01:26:45-05:00*%
%TF.ProjectId,FrostByte_IRCamera_PCB,46726f73-7442-4797-9465-5f495243616d,rev?*%
%TF.SameCoordinates,Original*%
%TF.FileFunction,Soldermask,Bot*%
%TF.FilePolarity,Negative*%
%FSLAX46Y46*%
G04 Gerber Fmt 4.6, Leading zero omitted, Abs format (unit mm)*
G04 Created by KiCad (PCBNEW 8.0.3) date 2026-02-06 01:26:45*
%MOMM*%
%LPD*%
G01*
G04 APERTURE LIST*
%ADD10R,2.000000X2.000000*%
%ADD11C,2.000000*%
%ADD12C,5.600000*%
%ADD13C,0.520000*%
%ADD14O,1.554000X1.304000*%
%ADD15R,1.600000X1.600000*%
%ADD16C,1.600000*%
%ADD17R,1.700000X1.700000*%
%ADD18O,1.700000X1.700000*%
%ADD19R,1.500000X1.500000*%
%ADD20C,0.600000*%
%ADD21C,1.000000*%
G04 APERTURE END LIST*
D10*
%TO.C,J2*%
X184600000Y-89200000D03*
D11*
X184600000Y-86660000D03*
%TD*%
D12*
%TO.C,H4*%
X183600000Y-128200000D03*
%TD*%
D13*
%TO.C,J6*%
X121100000Y-76835000D03*
X113600000Y-76835000D03*
D14*
X119750000Y-78985000D03*
X119750000Y-74685000D03*
X114950000Y-78985000D03*
X114950000Y-74685000D03*
%TD*%
D12*
%TO.C,H2*%
X183600000Y-78200000D03*
%TD*%
D15*
%TO.C,C1*%
X154800000Y-123200000D03*
D16*
X154800000Y-125200000D03*
%TD*%
D10*
%TO.C,J1*%
X184100000Y-119240000D03*
D11*
X184100000Y-116700000D03*
%TD*%
D12*
%TO.C,H1*%
X104600000Y-78200000D03*
%TD*%
D11*
%TO.C,SW2*%
X136350000Y-130450000D03*
X129850000Y-130450000D03*
X136350000Y-125950000D03*
X129850000Y-125950000D03*
%TD*%
%TO.C,SW1*%
X147350000Y-130450000D03*
X140850000Y-130450000D03*
X147350000Y-125950000D03*
X140850000Y-125950000D03*
%TD*%
D12*
%TO.C,H3*%
X104600000Y-128200000D03*
%TD*%
D17*
%TO.C,J4*%
X104600000Y-92580000D03*
D18*
X107140000Y-92580000D03*
X104600000Y-95120000D03*
X107140000Y-95120000D03*
X104600000Y-97660000D03*
X107140000Y-97660000D03*
X104600000Y-100200000D03*
X107140000Y-100200000D03*
X104600000Y-102740000D03*
X107140000Y-102740000D03*
X104600000Y-105280000D03*
X107140000Y-105280000D03*
X104600000Y-107820000D03*
X107140000Y-107820000D03*
X104600000Y-110360000D03*
X107140000Y-110360000D03*
X104600000Y-112900000D03*
X107140000Y-112900000D03*
X104600000Y-115440000D03*
X107140000Y-115440000D03*
%TD*%
D19*
%TO.C,RX*%
X168600000Y-75700000D03*
%TD*%
%TO.C,MISO*%
X111100000Y-120700000D03*
%TD*%
%TO.C,SCL*%
X111100000Y-131250000D03*
%TD*%
%TO.C,2v8*%
X114700000Y-115400000D03*
%TD*%
%TO.C,CLK*%
X121600000Y-120700000D03*
%TD*%
%TO.C,MOSI*%
X118100000Y-120700000D03*
%TD*%
%TO.C,3v3*%
X118200000Y-115400000D03*
%TD*%
%TO.C,CS*%
X114600000Y-120700000D03*
%TD*%
%TO.C,TX*%
X168600000Y-79700000D03*
%TD*%
%TO.C,SDA*%
X111100000Y-126700000D03*
%TD*%
D20*
X125500000Y-109400000D03*
X124600000Y-110800000D03*
X131900000Y-116900000D03*
X139600000Y-113700000D03*
X114600000Y-98200000D03*
X114600000Y-92200000D03*
X118600000Y-92200000D03*
X121600000Y-92200000D03*
X135600000Y-102700000D03*
X150600000Y-105200000D03*
X153600000Y-119200000D03*
X153600000Y-117700000D03*
X154600000Y-117700000D03*
X154600000Y-119200000D03*
X165100000Y-118700000D03*
X165100000Y-117200000D03*
X163100000Y-117200000D03*
X163100000Y-118700000D03*
X120300000Y-118400000D03*
X131600000Y-84200000D03*
X141100000Y-81200000D03*
X137600000Y-80200000D03*
X132600000Y-80700000D03*
X132600000Y-87700000D03*
X137600000Y-88200000D03*
X141100000Y-87200000D03*
X111600000Y-88200000D03*
X123600000Y-79700000D03*
X109100000Y-79200000D03*
X111600000Y-81700000D03*
X123600000Y-85200000D03*
X109100000Y-85200000D03*
X120600000Y-81700000D03*
X120600000Y-83700000D03*
X111600000Y-83700000D03*
X124600000Y-99200000D03*
X131600000Y-99700000D03*
X172600000Y-80700000D03*
X133100000Y-96700000D03*
X143100000Y-110200000D03*
X159100000Y-91200000D03*
X152600000Y-110200000D03*
D21*
X169600000Y-93700000D03*
X142100000Y-89200000D03*
D20*
X111600000Y-74700000D03*
X117100000Y-74700000D03*
X164600000Y-90700000D03*
X157100000Y-90200000D03*
X133600000Y-85450000D03*
X134600000Y-75700000D03*
X131600000Y-101700000D03*
X102100000Y-92200000D03*
X188100000Y-97237500D03*
X142600000Y-119737500D03*
X133600000Y-82450000D03*
X140100000Y-106200000D03*
X163175000Y-129300000D03*
X164337500Y-76700000D03*
X179500000Y-113700000D03*
X111900000Y-116000000D03*
X175200000Y-130200000D03*
X114100000Y-100200000D03*
X102600000Y-88700000D03*
X178100000Y-81317800D03*
X131900000Y-119400000D03*
X115600000Y-125200000D03*
X146600000Y-106200000D03*
X147600000Y-118700000D03*
X132600000Y-100700000D03*
X142600000Y-118700000D03*
X138600000Y-120200000D03*
X147600000Y-89200000D03*
X136100000Y-97200000D03*
X158600000Y-102700000D03*
X175337500Y-89700000D03*
X148600000Y-114700000D03*
X137600000Y-119200000D03*
X152175000Y-129300000D03*
X130600000Y-76200000D03*
X176600000Y-88200000D03*
X108100000Y-88700000D03*
X116600000Y-125200000D03*
X164262500Y-97500000D03*
X148600000Y-113200000D03*
X143600000Y-102700000D03*
X180600000Y-97237500D03*
X132100000Y-103600000D03*
X175337500Y-86200000D03*
X125600000Y-104200000D03*
X149600000Y-100200000D03*
X148600000Y-106200000D03*
X153600000Y-102200000D03*
X124600000Y-100200000D03*
X142600000Y-94000000D03*
X142980000Y-89820000D03*
X118600000Y-124200000D03*
X124600000Y-101200000D03*
X119600000Y-124200000D03*
X122600000Y-97200000D03*
X118600000Y-100200000D03*
X146600000Y-91200000D03*
X134600000Y-95200000D03*
X159600000Y-85200000D03*
X142100000Y-93200000D03*
X142224265Y-91575735D03*
X117950000Y-74739614D03*
X116600000Y-79200000D03*
M02*
