%TF.GenerationSoftware,KiCad,Pcbnew,8.0.3*%
%TF.CreationDate,2026-02-06T01:37:13-05:00*%
%TF.ProjectId,FrostByte_IRCamera_PCB,46726f73-7442-4797-9465-5f495243616d,rev?*%
%TF.SameCoordinates,Original*%
%TF.FileFunction,Paste,Top*%
%TF.FilePolarity,Positive*%
%FSLAX46Y46*%
G04 Gerber Fmt 4.6, Leading zero omitted, Abs format (unit mm)*
G04 Created by KiCad (PCBNEW 8.0.3) date 2026-02-06 01:37:13*
%MOMM*%
%LPD*%
G01*
G04 APERTURE LIST*
G04 Aperture macros list*
%AMRoundRect*
0 Rectangle with rounded corners*
0 $1 Rounding radius*
0 $2 $3 $4 $5 $6 $7 $8 $9 X,Y pos of 4 corners*
0 Add a 4 corners polygon primitive as box body*
4,1,4,$2,$3,$4,$5,$6,$7,$8,$9,$2,$3,0*
0 Add four circle primitives for the rounded corners*
1,1,$1+$1,$2,$3*
1,1,$1+$1,$4,$5*
1,1,$1+$1,$6,$7*
1,1,$1+$1,$8,$9*
0 Add four rect primitives between the rounded corners*
20,1,$1+$1,$2,$3,$4,$5,0*
20,1,$1+$1,$4,$5,$6,$7,0*
20,1,$1+$1,$6,$7,$8,$9,0*
20,1,$1+$1,$8,$9,$2,$3,0*%
G04 Aperture macros list end*
%ADD10RoundRect,0.250000X0.350000X0.450000X-0.350000X0.450000X-0.350000X-0.450000X0.350000X-0.450000X0*%
%ADD11RoundRect,0.250000X0.450000X-0.350000X0.450000X0.350000X-0.450000X0.350000X-0.450000X-0.350000X0*%
%ADD12RoundRect,0.625750X0.625750X1.464750X-0.625750X1.464750X-0.625750X-1.464750X0.625750X-1.464750X0*%
%ADD13RoundRect,0.642875X0.642875X1.452375X-0.642875X1.452375X-0.642875X-1.452375X0.642875X-1.452375X0*%
%ADD14R,1.500000X0.900000*%
%ADD15R,0.900000X1.500000*%
%ADD16R,0.900000X0.900000*%
%ADD17RoundRect,0.250000X0.475000X-0.337500X0.475000X0.337500X-0.475000X0.337500X-0.475000X-0.337500X0*%
%ADD18RoundRect,0.250000X-0.350000X-0.450000X0.350000X-0.450000X0.350000X0.450000X-0.350000X0.450000X0*%
%ADD19R,1.800000X1.000000*%
%ADD20RoundRect,0.237500X0.237500X-0.287500X0.237500X0.287500X-0.237500X0.287500X-0.237500X-0.287500X0*%
%ADD21RoundRect,0.250000X0.650000X-0.412500X0.650000X0.412500X-0.650000X0.412500X-0.650000X-0.412500X0*%
%ADD22RoundRect,0.250000X-0.450000X0.350000X-0.450000X-0.350000X0.450000X-0.350000X0.450000X0.350000X0*%
%ADD23RoundRect,0.250000X-0.337500X-0.475000X0.337500X-0.475000X0.337500X0.475000X-0.337500X0.475000X0*%
%ADD24R,0.650000X1.525000*%
%ADD25R,1.295400X1.905000*%
%ADD26R,0.660400X1.549400*%
%ADD27RoundRect,0.250000X-1.000000X-0.650000X1.000000X-0.650000X1.000000X0.650000X-1.000000X0.650000X0*%
%ADD28RoundRect,0.250000X0.337500X0.475000X-0.337500X0.475000X-0.337500X-0.475000X0.337500X-0.475000X0*%
%ADD29RoundRect,0.250000X0.325000X0.450000X-0.325000X0.450000X-0.325000X-0.450000X0.325000X-0.450000X0*%
%ADD30R,0.300000X0.870000*%
%ADD31RoundRect,0.250000X-0.475000X0.337500X-0.475000X-0.337500X0.475000X-0.337500X0.475000X0.337500X0*%
%ADD32R,2.330000X1.550000*%
%ADD33RoundRect,0.250000X0.412500X0.650000X-0.412500X0.650000X-0.412500X-0.650000X0.412500X-0.650000X0*%
%ADD34RoundRect,0.250000X-0.325000X-0.450000X0.325000X-0.450000X0.325000X0.450000X-0.325000X0.450000X0*%
%ADD35RoundRect,0.237500X0.300000X0.237500X-0.300000X0.237500X-0.300000X-0.237500X0.300000X-0.237500X0*%
%ADD36RoundRect,0.060000X-0.675000X-0.180000X0.675000X-0.180000X0.675000X0.180000X-0.675000X0.180000X0*%
%ADD37RoundRect,0.051250X0.733750X0.153750X-0.733750X0.153750X-0.733750X-0.153750X0.733750X-0.153750X0*%
%ADD38RoundRect,0.193750X0.971250X0.581250X-0.971250X0.581250X-0.971250X-0.581250X0.971250X-0.581250X0*%
%ADD39R,1.003300X0.558800*%
%ADD40R,0.990600X0.508000*%
%ADD41R,1.900000X5.100000*%
G04 APERTURE END LIST*
D10*
%TO.C,R28*%
X139900000Y-104400000D03*
X137900000Y-104400000D03*
%TD*%
%TO.C,R27*%
X127700000Y-111900000D03*
X125700000Y-111900000D03*
%TD*%
D11*
%TO.C,R26*%
X130100000Y-117400000D03*
X130100000Y-115400000D03*
%TD*%
%TO.C,R25*%
X127000000Y-108800000D03*
X127000000Y-106800000D03*
%TD*%
D12*
%TO.C,F1*%
X176765750Y-122909500D03*
D13*
X168600000Y-122904750D03*
%TD*%
D14*
%TO.C,U2*%
X162087500Y-75850000D03*
X162087500Y-77120000D03*
X162087500Y-78390000D03*
X162087500Y-79660000D03*
X162087500Y-80930000D03*
X162087500Y-82200000D03*
X162087500Y-83470000D03*
X162087500Y-84740000D03*
X162087500Y-86010000D03*
X162087500Y-87280000D03*
X162087500Y-88550000D03*
X162087500Y-89820000D03*
X162087500Y-91090000D03*
X162087500Y-92360000D03*
D15*
X160322500Y-93610000D03*
X159052500Y-93610000D03*
X157782500Y-93610000D03*
X156512500Y-93610000D03*
X155242500Y-93610000D03*
X153972500Y-93610000D03*
X152702500Y-93610000D03*
X151432500Y-93610000D03*
X150162500Y-93610000D03*
X148892500Y-93610000D03*
X147622500Y-93610000D03*
X146352500Y-93610000D03*
D14*
X144587500Y-92360000D03*
X144587500Y-91090000D03*
X144587500Y-89820000D03*
X144587500Y-88550000D03*
X144587500Y-87280000D03*
X144587500Y-86010000D03*
X144587500Y-84740000D03*
X144587500Y-83470000D03*
X144587500Y-82200000D03*
X144587500Y-80930000D03*
X144587500Y-79660000D03*
X144587500Y-78390000D03*
X144587500Y-77120000D03*
X144587500Y-75850000D03*
D16*
X153237500Y-84970000D03*
X153237500Y-83570000D03*
X153237500Y-82170000D03*
X151837500Y-84970000D03*
X151837500Y-83570000D03*
X151837500Y-82170000D03*
X150437500Y-84970000D03*
X150437500Y-83570000D03*
X150437500Y-82170000D03*
%TD*%
D10*
%TO.C,R7*%
X140600000Y-90800000D03*
X138600000Y-90800000D03*
%TD*%
D17*
%TO.C,C21*%
X123600000Y-77972500D03*
X123600000Y-75897500D03*
%TD*%
D11*
%TO.C,R22*%
X178600000Y-86200000D03*
X178600000Y-84200000D03*
%TD*%
D18*
%TO.C,R24*%
X110600000Y-103200000D03*
X112600000Y-103200000D03*
%TD*%
D19*
%TO.C,Y1*%
X141100000Y-85450000D03*
X141100000Y-82950000D03*
%TD*%
D11*
%TO.C,R2*%
X182100000Y-96237500D03*
X182100000Y-94237500D03*
%TD*%
D20*
%TO.C,F2*%
X165400000Y-103975000D03*
X165400000Y-102225000D03*
%TD*%
D21*
%TO.C,C13*%
X137800000Y-77325000D03*
X137800000Y-74200000D03*
%TD*%
D22*
%TO.C,R3*%
X112600000Y-92200000D03*
X112600000Y-94200000D03*
%TD*%
D17*
%TO.C,C14*%
X141400000Y-76800000D03*
X141400000Y-74725000D03*
%TD*%
D23*
%TO.C,C2*%
X151462500Y-115650001D03*
X153537500Y-115650001D03*
%TD*%
D24*
%TO.C,U5*%
X118105000Y-83688000D03*
X116835000Y-83688000D03*
X115565000Y-83688000D03*
X114295000Y-83688000D03*
X114295000Y-89112000D03*
X115565000Y-89112000D03*
X116835000Y-89112000D03*
X118105000Y-89112000D03*
%TD*%
D10*
%TO.C,R23*%
X125600000Y-93200000D03*
X123600000Y-93200000D03*
%TD*%
D18*
%TO.C,R12*%
X133600000Y-114200000D03*
X135600000Y-114200000D03*
%TD*%
%TO.C,R6*%
X137600000Y-97200000D03*
X139600000Y-97200000D03*
%TD*%
D25*
%TO.C,J5*%
X178400000Y-77120000D03*
X172800000Y-77120000D03*
D26*
X177100000Y-79700000D03*
X176100000Y-79700000D03*
X175100000Y-79700000D03*
X174100000Y-79700000D03*
%TD*%
D27*
%TO.C,D1*%
X168600000Y-130200000D03*
X172600000Y-130200000D03*
%TD*%
D22*
%TO.C,R21*%
X119600000Y-94200000D03*
X119600000Y-96200000D03*
%TD*%
D28*
%TO.C,C7*%
X106637500Y-88200000D03*
X104562500Y-88200000D03*
%TD*%
D29*
%TO.C,D2*%
X161200000Y-130300000D03*
X159150000Y-130300000D03*
%TD*%
D10*
%TO.C,R11*%
X173837500Y-85700000D03*
X171837500Y-85700000D03*
%TD*%
D30*
%TO.C,J6*%
X120100000Y-77700000D03*
X118600000Y-77700000D03*
X118100000Y-77700000D03*
X117600000Y-77700000D03*
X117100000Y-77700000D03*
X116600000Y-77700000D03*
X116100000Y-77700000D03*
X114600000Y-77700000D03*
X114600000Y-75970000D03*
X116100000Y-75970000D03*
X116600000Y-75970000D03*
X117100000Y-75970000D03*
X117600000Y-75970000D03*
X118100000Y-75970000D03*
X118600000Y-75970000D03*
X120100000Y-75970000D03*
%TD*%
D31*
%TO.C,C15*%
X146600000Y-115162500D03*
X146600000Y-117237500D03*
%TD*%
D18*
%TO.C,R13*%
X133600000Y-110200000D03*
X135600000Y-110200000D03*
%TD*%
%TO.C,R8*%
X153675000Y-130300000D03*
X155675000Y-130300000D03*
%TD*%
D32*
%TO.C,D6*%
X176472500Y-96200000D03*
X172202500Y-96200000D03*
%TD*%
D22*
%TO.C,R17*%
X165900000Y-95100000D03*
X165900000Y-97100000D03*
%TD*%
D23*
%TO.C,C12*%
X135062500Y-86450000D03*
X137137500Y-86450000D03*
%TD*%
D33*
%TO.C,C4*%
X159284550Y-115650001D03*
X156159550Y-115650001D03*
%TD*%
D31*
%TO.C,C16*%
X141600000Y-115162500D03*
X141600000Y-117237500D03*
%TD*%
D11*
%TO.C,R4*%
X141600000Y-101700000D03*
X141600000Y-99700000D03*
%TD*%
D22*
%TO.C,R19*%
X123600000Y-81700000D03*
X123600000Y-83700000D03*
%TD*%
D10*
%TO.C,R10*%
X173837500Y-90200000D03*
X171837500Y-90200000D03*
%TD*%
D11*
%TO.C,R5*%
X136100000Y-121700000D03*
X136100000Y-119700000D03*
%TD*%
D25*
%TO.C,J3*%
X115000000Y-130200000D03*
X120600000Y-130200000D03*
D26*
X116300000Y-127620000D03*
X117300000Y-127620000D03*
X118300000Y-127620000D03*
X119300000Y-127620000D03*
%TD*%
D34*
%TO.C,D3*%
X167312500Y-90200000D03*
X169362500Y-90200000D03*
%TD*%
D18*
%TO.C,R15*%
X138600000Y-92800000D03*
X140600000Y-92800000D03*
%TD*%
D35*
%TO.C,FB1*%
X163062500Y-123900000D03*
X161337500Y-123900000D03*
%TD*%
D36*
%TO.C,U4*%
X126450000Y-96225000D03*
X126450000Y-96875000D03*
X126450000Y-97525000D03*
X126450000Y-98175000D03*
X130750000Y-98175000D03*
X130750000Y-97525000D03*
X130750000Y-96875000D03*
X130750000Y-96225000D03*
%TD*%
D23*
%TO.C,C11*%
X135062500Y-81950000D03*
X137137500Y-81950000D03*
%TD*%
%TO.C,C18*%
X134562500Y-101200000D03*
X136637500Y-101200000D03*
%TD*%
D33*
%TO.C,C5*%
X159284550Y-119200000D03*
X156159550Y-119200000D03*
%TD*%
D31*
%TO.C,C9*%
X141100000Y-120162500D03*
X141100000Y-122237500D03*
%TD*%
D17*
%TO.C,C20*%
X109142500Y-83160500D03*
X109142500Y-81085500D03*
%TD*%
D22*
%TO.C,R20*%
X115600000Y-94200000D03*
X115600000Y-96200000D03*
%TD*%
D37*
%TO.C,U3*%
X146970000Y-112475000D03*
X146970000Y-111825000D03*
X146970000Y-111175000D03*
X146970000Y-110525000D03*
X146970000Y-109875000D03*
X146970000Y-109225000D03*
X146970000Y-108575000D03*
X146970000Y-107925000D03*
X141230000Y-107925000D03*
X141230000Y-108575000D03*
X141230000Y-109225000D03*
X141230000Y-109875000D03*
X141230000Y-110525000D03*
X141230000Y-111175000D03*
X141230000Y-111825000D03*
X141230000Y-112475000D03*
%TD*%
D38*
%TO.C,D5*%
X179235000Y-109565000D03*
X174965000Y-109565000D03*
%TD*%
D34*
%TO.C,D4*%
X167312500Y-85700000D03*
X169362500Y-85700000D03*
%TD*%
D11*
%TO.C,R16*%
X110842500Y-77923000D03*
X110842500Y-75923000D03*
%TD*%
D31*
%TO.C,C6*%
X186600000Y-94162500D03*
X186600000Y-96237500D03*
%TD*%
D23*
%TO.C,C17*%
X127562500Y-102200000D03*
X129637500Y-102200000D03*
%TD*%
D10*
%TO.C,R1*%
X178100000Y-114100000D03*
X176100000Y-114100000D03*
%TD*%
D31*
%TO.C,C8*%
X112600000Y-97162500D03*
X112600000Y-99237500D03*
%TD*%
D22*
%TO.C,R18*%
X161600000Y-99200000D03*
X161600000Y-101200000D03*
%TD*%
D18*
%TO.C,R14*%
X133600000Y-106200000D03*
X135600000Y-106200000D03*
%TD*%
D39*
%TO.C,U1*%
X154344100Y-110700000D03*
X154344100Y-111650001D03*
X154344100Y-112600002D03*
X157100000Y-112600002D03*
X157100000Y-111650001D03*
X157100000Y-110700000D03*
%TD*%
D23*
%TO.C,C3*%
X157684550Y-107150001D03*
X159759550Y-107150001D03*
%TD*%
D40*
%TO.C,Q1*%
X172446200Y-116650001D03*
X172446200Y-115700000D03*
X172446200Y-114749999D03*
X169753800Y-114749999D03*
X169753800Y-115700000D03*
X169753800Y-116650001D03*
%TD*%
D31*
%TO.C,C10*%
X130100000Y-119662500D03*
X130100000Y-121737500D03*
%TD*%
D41*
%TO.C,L1*%
X161622050Y-111650001D03*
X165822050Y-111650001D03*
%TD*%
D17*
%TO.C,C19*%
X110600000Y-114437500D03*
X110600000Y-112362500D03*
%TD*%
D11*
%TO.C,R9*%
X157600000Y-101200000D03*
X157600000Y-99200000D03*
%TD*%
M02*
