M48
; DRILL file {KiCad 8.0.3} date 2026-02-06T01:27:40-0500
; FORMAT={-:-/ absolute / metric / decimal}
; #@! TF.CreationDate,2026-02-06T01:27:40-05:00
; #@! TF.GenerationSoftware,Kicad,Pcbnew,8.0.3
; #@! TF.FileFunction,Plated,1,4,PTH
FMAT,2
METRIC
; #@! TA.AperFunction,Plated,PTH,ComponentDrill
T1C0.200
; #@! TA.AperFunction,Plated,PTH,ViaDrill
T2C0.300
; #@! TA.AperFunction,Plated,PTH,ViaDrill
T3C0.500
; #@! TA.AperFunction,Plated,PTH,ComponentDrill
T4C0.600
; #@! TA.AperFunction,Plated,PTH,ComponentDrill
T5C0.700
; #@! TA.AperFunction,Plated,PTH,ComponentDrill
T6C0.800
; #@! TA.AperFunction,Plated,PTH,ComponentDrill
T7C1.000
; #@! TA.AperFunction,Plated,PTH,ComponentDrill
T8C1.100
; #@! TA.AperFunction,Plated,PTH,ComponentDrill
T9C1.200
; #@! TA.AperFunction,Plated,PTH,ComponentDrill
T10C3.200
%
G90
G05
T1
X150.438Y-82.87
X150.438Y-84.27
X151.137Y-82.17
X151.137Y-83.57
X151.137Y-84.97
X151.838Y-82.87
X151.838Y-84.27
X152.537Y-82.17
X152.537Y-83.57
X152.537Y-84.97
X153.237Y-82.87
X153.237Y-84.27
T2
X102.1Y-92.2
X102.6Y-88.7
X108.1Y-88.7
X109.1Y-79.2
X109.1Y-85.2
X111.6Y-74.7
X111.6Y-81.7
X111.6Y-83.7
X111.6Y-88.2
X111.9Y-116.0
X114.1Y-100.2
X114.6Y-92.2
X114.6Y-98.2
X115.6Y-125.2
X116.6Y-79.2
X116.6Y-125.2
X117.1Y-74.7
X117.95Y-74.74
X118.6Y-92.2
X118.6Y-100.2
X118.6Y-124.2
X119.6Y-124.2
X120.3Y-118.4
X120.6Y-81.7
X120.6Y-83.7
X121.6Y-92.2
X122.6Y-97.2
X123.6Y-79.7
X123.6Y-85.2
X124.6Y-99.2
X124.6Y-100.2
X124.6Y-101.2
X124.6Y-110.8
X125.5Y-109.4
X125.6Y-104.2
X130.6Y-76.2
X131.6Y-84.2
X131.6Y-99.7
X131.6Y-101.7
X131.9Y-116.9
X131.9Y-119.4
X132.1Y-103.6
X132.6Y-80.7
X132.6Y-87.7
X132.6Y-100.7
X133.1Y-96.7
X133.6Y-82.45
X133.6Y-85.45
X134.6Y-75.7
X134.6Y-95.2
X135.6Y-102.7
X136.1Y-97.2
X137.6Y-80.2
X137.6Y-88.2
X137.6Y-119.2
X138.6Y-120.2
X139.6Y-113.7
X140.1Y-106.2
X141.1Y-81.2
X141.1Y-87.2
X142.1Y-93.2
X142.224Y-91.576
X142.6Y-94.0
X142.6Y-118.7
X142.6Y-119.737
X142.98Y-89.82
X143.1Y-110.2
X143.6Y-102.7
X146.6Y-91.2
X146.6Y-106.2
X147.6Y-89.2
X147.6Y-118.7
X148.6Y-106.2
X148.6Y-113.2
X148.6Y-114.7
X149.6Y-100.2
X150.6Y-105.2
X152.175Y-129.3
X152.6Y-110.2
X153.6Y-102.2
X153.6Y-117.7
X153.6Y-119.2
X154.6Y-117.7
X154.6Y-119.2
X157.1Y-90.2
X158.6Y-102.7
X159.1Y-91.2
X159.6Y-85.2
X163.1Y-117.2
X163.1Y-118.7
X163.175Y-129.3
X164.262Y-97.5
X164.338Y-76.7
X164.6Y-90.7
X165.1Y-117.2
X165.1Y-118.7
X172.6Y-80.7
X175.2Y-130.2
X175.338Y-86.2
X175.338Y-89.7
X176.6Y-88.2
X178.1Y-81.318
X179.5Y-113.7
X180.6Y-97.237
X188.1Y-97.237
T3
X142.1Y-89.2
X169.6Y-93.7
T5
X111.1Y-120.7
X111.1Y-126.7
X111.1Y-131.25
X114.6Y-120.7
X114.7Y-115.4
X118.1Y-120.7
X118.2Y-115.4
X121.6Y-120.7
X168.6Y-75.7
X168.6Y-79.7
T6
X154.8Y-123.2
X154.8Y-125.2
T7
X104.6Y-92.58
X104.6Y-95.12
X104.6Y-97.66
X104.6Y-100.2
X104.6Y-102.74
X104.6Y-105.28
X104.6Y-107.82
X104.6Y-110.36
X104.6Y-112.9
X104.6Y-115.44
X107.14Y-92.58
X107.14Y-95.12
X107.14Y-97.66
X107.14Y-100.2
X107.14Y-102.74
X107.14Y-105.28
X107.14Y-107.82
X107.14Y-110.36
X107.14Y-112.9
X107.14Y-115.44
T8
X129.85Y-125.95
X129.85Y-130.45
X136.35Y-125.95
X136.35Y-130.45
X140.85Y-125.95
X140.85Y-130.45
X147.35Y-125.95
X147.35Y-130.45
T9
X184.1Y-116.7
X184.1Y-119.24
X184.6Y-86.66
X184.6Y-89.2
T10
X104.6Y-78.2
X104.6Y-128.2
X183.6Y-78.2
X183.6Y-128.2
T4
G00X115.075Y-74.685
M15
G01X114.825Y-74.685
M16
G05
G00X115.075Y-78.985
M15
G01X114.825Y-78.985
M16
G05
G00X119.875Y-74.685
M15
G01X119.625Y-74.685
M16
G05
G00X119.875Y-78.985
M15
G01X119.625Y-78.985
M16
G05
M30
