%TF.GenerationSoftware,KiCad,Pcbnew,8.0.3*%
%TF.CreationDate,2026-02-06T01:26:45-05:00*%
%TF.ProjectId,FrostByte_IRCamera_PCB,46726f73-7442-4797-9465-5f495243616d,rev?*%
%TF.SameCoordinates,Original*%
%TF.FileFunction,Copper,L3,Inr*%
%TF.FilePolarity,Positive*%
%FSLAX46Y46*%
G04 Gerber Fmt 4.6, Leading zero omitted, Abs format (unit mm)*
G04 Created by KiCad (PCBNEW 8.0.3) date 2026-02-06 01:26:45*
%MOMM*%
%LPD*%
G01*
G04 APERTURE LIST*
%TA.AperFunction,HeatsinkPad*%
%ADD10C,0.600000*%
%TD*%
%TA.AperFunction,ComponentPad*%
%ADD11R,2.000000X2.000000*%
%TD*%
%TA.AperFunction,ComponentPad*%
%ADD12C,2.000000*%
%TD*%
%TA.AperFunction,ComponentPad*%
%ADD13C,5.600000*%
%TD*%
%TA.AperFunction,ComponentPad*%
%ADD14O,1.350000X1.100000*%
%TD*%
%TA.AperFunction,ComponentPad*%
%ADD15R,1.600000X1.600000*%
%TD*%
%TA.AperFunction,ComponentPad*%
%ADD16C,1.600000*%
%TD*%
%TA.AperFunction,ComponentPad*%
%ADD17R,1.700000X1.700000*%
%TD*%
%TA.AperFunction,ComponentPad*%
%ADD18O,1.700000X1.700000*%
%TD*%
%TA.AperFunction,ComponentPad*%
%ADD19R,1.500000X1.500000*%
%TD*%
%TA.AperFunction,ViaPad*%
%ADD20C,0.600000*%
%TD*%
%TA.AperFunction,ViaPad*%
%ADD21C,1.000000*%
%TD*%
G04 APERTURE END LIST*
D10*
%TO.N,GND*%
%TO.C,U2*%
X153237500Y-84270000D03*
X153237500Y-82870000D03*
X152537500Y-84970000D03*
X152537500Y-83570000D03*
X152537500Y-82170000D03*
X151837500Y-84270000D03*
X151837500Y-82870000D03*
X151137500Y-84970000D03*
X151137500Y-83570000D03*
X151137500Y-82170000D03*
X150437500Y-84270000D03*
X150437500Y-82870000D03*
%TD*%
D11*
%TO.N,/MCU/CAM_TEMP*%
%TO.C,J2*%
X184600000Y-89200000D03*
D12*
%TO.N,GND*%
X184600000Y-86660000D03*
%TD*%
D13*
%TO.N,GND*%
%TO.C,H4*%
X183600000Y-128200000D03*
%TD*%
D14*
%TO.N,GND*%
%TO.C,J6*%
X119750000Y-78985000D03*
X119750000Y-74685000D03*
X114950000Y-78985000D03*
X114950000Y-74685000D03*
%TD*%
D13*
%TO.N,GND*%
%TO.C,H2*%
X183600000Y-78200000D03*
%TD*%
D15*
%TO.N,Net-(U1-EN)*%
%TO.C,C1*%
X154800000Y-123200000D03*
D16*
%TO.N,GND*%
X154800000Y-125200000D03*
%TD*%
D11*
%TO.N,Net-(J1-Pin_1)*%
%TO.C,J1*%
X184100000Y-119240000D03*
D12*
%TO.N,GND*%
X184100000Y-116700000D03*
%TD*%
D13*
%TO.N,GND*%
%TO.C,H1*%
X104600000Y-78200000D03*
%TD*%
D12*
%TO.N,GND*%
%TO.C,SW2*%
X136350000Y-130450000D03*
X129850000Y-130450000D03*
%TO.N,Net-(U2-EN)*%
X136350000Y-125950000D03*
X129850000Y-125950000D03*
%TD*%
%TO.N,GND*%
%TO.C,SW1*%
X147350000Y-130450000D03*
X140850000Y-130450000D03*
%TO.N,Net-(C9-Pad2)*%
X147350000Y-125950000D03*
X140850000Y-125950000D03*
%TD*%
D13*
%TO.N,GND*%
%TO.C,H3*%
X104600000Y-128200000D03*
%TD*%
D17*
%TO.N,GND*%
%TO.C,J4*%
X104600000Y-92580000D03*
D18*
%TO.N,Net-(J4-Pin_2)*%
X107140000Y-92580000D03*
%TO.N,/MCU/RESET_L*%
X104600000Y-95120000D03*
%TO.N,unconnected-(J4-Pin_4-Pad4)*%
X107140000Y-95120000D03*
%TO.N,/MCU/VSYNC*%
X104600000Y-97660000D03*
%TO.N,unconnected-(J4-Pin_6-Pad6)*%
X107140000Y-97660000D03*
%TO.N,unconnected-(J4-Pin_7-Pad7)*%
X104600000Y-100200000D03*
%TO.N,unconnected-(J4-Pin_8-Pad8)*%
X107140000Y-100200000D03*
%TO.N,unconnected-(J4-Pin_9-Pad9)*%
X104600000Y-102740000D03*
%TO.N,Net-(J4-Pin_10)*%
X107140000Y-102740000D03*
%TO.N,/MCU/SPI_MOSI*%
X104600000Y-105280000D03*
%TO.N,/MCU/SPI_CS*%
X107140000Y-105280000D03*
%TO.N,/MCU/SPI_CLK*%
X104600000Y-107820000D03*
%TO.N,/MCU/SCL_B*%
X107140000Y-107820000D03*
%TO.N,/MCU/SDA_B*%
X104600000Y-110360000D03*
%TO.N,+2V8*%
X107140000Y-110360000D03*
%TO.N,unconnected-(J4-Pin_17-Pad17)*%
X104600000Y-112900000D03*
%TO.N,unconnected-(J4-Pin_18-Pad18)*%
X107140000Y-112900000D03*
%TO.N,GND*%
X104600000Y-115440000D03*
%TO.N,+3.3V*%
X107140000Y-115440000D03*
%TD*%
D19*
%TO.N,/MCU/RX*%
%TO.C,RX*%
X168600000Y-75700000D03*
%TD*%
%TO.N,/MCU/SPI_MISO*%
%TO.C,MISO*%
X111100000Y-120700000D03*
%TD*%
%TO.N,/MCU/SCL_A*%
%TO.C,SCL*%
X111100000Y-131250000D03*
%TD*%
%TO.N,+2V8*%
%TO.C,2v8*%
X114700000Y-115400000D03*
%TD*%
%TO.N,/MCU/SPI_CLK*%
%TO.C,CLK*%
X121600000Y-120700000D03*
%TD*%
%TO.N,/MCU/SPI_MOSI*%
%TO.C,MOSI*%
X118100000Y-120700000D03*
%TD*%
%TO.N,+3.3V*%
%TO.C,3v3*%
X118200000Y-115400000D03*
%TD*%
%TO.N,/MCU/SPI_CS*%
%TO.C,CS*%
X114600000Y-120700000D03*
%TD*%
%TO.N,/MCU/TX*%
%TO.C,TX*%
X168600000Y-79700000D03*
%TD*%
%TO.N,/MCU/SDA_A*%
%TO.C,SDA*%
X111100000Y-126700000D03*
%TD*%
D20*
%TO.N,+2V8*%
X125500000Y-109400000D03*
%TO.N,GND*%
X124600000Y-110800000D03*
%TO.N,+2V8*%
X131900000Y-116900000D03*
X139600000Y-113700000D03*
X114600000Y-98200000D03*
X114600000Y-92200000D03*
X118600000Y-92200000D03*
X121600000Y-92200000D03*
X135600000Y-102700000D03*
%TO.N,/MCU/VSYNC*%
X150600000Y-105200000D03*
%TO.N,GND*%
X153600000Y-119200000D03*
X153600000Y-117700000D03*
X154600000Y-117700000D03*
X154600000Y-119200000D03*
%TO.N,+3.3V*%
X165100000Y-118700000D03*
X165100000Y-117200000D03*
X163100000Y-117200000D03*
X163100000Y-118700000D03*
X120300000Y-118400000D03*
%TO.N,GND*%
X131600000Y-84200000D03*
X141100000Y-81200000D03*
X137600000Y-80200000D03*
X132600000Y-80700000D03*
X132600000Y-87700000D03*
X137600000Y-88200000D03*
X141100000Y-87200000D03*
X111600000Y-88200000D03*
X123600000Y-79700000D03*
X109100000Y-79200000D03*
X111600000Y-81700000D03*
X123600000Y-85200000D03*
X109100000Y-85200000D03*
X120600000Y-81700000D03*
X120600000Y-83700000D03*
X111600000Y-83700000D03*
X124600000Y-99200000D03*
%TO.N,/MCU/EN_I2C*%
X131600000Y-99700000D03*
%TO.N,+5V*%
X172600000Y-80700000D03*
%TO.N,+3.3V*%
X133100000Y-96700000D03*
%TO.N,/MCU/EN_SPI*%
X143100000Y-110200000D03*
X159100000Y-91200000D03*
%TO.N,+3.3V*%
X152600000Y-110200000D03*
D21*
%TO.N,+5V*%
X169600000Y-93700000D03*
X142100000Y-89200000D03*
D20*
%TO.N,Net-(J6-CC2)*%
X111600000Y-74700000D03*
X117100000Y-74700000D03*
%TO.N,/MCU/CAM_TEMP*%
X164600000Y-90700000D03*
X157100000Y-90200000D03*
%TO.N,GND*%
X133600000Y-85450000D03*
X134600000Y-75700000D03*
X131600000Y-101700000D03*
X102100000Y-92200000D03*
X188100000Y-97237500D03*
X142600000Y-119737500D03*
X133600000Y-82450000D03*
X140100000Y-106200000D03*
X163175000Y-129300000D03*
X164337500Y-76700000D03*
X179500000Y-113700000D03*
X111900000Y-116000000D03*
X175200000Y-130200000D03*
X114100000Y-100200000D03*
X102600000Y-88700000D03*
X178100000Y-81317800D03*
X131900000Y-119400000D03*
X115600000Y-125200000D03*
X146600000Y-106200000D03*
X147600000Y-118700000D03*
X132600000Y-100700000D03*
X142600000Y-118700000D03*
%TO.N,Net-(U2-EN)*%
X138600000Y-120200000D03*
X147600000Y-89200000D03*
%TO.N,+3.3V*%
X136100000Y-97200000D03*
X158600000Y-102700000D03*
X175337500Y-89700000D03*
X148600000Y-114700000D03*
X137600000Y-119200000D03*
X152175000Y-129300000D03*
X130600000Y-76200000D03*
X176600000Y-88200000D03*
X108100000Y-88700000D03*
X116600000Y-125200000D03*
X164262500Y-97500000D03*
X148600000Y-113200000D03*
X143600000Y-102700000D03*
X180600000Y-97237500D03*
X132100000Y-103600000D03*
X175337500Y-86200000D03*
%TO.N,/MCU/SPI_MISO*%
X125600000Y-104200000D03*
X149600000Y-100200000D03*
%TO.N,/MCU/RESET_L_3v3*%
X148600000Y-106200000D03*
X153600000Y-102200000D03*
%TO.N,/MCU/SDA_A*%
X124600000Y-100200000D03*
X142600000Y-94000000D03*
X142980000Y-89820000D03*
X118600000Y-124200000D03*
%TO.N,/MCU/SCL_A*%
X124600000Y-101200000D03*
X119600000Y-124200000D03*
%TO.N,/MCU/SDA_B*%
X122600000Y-97200000D03*
%TO.N,/MCU/SCL_B*%
X118600000Y-100200000D03*
%TO.N,Net-(U2-IO17)*%
X146600000Y-91200000D03*
X134600000Y-95200000D03*
%TO.N,/MCU/EN_I2C*%
X159600000Y-85200000D03*
%TO.N,/Peripherals/USB_D-*%
X142100000Y-93200000D03*
X142224265Y-91575735D03*
X117950000Y-74739614D03*
X116600000Y-79200000D03*
%TD*%
%TA.AperFunction,Conductor*%
%TO.N,+3.3V*%
G36*
X131043039Y-72720185D02*
G01*
X131088794Y-72772989D01*
X131100000Y-72824500D01*
X131100000Y-83516560D01*
X131080315Y-83583599D01*
X131063681Y-83604241D01*
X130970184Y-83697737D01*
X130874211Y-83850476D01*
X130814631Y-84020745D01*
X130814630Y-84020750D01*
X130794435Y-84199996D01*
X130794435Y-84200003D01*
X130814630Y-84379249D01*
X130814631Y-84379254D01*
X130874211Y-84549523D01*
X130970184Y-84702262D01*
X131063681Y-84795759D01*
X131097166Y-84857082D01*
X131100000Y-84883440D01*
X131100000Y-89200000D01*
X140982272Y-89200000D01*
X141049311Y-89219685D01*
X141095066Y-89272489D01*
X141105675Y-89311847D01*
X141113975Y-89396128D01*
X141113975Y-89396130D01*
X141113976Y-89396132D01*
X141171186Y-89584727D01*
X141171188Y-89584733D01*
X141264086Y-89758532D01*
X141264090Y-89758539D01*
X141389116Y-89910883D01*
X141541460Y-90035909D01*
X141541467Y-90035913D01*
X141715266Y-90128811D01*
X141715269Y-90128811D01*
X141715273Y-90128814D01*
X141903868Y-90186024D01*
X142100000Y-90205341D01*
X142190081Y-90196468D01*
X142258725Y-90209486D01*
X142307228Y-90253899D01*
X142350183Y-90322261D01*
X142350184Y-90322262D01*
X142477738Y-90449816D01*
X142630478Y-90545789D01*
X142700195Y-90570184D01*
X142800745Y-90605368D01*
X142800750Y-90605369D01*
X142979996Y-90625565D01*
X142980000Y-90625565D01*
X142980004Y-90625565D01*
X143159249Y-90605369D01*
X143159252Y-90605368D01*
X143159255Y-90605368D01*
X143329522Y-90545789D01*
X143482262Y-90449816D01*
X143609816Y-90322262D01*
X143686641Y-90199996D01*
X156294435Y-90199996D01*
X156294435Y-90200003D01*
X156314630Y-90379249D01*
X156314631Y-90379254D01*
X156374211Y-90549523D01*
X156415065Y-90614541D01*
X156470184Y-90702262D01*
X156597738Y-90829816D01*
X156750478Y-90925789D01*
X156920745Y-90985368D01*
X156920750Y-90985369D01*
X157099996Y-91005565D01*
X157100000Y-91005565D01*
X157100004Y-91005565D01*
X157279249Y-90985369D01*
X157279252Y-90985368D01*
X157279255Y-90985368D01*
X157449522Y-90925789D01*
X157602262Y-90829816D01*
X157729816Y-90702262D01*
X157825789Y-90549522D01*
X157885368Y-90379255D01*
X157885369Y-90379249D01*
X157905565Y-90200003D01*
X157905565Y-90199996D01*
X157885369Y-90020750D01*
X157885368Y-90020745D01*
X157848237Y-89914630D01*
X157825789Y-89850478D01*
X157806638Y-89820000D01*
X157768015Y-89758532D01*
X157729816Y-89697738D01*
X157602262Y-89570184D01*
X157499422Y-89505565D01*
X157449523Y-89474211D01*
X157279254Y-89414631D01*
X157279249Y-89414630D01*
X157100004Y-89394435D01*
X157099996Y-89394435D01*
X156920750Y-89414630D01*
X156920745Y-89414631D01*
X156750476Y-89474211D01*
X156597737Y-89570184D01*
X156470184Y-89697737D01*
X156374211Y-89850476D01*
X156314631Y-90020745D01*
X156314630Y-90020750D01*
X156294435Y-90199996D01*
X143686641Y-90199996D01*
X143705789Y-90169522D01*
X143765368Y-89999255D01*
X143775325Y-89910883D01*
X143785565Y-89820003D01*
X143785565Y-89819996D01*
X143765369Y-89640750D01*
X143765368Y-89640745D01*
X143705789Y-89470478D01*
X143677709Y-89425789D01*
X143655204Y-89389972D01*
X143636204Y-89322735D01*
X143656572Y-89255900D01*
X143709840Y-89210686D01*
X143760198Y-89200000D01*
X146606089Y-89200000D01*
X146653994Y-89173841D01*
X146723686Y-89178824D01*
X146779620Y-89220695D01*
X146803574Y-89281123D01*
X146814630Y-89379250D01*
X146814631Y-89379254D01*
X146874211Y-89549523D01*
X146931530Y-89640745D01*
X146970184Y-89702262D01*
X147097738Y-89829816D01*
X147188080Y-89886582D01*
X147232721Y-89914632D01*
X147250478Y-89925789D01*
X147388860Y-89974211D01*
X147420745Y-89985368D01*
X147420750Y-89985369D01*
X147599996Y-90005565D01*
X147600000Y-90005565D01*
X147600004Y-90005565D01*
X147779249Y-89985369D01*
X147779252Y-89985368D01*
X147779255Y-89985368D01*
X147949522Y-89925789D01*
X148102262Y-89829816D01*
X148229816Y-89702262D01*
X148325789Y-89549522D01*
X148385368Y-89379255D01*
X148390939Y-89329816D01*
X148405565Y-89200000D01*
X148405565Y-89199996D01*
X148385369Y-89020750D01*
X148385368Y-89020745D01*
X148344627Y-88904314D01*
X148325789Y-88850478D01*
X148229816Y-88697738D01*
X148102262Y-88570184D01*
X148069379Y-88549522D01*
X147949523Y-88474211D01*
X147779254Y-88414631D01*
X147779249Y-88414630D01*
X147600004Y-88394435D01*
X147599996Y-88394435D01*
X147420750Y-88414630D01*
X147420745Y-88414631D01*
X147250476Y-88474211D01*
X147097737Y-88570184D01*
X146970184Y-88697737D01*
X146874209Y-88850480D01*
X146841041Y-88945269D01*
X146800320Y-89002045D01*
X146735367Y-89027792D01*
X146666805Y-89014336D01*
X146616403Y-88965948D01*
X146600000Y-88904314D01*
X146600000Y-86659994D01*
X183094357Y-86659994D01*
X183094357Y-86660005D01*
X183114890Y-86907812D01*
X183114892Y-86907824D01*
X183175936Y-87148881D01*
X183275825Y-87376603D01*
X183275827Y-87376607D01*
X183406742Y-87576988D01*
X183426929Y-87643877D01*
X183407749Y-87711063D01*
X183362367Y-87753637D01*
X183357670Y-87756201D01*
X183242455Y-87842452D01*
X183242452Y-87842455D01*
X183156206Y-87957664D01*
X183156202Y-87957671D01*
X183105908Y-88092517D01*
X183099501Y-88152116D01*
X183099501Y-88152123D01*
X183099500Y-88152135D01*
X183099500Y-90247870D01*
X183099501Y-90247876D01*
X183105908Y-90307483D01*
X183156202Y-90442328D01*
X183156206Y-90442335D01*
X183242452Y-90557544D01*
X183242455Y-90557547D01*
X183357664Y-90643793D01*
X183357671Y-90643797D01*
X183492517Y-90694091D01*
X183492516Y-90694091D01*
X183499444Y-90694835D01*
X183552127Y-90700500D01*
X185647872Y-90700499D01*
X185707483Y-90694091D01*
X185842331Y-90643796D01*
X185957546Y-90557546D01*
X186043796Y-90442331D01*
X186094091Y-90307483D01*
X186100500Y-90247873D01*
X186100499Y-88152128D01*
X186094091Y-88092517D01*
X186085761Y-88070184D01*
X186043797Y-87957671D01*
X186043793Y-87957664D01*
X185957547Y-87842455D01*
X185957544Y-87842452D01*
X185842332Y-87756204D01*
X185837635Y-87753639D01*
X185788232Y-87704232D01*
X185773382Y-87635958D01*
X185793257Y-87576989D01*
X185924173Y-87376607D01*
X186024063Y-87148881D01*
X186085108Y-86907821D01*
X186105643Y-86660000D01*
X186085311Y-86414632D01*
X186085109Y-86412187D01*
X186085107Y-86412175D01*
X186024063Y-86171118D01*
X185924173Y-85943393D01*
X185788166Y-85735217D01*
X185751869Y-85695788D01*
X185619744Y-85552262D01*
X185423509Y-85399526D01*
X185423507Y-85399525D01*
X185423506Y-85399524D01*
X185204811Y-85281172D01*
X185204802Y-85281169D01*
X184969616Y-85200429D01*
X184724335Y-85159500D01*
X184475665Y-85159500D01*
X184230383Y-85200429D01*
X183995197Y-85281169D01*
X183995188Y-85281172D01*
X183776493Y-85399524D01*
X183580257Y-85552261D01*
X183411833Y-85735217D01*
X183275826Y-85943393D01*
X183175936Y-86171118D01*
X183114892Y-86412175D01*
X183114890Y-86412187D01*
X183094357Y-86659994D01*
X146600000Y-86659994D01*
X146600000Y-82869996D01*
X149631935Y-82869996D01*
X149631935Y-82870003D01*
X149652130Y-83049249D01*
X149652131Y-83049254D01*
X149711711Y-83219523D01*
X149807684Y-83372262D01*
X149917741Y-83482319D01*
X149951226Y-83543642D01*
X149946242Y-83613334D01*
X149917741Y-83657681D01*
X149807684Y-83767737D01*
X149711711Y-83920476D01*
X149652131Y-84090745D01*
X149652130Y-84090750D01*
X149631935Y-84269996D01*
X149631935Y-84270003D01*
X149652130Y-84449249D01*
X149652131Y-84449254D01*
X149711711Y-84619523D01*
X149807684Y-84772262D01*
X149935238Y-84899816D01*
X150087978Y-84995789D01*
X150258245Y-85055368D01*
X150258254Y-85055369D01*
X150258707Y-85055473D01*
X150258977Y-85055624D01*
X150264818Y-85057668D01*
X150264460Y-85058690D01*
X150319691Y-85089573D01*
X150348877Y-85143017D01*
X150349833Y-85142683D01*
X150351862Y-85148483D01*
X150352023Y-85148777D01*
X150352131Y-85149250D01*
X150352132Y-85149255D01*
X150370039Y-85200429D01*
X150411710Y-85319521D01*
X150461981Y-85399526D01*
X150507684Y-85472262D01*
X150635238Y-85599816D01*
X150787978Y-85695789D01*
X150900651Y-85735215D01*
X150958245Y-85755368D01*
X150958250Y-85755369D01*
X151137496Y-85775565D01*
X151137500Y-85775565D01*
X151137504Y-85775565D01*
X151316749Y-85755369D01*
X151316752Y-85755368D01*
X151316755Y-85755368D01*
X151487022Y-85695789D01*
X151639762Y-85599816D01*
X151749819Y-85489759D01*
X151811142Y-85456274D01*
X151880834Y-85461258D01*
X151925181Y-85489759D01*
X152035238Y-85599816D01*
X152187978Y-85695789D01*
X152300651Y-85735215D01*
X152358245Y-85755368D01*
X152358250Y-85755369D01*
X152537496Y-85775565D01*
X152537500Y-85775565D01*
X152537504Y-85775565D01*
X152716749Y-85755369D01*
X152716752Y-85755368D01*
X152716755Y-85755368D01*
X152887022Y-85695789D01*
X153039762Y-85599816D01*
X153167316Y-85472262D01*
X153263289Y-85319522D01*
X153305113Y-85199996D01*
X158794435Y-85199996D01*
X158794435Y-85200003D01*
X158814630Y-85379249D01*
X158814631Y-85379254D01*
X158874211Y-85549523D01*
X158966116Y-85695788D01*
X158970184Y-85702262D01*
X159097738Y-85829816D01*
X159250478Y-85925789D01*
X159420745Y-85985368D01*
X159420750Y-85985369D01*
X159599996Y-86005565D01*
X159600000Y-86005565D01*
X159600004Y-86005565D01*
X159779249Y-85985369D01*
X159779252Y-85985368D01*
X159779255Y-85985368D01*
X159949522Y-85925789D01*
X160102262Y-85829816D01*
X160229816Y-85702262D01*
X160325789Y-85549522D01*
X160385368Y-85379255D01*
X160392098Y-85319523D01*
X160405565Y-85200003D01*
X160405565Y-85199996D01*
X160385369Y-85020750D01*
X160385368Y-85020745D01*
X160380056Y-85005565D01*
X160325789Y-84850478D01*
X160229816Y-84697738D01*
X160102262Y-84570184D01*
X159999422Y-84505565D01*
X159949523Y-84474211D01*
X159779254Y-84414631D01*
X159779249Y-84414630D01*
X159600004Y-84394435D01*
X159599996Y-84394435D01*
X159420750Y-84414630D01*
X159420745Y-84414631D01*
X159250476Y-84474211D01*
X159097737Y-84570184D01*
X158970184Y-84697737D01*
X158874211Y-84850476D01*
X158814631Y-85020745D01*
X158814630Y-85020750D01*
X158794435Y-85199996D01*
X153305113Y-85199996D01*
X153322868Y-85149255D01*
X153322869Y-85149243D01*
X153322973Y-85148793D01*
X153323124Y-85148522D01*
X153325168Y-85142682D01*
X153326190Y-85143039D01*
X153357073Y-85087809D01*
X153410517Y-85058626D01*
X153410182Y-85057668D01*
X153416004Y-85055630D01*
X153416293Y-85055473D01*
X153416743Y-85055369D01*
X153416755Y-85055368D01*
X153587022Y-84995789D01*
X153739762Y-84899816D01*
X153867316Y-84772262D01*
X153963289Y-84619522D01*
X154022868Y-84449255D01*
X154026769Y-84414631D01*
X154043065Y-84270003D01*
X154043065Y-84269996D01*
X154022869Y-84090750D01*
X154022868Y-84090745D01*
X153963288Y-83920476D01*
X153867315Y-83767737D01*
X153757259Y-83657681D01*
X153723774Y-83596358D01*
X153728758Y-83526666D01*
X153757259Y-83482319D01*
X153765367Y-83474211D01*
X153867316Y-83372262D01*
X153963289Y-83219522D01*
X154022868Y-83049255D01*
X154022869Y-83049249D01*
X154043065Y-82870003D01*
X154043065Y-82869996D01*
X154022869Y-82690750D01*
X154022868Y-82690745D01*
X153963288Y-82520476D01*
X153867315Y-82367737D01*
X153739762Y-82240184D01*
X153587021Y-82144210D01*
X153507937Y-82116538D01*
X153416755Y-82084632D01*
X153416751Y-82084631D01*
X153416750Y-82084631D01*
X153416277Y-82084523D01*
X153416001Y-82084369D01*
X153410183Y-82082333D01*
X153410539Y-82081313D01*
X153355298Y-82050416D01*
X153326126Y-81996982D01*
X153325168Y-81997318D01*
X153323130Y-81991496D01*
X153322973Y-81991207D01*
X153322869Y-81990754D01*
X153322868Y-81990745D01*
X153263289Y-81820478D01*
X153263104Y-81820184D01*
X153187589Y-81700003D01*
X153167316Y-81667738D01*
X153039762Y-81540184D01*
X153008825Y-81520745D01*
X152887023Y-81444211D01*
X152716754Y-81384631D01*
X152716749Y-81384630D01*
X152537504Y-81364435D01*
X152537496Y-81364435D01*
X152358250Y-81384630D01*
X152358245Y-81384631D01*
X152187976Y-81444211D01*
X152035237Y-81540184D01*
X151925181Y-81650241D01*
X151863858Y-81683726D01*
X151794166Y-81678742D01*
X151749819Y-81650241D01*
X151639762Y-81540184D01*
X151487023Y-81444211D01*
X151316754Y-81384631D01*
X151316749Y-81384630D01*
X151137504Y-81364435D01*
X151137496Y-81364435D01*
X150958250Y-81384630D01*
X150958245Y-81384631D01*
X150787976Y-81444211D01*
X150635237Y-81540184D01*
X150507684Y-81667737D01*
X150411710Y-81820478D01*
X150352128Y-81990755D01*
X150352018Y-81991241D01*
X150351860Y-81991522D01*
X150349833Y-81997317D01*
X150348817Y-81996961D01*
X150317900Y-82052215D01*
X150264484Y-82081381D01*
X150264817Y-82082333D01*
X150259041Y-82084353D01*
X150258741Y-82084518D01*
X150258255Y-82084628D01*
X150087978Y-82144210D01*
X149935237Y-82240184D01*
X149807684Y-82367737D01*
X149711711Y-82520476D01*
X149652131Y-82690745D01*
X149652130Y-82690750D01*
X149631935Y-82869996D01*
X146600000Y-82869996D01*
X146600000Y-78902135D01*
X167349500Y-78902135D01*
X167349500Y-80497870D01*
X167349501Y-80497876D01*
X167355908Y-80557483D01*
X167406201Y-80692325D01*
X167406206Y-80692335D01*
X167492452Y-80807544D01*
X167492455Y-80807547D01*
X167607664Y-80893793D01*
X167607671Y-80893797D01*
X167742517Y-80944091D01*
X167742516Y-80944091D01*
X167749444Y-80944835D01*
X167802127Y-80950500D01*
X169397872Y-80950499D01*
X169457483Y-80944091D01*
X169592331Y-80893796D01*
X169707546Y-80807546D01*
X169788058Y-80699996D01*
X171794435Y-80699996D01*
X171794435Y-80700003D01*
X171814630Y-80879249D01*
X171814631Y-80879254D01*
X171874211Y-81049523D01*
X171930148Y-81138545D01*
X171970184Y-81202262D01*
X172097738Y-81329816D01*
X172250478Y-81425789D01*
X172353406Y-81461805D01*
X172420745Y-81485368D01*
X172420750Y-81485369D01*
X172599996Y-81505565D01*
X172600000Y-81505565D01*
X172600004Y-81505565D01*
X172779249Y-81485369D01*
X172779252Y-81485368D01*
X172779255Y-81485368D01*
X172949522Y-81425789D01*
X173102262Y-81329816D01*
X173114282Y-81317796D01*
X177294435Y-81317796D01*
X177294435Y-81317803D01*
X177314630Y-81497049D01*
X177314631Y-81497054D01*
X177374211Y-81667323D01*
X177444656Y-81779435D01*
X177470184Y-81820062D01*
X177597738Y-81947616D01*
X177750478Y-82043589D01*
X177867772Y-82084632D01*
X177920745Y-82103168D01*
X177920750Y-82103169D01*
X178099996Y-82123365D01*
X178100000Y-82123365D01*
X178100004Y-82123365D01*
X178279249Y-82103169D01*
X178279252Y-82103168D01*
X178279255Y-82103168D01*
X178449522Y-82043589D01*
X178602262Y-81947616D01*
X178729816Y-81820062D01*
X178825789Y-81667322D01*
X178885368Y-81497055D01*
X178893398Y-81425788D01*
X178905565Y-81317803D01*
X178905565Y-81317796D01*
X178885369Y-81138550D01*
X178885368Y-81138545D01*
X178854218Y-81049523D01*
X178825789Y-80968278D01*
X178814618Y-80950500D01*
X178729815Y-80815537D01*
X178602262Y-80687984D01*
X178449523Y-80592011D01*
X178279254Y-80532431D01*
X178279249Y-80532430D01*
X178100004Y-80512235D01*
X178099996Y-80512235D01*
X177920750Y-80532430D01*
X177920745Y-80532431D01*
X177750476Y-80592011D01*
X177597737Y-80687984D01*
X177470184Y-80815537D01*
X177374211Y-80968276D01*
X177314631Y-81138545D01*
X177314630Y-81138550D01*
X177294435Y-81317796D01*
X173114282Y-81317796D01*
X173229816Y-81202262D01*
X173325789Y-81049522D01*
X173385368Y-80879255D01*
X173385369Y-80879249D01*
X173405565Y-80700003D01*
X173405565Y-80699996D01*
X173385369Y-80520750D01*
X173385368Y-80520745D01*
X173341170Y-80394435D01*
X173325789Y-80350478D01*
X173229816Y-80197738D01*
X173102262Y-80070184D01*
X173047063Y-80035500D01*
X172949523Y-79974211D01*
X172779254Y-79914631D01*
X172779249Y-79914630D01*
X172600004Y-79894435D01*
X172599996Y-79894435D01*
X172420750Y-79914630D01*
X172420745Y-79914631D01*
X172250476Y-79974211D01*
X172097737Y-80070184D01*
X171970184Y-80197737D01*
X171874211Y-80350476D01*
X171814631Y-80520745D01*
X171814630Y-80520750D01*
X171794435Y-80699996D01*
X169788058Y-80699996D01*
X169793796Y-80692331D01*
X169793796Y-80692328D01*
X169793799Y-80692325D01*
X169844091Y-80557482D01*
X169846784Y-80532431D01*
X169850500Y-80497873D01*
X169850499Y-78902128D01*
X169844091Y-78842517D01*
X169793796Y-78707669D01*
X169793795Y-78707668D01*
X169793793Y-78707664D01*
X169707547Y-78592455D01*
X169707544Y-78592452D01*
X169592335Y-78506206D01*
X169592328Y-78506202D01*
X169457482Y-78455908D01*
X169457483Y-78455908D01*
X169397883Y-78449501D01*
X169397881Y-78449500D01*
X169397873Y-78449500D01*
X169397864Y-78449500D01*
X167802129Y-78449500D01*
X167802123Y-78449501D01*
X167742516Y-78455908D01*
X167607671Y-78506202D01*
X167607664Y-78506206D01*
X167492455Y-78592452D01*
X167492452Y-78592455D01*
X167406206Y-78707664D01*
X167406202Y-78707671D01*
X167355908Y-78842517D01*
X167350327Y-78894435D01*
X167349501Y-78902123D01*
X167349500Y-78902135D01*
X146600000Y-78902135D01*
X146600000Y-78200000D01*
X180294652Y-78200000D01*
X180310234Y-78487403D01*
X180314028Y-78557368D01*
X180314029Y-78557385D01*
X180371926Y-78910539D01*
X180371932Y-78910565D01*
X180467672Y-79255392D01*
X180467674Y-79255399D01*
X180600142Y-79587870D01*
X180600151Y-79587888D01*
X180767784Y-79904077D01*
X180767787Y-79904082D01*
X180767789Y-79904085D01*
X180966890Y-80197738D01*
X180968634Y-80200309D01*
X180968641Y-80200319D01*
X181200331Y-80473085D01*
X181200332Y-80473086D01*
X181460163Y-80719211D01*
X181745081Y-80935800D01*
X182051747Y-81120315D01*
X182051749Y-81120316D01*
X182051751Y-81120317D01*
X182051755Y-81120319D01*
X182219095Y-81197738D01*
X182376565Y-81270591D01*
X182715726Y-81384868D01*
X183065254Y-81461805D01*
X183421052Y-81500500D01*
X183421058Y-81500500D01*
X183778942Y-81500500D01*
X183778948Y-81500500D01*
X184134746Y-81461805D01*
X184484274Y-81384868D01*
X184823435Y-81270591D01*
X185148253Y-81120315D01*
X185454919Y-80935800D01*
X185739837Y-80719211D01*
X185999668Y-80473086D01*
X186231365Y-80200311D01*
X186432211Y-79904085D01*
X186599853Y-79587880D01*
X186732324Y-79255403D01*
X186828071Y-78910552D01*
X186877205Y-78610847D01*
X186885970Y-78557385D01*
X186885970Y-78557382D01*
X186885972Y-78557371D01*
X186905348Y-78200000D01*
X186903668Y-78169023D01*
X186897435Y-78054058D01*
X186885972Y-77842629D01*
X186870947Y-77750983D01*
X186828073Y-77489460D01*
X186828072Y-77489459D01*
X186828071Y-77489448D01*
X186778444Y-77310708D01*
X186732327Y-77144607D01*
X186732325Y-77144600D01*
X186599857Y-76812129D01*
X186599848Y-76812111D01*
X186597428Y-76807547D01*
X186494376Y-76613170D01*
X186432215Y-76495922D01*
X186432213Y-76495919D01*
X186432211Y-76495915D01*
X186231365Y-76199689D01*
X186231361Y-76199684D01*
X186231358Y-76199680D01*
X185999668Y-75926914D01*
X185949355Y-75879255D01*
X185739837Y-75680789D01*
X185739830Y-75680783D01*
X185739827Y-75680781D01*
X185631828Y-75598683D01*
X185454919Y-75464200D01*
X185148253Y-75279685D01*
X185148252Y-75279684D01*
X185148248Y-75279682D01*
X185148244Y-75279680D01*
X184823447Y-75129414D01*
X184823441Y-75129411D01*
X184823435Y-75129409D01*
X184586340Y-75049522D01*
X184484273Y-75015131D01*
X184134744Y-74938194D01*
X183778949Y-74899500D01*
X183778948Y-74899500D01*
X183421052Y-74899500D01*
X183421050Y-74899500D01*
X183065255Y-74938194D01*
X182715726Y-75015131D01*
X182459970Y-75101306D01*
X182376565Y-75129409D01*
X182376563Y-75129410D01*
X182376552Y-75129414D01*
X182051755Y-75279680D01*
X182051751Y-75279682D01*
X181902588Y-75369431D01*
X181745081Y-75464200D01*
X181670697Y-75520745D01*
X181460172Y-75680781D01*
X181460163Y-75680789D01*
X181200331Y-75926914D01*
X180968641Y-76199680D01*
X180968634Y-76199690D01*
X180767790Y-76495913D01*
X180767784Y-76495922D01*
X180600151Y-76812111D01*
X180600142Y-76812129D01*
X180467674Y-77144600D01*
X180467672Y-77144607D01*
X180371932Y-77489434D01*
X180371926Y-77489460D01*
X180314029Y-77842614D01*
X180314028Y-77842631D01*
X180296332Y-78169023D01*
X180294652Y-78200000D01*
X146600000Y-78200000D01*
X146600000Y-76699996D01*
X163531935Y-76699996D01*
X163531935Y-76700003D01*
X163552130Y-76879249D01*
X163552131Y-76879254D01*
X163611711Y-77049523D01*
X163707684Y-77202262D01*
X163835238Y-77329816D01*
X163860199Y-77345500D01*
X163987866Y-77425719D01*
X163987978Y-77425789D01*
X164119087Y-77471666D01*
X164158245Y-77485368D01*
X164158250Y-77485369D01*
X164337496Y-77505565D01*
X164337500Y-77505565D01*
X164337504Y-77505565D01*
X164516749Y-77485369D01*
X164516752Y-77485368D01*
X164516755Y-77485368D01*
X164687022Y-77425789D01*
X164839762Y-77329816D01*
X164967316Y-77202262D01*
X165063289Y-77049522D01*
X165122868Y-76879255D01*
X165126724Y-76845036D01*
X165143065Y-76700003D01*
X165143065Y-76699996D01*
X165122869Y-76520750D01*
X165122868Y-76520745D01*
X165106780Y-76474768D01*
X165063289Y-76350478D01*
X165063117Y-76350205D01*
X164996560Y-76244280D01*
X164967316Y-76197738D01*
X164839762Y-76070184D01*
X164806879Y-76049522D01*
X164687023Y-75974211D01*
X164516754Y-75914631D01*
X164516749Y-75914630D01*
X164337504Y-75894435D01*
X164337496Y-75894435D01*
X164158250Y-75914630D01*
X164158245Y-75914631D01*
X163987976Y-75974211D01*
X163835237Y-76070184D01*
X163707684Y-76197737D01*
X163611711Y-76350476D01*
X163552131Y-76520745D01*
X163552130Y-76520750D01*
X163531935Y-76699996D01*
X146600000Y-76699996D01*
X146600000Y-75324000D01*
X146619685Y-75256961D01*
X146672489Y-75211206D01*
X146724000Y-75200000D01*
X166599999Y-75200000D01*
X166600000Y-75200000D01*
X166609929Y-74902135D01*
X167349500Y-74902135D01*
X167349500Y-76497870D01*
X167349501Y-76497876D01*
X167355908Y-76557483D01*
X167406202Y-76692328D01*
X167406206Y-76692335D01*
X167492452Y-76807544D01*
X167492455Y-76807547D01*
X167607664Y-76893793D01*
X167607671Y-76893797D01*
X167742517Y-76944091D01*
X167742516Y-76944091D01*
X167749444Y-76944835D01*
X167802127Y-76950500D01*
X169397872Y-76950499D01*
X169457483Y-76944091D01*
X169592331Y-76893796D01*
X169707546Y-76807546D01*
X169793796Y-76692331D01*
X169844091Y-76557483D01*
X169850500Y-76497873D01*
X169850499Y-74902128D01*
X169844091Y-74842517D01*
X169835030Y-74818224D01*
X169793797Y-74707671D01*
X169793793Y-74707664D01*
X169707547Y-74592455D01*
X169707544Y-74592452D01*
X169592335Y-74506206D01*
X169592328Y-74506202D01*
X169457482Y-74455908D01*
X169457483Y-74455908D01*
X169397883Y-74449501D01*
X169397881Y-74449500D01*
X169397873Y-74449500D01*
X169397864Y-74449500D01*
X167802129Y-74449500D01*
X167802123Y-74449501D01*
X167742516Y-74455908D01*
X167607671Y-74506202D01*
X167607664Y-74506206D01*
X167492455Y-74592452D01*
X167492452Y-74592455D01*
X167406206Y-74707664D01*
X167406202Y-74707671D01*
X167355908Y-74842517D01*
X167350327Y-74894435D01*
X167349501Y-74902123D01*
X167349500Y-74902135D01*
X166609929Y-74902135D01*
X166679321Y-72820368D01*
X166701228Y-72754023D01*
X166755527Y-72710052D01*
X166803252Y-72700500D01*
X183534108Y-72700500D01*
X183597439Y-72700500D01*
X183602562Y-72700605D01*
X184049036Y-72719072D01*
X184059209Y-72719915D01*
X184500114Y-72774873D01*
X184510194Y-72776555D01*
X184945042Y-72867733D01*
X184954950Y-72870242D01*
X185380786Y-72997019D01*
X185390454Y-73000338D01*
X185731430Y-73133388D01*
X185804339Y-73161838D01*
X185813724Y-73165954D01*
X186212869Y-73361083D01*
X186221877Y-73365958D01*
X186603544Y-73593383D01*
X186612123Y-73598989D01*
X186973693Y-73857144D01*
X186981770Y-73863431D01*
X187161130Y-74015341D01*
X187320796Y-74150571D01*
X187328336Y-74157512D01*
X187642487Y-74471663D01*
X187649428Y-74479203D01*
X187690483Y-74527676D01*
X187842924Y-74707664D01*
X187936564Y-74818224D01*
X187942859Y-74826312D01*
X188201010Y-75187876D01*
X188206616Y-75196455D01*
X188434041Y-75578122D01*
X188438919Y-75587136D01*
X188634045Y-75986275D01*
X188638161Y-75995660D01*
X188799656Y-76409533D01*
X188802984Y-76419226D01*
X188929753Y-76845036D01*
X188932269Y-76854971D01*
X189023441Y-77289791D01*
X189025128Y-77299900D01*
X189080082Y-77740769D01*
X189080928Y-77750983D01*
X189099394Y-78197437D01*
X189099500Y-78202561D01*
X189099500Y-96940385D01*
X189079815Y-97007424D01*
X189027011Y-97053179D01*
X188957853Y-97063123D01*
X188894297Y-97034098D01*
X188858459Y-96981340D01*
X188825790Y-96887980D01*
X188825789Y-96887978D01*
X188729816Y-96735238D01*
X188602262Y-96607684D01*
X188449523Y-96511711D01*
X188279254Y-96452131D01*
X188279249Y-96452130D01*
X188100004Y-96431935D01*
X188099996Y-96431935D01*
X187920750Y-96452130D01*
X187920745Y-96452131D01*
X187750476Y-96511711D01*
X187597737Y-96607684D01*
X187470184Y-96735237D01*
X187374211Y-96887976D01*
X187314631Y-97058245D01*
X187314630Y-97058250D01*
X187294435Y-97237496D01*
X187294435Y-97237503D01*
X187314630Y-97416749D01*
X187314631Y-97416754D01*
X187374211Y-97587023D01*
X187420066Y-97660000D01*
X187470184Y-97739762D01*
X187597738Y-97867316D01*
X187750478Y-97963289D01*
X187920745Y-98022868D01*
X187920750Y-98022869D01*
X188099996Y-98043065D01*
X188100000Y-98043065D01*
X188100004Y-98043065D01*
X188279249Y-98022869D01*
X188279252Y-98022868D01*
X188279255Y-98022868D01*
X188449522Y-97963289D01*
X188602262Y-97867316D01*
X188729816Y-97739762D01*
X188825789Y-97587022D01*
X188858458Y-97493660D01*
X188899180Y-97436883D01*
X188964133Y-97411136D01*
X189032694Y-97424592D01*
X189083097Y-97472979D01*
X189099500Y-97534614D01*
X189099500Y-128197438D01*
X189099394Y-128202562D01*
X189080928Y-128649016D01*
X189080082Y-128659230D01*
X189025128Y-129100099D01*
X189023441Y-129110208D01*
X188932269Y-129545028D01*
X188929753Y-129554963D01*
X188802984Y-129980773D01*
X188799656Y-129990466D01*
X188638161Y-130404339D01*
X188634045Y-130413724D01*
X188438919Y-130812863D01*
X188434041Y-130821877D01*
X188206616Y-131203544D01*
X188201010Y-131212123D01*
X187942859Y-131573687D01*
X187936564Y-131581775D01*
X187649428Y-131920796D01*
X187642487Y-131928336D01*
X187328336Y-132242487D01*
X187320796Y-132249428D01*
X186981775Y-132536564D01*
X186973687Y-132542859D01*
X186612123Y-132801010D01*
X186603544Y-132806616D01*
X186221877Y-133034041D01*
X186212863Y-133038919D01*
X185813724Y-133234045D01*
X185804339Y-133238161D01*
X185390466Y-133399656D01*
X185380773Y-133402984D01*
X184954963Y-133529753D01*
X184945028Y-133532269D01*
X184510208Y-133623441D01*
X184500099Y-133625128D01*
X184059230Y-133680082D01*
X184049016Y-133680928D01*
X183602563Y-133699394D01*
X183597439Y-133699500D01*
X104602561Y-133699500D01*
X104597437Y-133699394D01*
X104150983Y-133680928D01*
X104140769Y-133680082D01*
X103699900Y-133625128D01*
X103689791Y-133623441D01*
X103254971Y-133532269D01*
X103245036Y-133529753D01*
X102819226Y-133402984D01*
X102809533Y-133399656D01*
X102395660Y-133238161D01*
X102386275Y-133234045D01*
X101987136Y-133038919D01*
X101978122Y-133034041D01*
X101596455Y-132806616D01*
X101587876Y-132801010D01*
X101226312Y-132542859D01*
X101218224Y-132536564D01*
X100879203Y-132249428D01*
X100871663Y-132242487D01*
X100557512Y-131928336D01*
X100550571Y-131920796D01*
X100372438Y-131710475D01*
X100263431Y-131581770D01*
X100257140Y-131573687D01*
X99998989Y-131212123D01*
X99993383Y-131203544D01*
X99875413Y-131005565D01*
X99765955Y-130821872D01*
X99761080Y-130812863D01*
X99565954Y-130413724D01*
X99561838Y-130404339D01*
X99504605Y-130257664D01*
X99400338Y-129990454D01*
X99397019Y-129980786D01*
X99270242Y-129554950D01*
X99267733Y-129545042D01*
X99176555Y-129110194D01*
X99174873Y-129100114D01*
X99119915Y-128659209D01*
X99119072Y-128649036D01*
X99100606Y-128202562D01*
X99100553Y-128199997D01*
X101294652Y-128199997D01*
X101294652Y-128200002D01*
X101314028Y-128557368D01*
X101314029Y-128557385D01*
X101371926Y-128910539D01*
X101371932Y-128910565D01*
X101467672Y-129255392D01*
X101467674Y-129255399D01*
X101600142Y-129587870D01*
X101600151Y-129587888D01*
X101767784Y-129904077D01*
X101767787Y-129904082D01*
X101767789Y-129904085D01*
X101968426Y-130200003D01*
X101968634Y-130200309D01*
X101968641Y-130200319D01*
X102180727Y-130450005D01*
X102200332Y-130473086D01*
X102460163Y-130719211D01*
X102745081Y-130935800D01*
X103051747Y-131120315D01*
X103051749Y-131120316D01*
X103051751Y-131120317D01*
X103051755Y-131120319D01*
X103250188Y-131212123D01*
X103376565Y-131270591D01*
X103715726Y-131384868D01*
X104065254Y-131461805D01*
X104421052Y-131500500D01*
X104421058Y-131500500D01*
X104778942Y-131500500D01*
X104778948Y-131500500D01*
X105134746Y-131461805D01*
X105484274Y-131384868D01*
X105823435Y-131270591D01*
X106148253Y-131120315D01*
X106454919Y-130935800D01*
X106739837Y-130719211D01*
X106999668Y-130473086D01*
X107017464Y-130452135D01*
X109849500Y-130452135D01*
X109849500Y-132047870D01*
X109849501Y-132047876D01*
X109855908Y-132107483D01*
X109906202Y-132242328D01*
X109906206Y-132242335D01*
X109992452Y-132357544D01*
X109992455Y-132357547D01*
X110107664Y-132443793D01*
X110107671Y-132443797D01*
X110242517Y-132494091D01*
X110242516Y-132494091D01*
X110249444Y-132494835D01*
X110302127Y-132500500D01*
X111897872Y-132500499D01*
X111957483Y-132494091D01*
X112092331Y-132443796D01*
X112207546Y-132357546D01*
X112293796Y-132242331D01*
X112344091Y-132107483D01*
X112350500Y-132047873D01*
X112350499Y-130452128D01*
X112350270Y-130449994D01*
X128344357Y-130449994D01*
X128344357Y-130450005D01*
X128364890Y-130697812D01*
X128364892Y-130697824D01*
X128425936Y-130938881D01*
X128525826Y-131166606D01*
X128661833Y-131374782D01*
X128661836Y-131374785D01*
X128830256Y-131557738D01*
X129026491Y-131710474D01*
X129245190Y-131828828D01*
X129480386Y-131909571D01*
X129725665Y-131950500D01*
X129974335Y-131950500D01*
X130219614Y-131909571D01*
X130454810Y-131828828D01*
X130673509Y-131710474D01*
X130869744Y-131557738D01*
X131038164Y-131374785D01*
X131174173Y-131166607D01*
X131274063Y-130938881D01*
X131335108Y-130697821D01*
X131335109Y-130697812D01*
X131355643Y-130450005D01*
X131355643Y-130449994D01*
X134844357Y-130449994D01*
X134844357Y-130450005D01*
X134864890Y-130697812D01*
X134864892Y-130697824D01*
X134925936Y-130938881D01*
X135025826Y-131166606D01*
X135161833Y-131374782D01*
X135161836Y-131374785D01*
X135330256Y-131557738D01*
X135526491Y-131710474D01*
X135745190Y-131828828D01*
X135980386Y-131909571D01*
X136225665Y-131950500D01*
X136474335Y-131950500D01*
X136719614Y-131909571D01*
X136954810Y-131828828D01*
X137173509Y-131710474D01*
X137369744Y-131557738D01*
X137538164Y-131374785D01*
X137674173Y-131166607D01*
X137774063Y-130938881D01*
X137835108Y-130697821D01*
X137835109Y-130697812D01*
X137855643Y-130450005D01*
X137855643Y-130449994D01*
X139344357Y-130449994D01*
X139344357Y-130450005D01*
X139364890Y-130697812D01*
X139364892Y-130697824D01*
X139425936Y-130938881D01*
X139525826Y-131166606D01*
X139661833Y-131374782D01*
X139661836Y-131374785D01*
X139830256Y-131557738D01*
X140026491Y-131710474D01*
X140245190Y-131828828D01*
X140480386Y-131909571D01*
X140725665Y-131950500D01*
X140974335Y-131950500D01*
X141219614Y-131909571D01*
X141454810Y-131828828D01*
X141673509Y-131710474D01*
X141869744Y-131557738D01*
X142038164Y-131374785D01*
X142174173Y-131166607D01*
X142274063Y-130938881D01*
X142335108Y-130697821D01*
X142335109Y-130697812D01*
X142355643Y-130450005D01*
X142355643Y-130449994D01*
X145844357Y-130449994D01*
X145844357Y-130450005D01*
X145864890Y-130697812D01*
X145864892Y-130697824D01*
X145925936Y-130938881D01*
X146025826Y-131166606D01*
X146161833Y-131374782D01*
X146161836Y-131374785D01*
X146330256Y-131557738D01*
X146526491Y-131710474D01*
X146745190Y-131828828D01*
X146980386Y-131909571D01*
X147225665Y-131950500D01*
X147474335Y-131950500D01*
X147719614Y-131909571D01*
X147954810Y-131828828D01*
X148173509Y-131710474D01*
X148369744Y-131557738D01*
X148538164Y-131374785D01*
X148674173Y-131166607D01*
X148774063Y-130938881D01*
X148835108Y-130697821D01*
X148835109Y-130697812D01*
X148855643Y-130450005D01*
X148855643Y-130449994D01*
X148835109Y-130202187D01*
X148835107Y-130202175D01*
X148834555Y-130199996D01*
X174394435Y-130199996D01*
X174394435Y-130200003D01*
X174414630Y-130379249D01*
X174414631Y-130379254D01*
X174474211Y-130549523D01*
X174567388Y-130697812D01*
X174570184Y-130702262D01*
X174697738Y-130829816D01*
X174850478Y-130925789D01*
X174887893Y-130938881D01*
X175020745Y-130985368D01*
X175020750Y-130985369D01*
X175199996Y-131005565D01*
X175200000Y-131005565D01*
X175200004Y-131005565D01*
X175379249Y-130985369D01*
X175379252Y-130985368D01*
X175379255Y-130985368D01*
X175549522Y-130925789D01*
X175702262Y-130829816D01*
X175829816Y-130702262D01*
X175925789Y-130549522D01*
X175985368Y-130379255D01*
X175985369Y-130379249D01*
X176005565Y-130200003D01*
X176005565Y-130199996D01*
X175985369Y-130020750D01*
X175985368Y-130020745D01*
X175964504Y-129961118D01*
X175925789Y-129850478D01*
X175829816Y-129697738D01*
X175702262Y-129570184D01*
X175670214Y-129550047D01*
X175549523Y-129474211D01*
X175379254Y-129414631D01*
X175379249Y-129414630D01*
X175200004Y-129394435D01*
X175199996Y-129394435D01*
X175020750Y-129414630D01*
X175020745Y-129414631D01*
X174850476Y-129474211D01*
X174697737Y-129570184D01*
X174570184Y-129697737D01*
X174474211Y-129850476D01*
X174414631Y-130020745D01*
X174414630Y-130020750D01*
X174394435Y-130199996D01*
X148834555Y-130199996D01*
X148774063Y-129961118D01*
X148674173Y-129733393D01*
X148538166Y-129525217D01*
X148495849Y-129479249D01*
X148369744Y-129342262D01*
X148315441Y-129299996D01*
X162369435Y-129299996D01*
X162369435Y-129300003D01*
X162389630Y-129479249D01*
X162389631Y-129479254D01*
X162449211Y-129649523D01*
X162545184Y-129802262D01*
X162672738Y-129929816D01*
X162753836Y-129980773D01*
X162817450Y-130020745D01*
X162825478Y-130025789D01*
X162912399Y-130056204D01*
X162995745Y-130085368D01*
X162995750Y-130085369D01*
X163174996Y-130105565D01*
X163175000Y-130105565D01*
X163175004Y-130105565D01*
X163354249Y-130085369D01*
X163354252Y-130085368D01*
X163354255Y-130085368D01*
X163524522Y-130025789D01*
X163677262Y-129929816D01*
X163804816Y-129802262D01*
X163900789Y-129649522D01*
X163960368Y-129479255D01*
X163960369Y-129479249D01*
X163980565Y-129300003D01*
X163980565Y-129299996D01*
X163960369Y-129120750D01*
X163960368Y-129120745D01*
X163900788Y-128950476D01*
X163804815Y-128797737D01*
X163677262Y-128670184D01*
X163524523Y-128574211D01*
X163354254Y-128514631D01*
X163354249Y-128514630D01*
X163175004Y-128494435D01*
X163174996Y-128494435D01*
X162995750Y-128514630D01*
X162995745Y-128514631D01*
X162825476Y-128574211D01*
X162672737Y-128670184D01*
X162545184Y-128797737D01*
X162449211Y-128950476D01*
X162389631Y-129120745D01*
X162389630Y-129120750D01*
X162369435Y-129299996D01*
X148315441Y-129299996D01*
X148173509Y-129189526D01*
X148173507Y-129189525D01*
X148173506Y-129189524D01*
X147954811Y-129071172D01*
X147954802Y-129071169D01*
X147719616Y-128990429D01*
X147474335Y-128949500D01*
X147225665Y-128949500D01*
X146980383Y-128990429D01*
X146745197Y-129071169D01*
X146745188Y-129071172D01*
X146526493Y-129189524D01*
X146330257Y-129342261D01*
X146161833Y-129525217D01*
X146025826Y-129733393D01*
X145925936Y-129961118D01*
X145864892Y-130202175D01*
X145864890Y-130202187D01*
X145844357Y-130449994D01*
X142355643Y-130449994D01*
X142335109Y-130202187D01*
X142335107Y-130202175D01*
X142274063Y-129961118D01*
X142174173Y-129733393D01*
X142038166Y-129525217D01*
X141995849Y-129479249D01*
X141869744Y-129342262D01*
X141673509Y-129189526D01*
X141673507Y-129189525D01*
X141673506Y-129189524D01*
X141454811Y-129071172D01*
X141454802Y-129071169D01*
X141219616Y-128990429D01*
X140974335Y-128949500D01*
X140725665Y-128949500D01*
X140480383Y-128990429D01*
X140245197Y-129071169D01*
X140245188Y-129071172D01*
X140026493Y-129189524D01*
X139830257Y-129342261D01*
X139661833Y-129525217D01*
X139525826Y-129733393D01*
X139425936Y-129961118D01*
X139364892Y-130202175D01*
X139364890Y-130202187D01*
X139344357Y-130449994D01*
X137855643Y-130449994D01*
X137835109Y-130202187D01*
X137835107Y-130202175D01*
X137774063Y-129961118D01*
X137674173Y-129733393D01*
X137538166Y-129525217D01*
X137495849Y-129479249D01*
X137369744Y-129342262D01*
X137173509Y-129189526D01*
X137173507Y-129189525D01*
X137173506Y-129189524D01*
X136954811Y-129071172D01*
X136954802Y-129071169D01*
X136719616Y-128990429D01*
X136474335Y-128949500D01*
X136225665Y-128949500D01*
X135980383Y-128990429D01*
X135745197Y-129071169D01*
X135745188Y-129071172D01*
X135526493Y-129189524D01*
X135330257Y-129342261D01*
X135161833Y-129525217D01*
X135025826Y-129733393D01*
X134925936Y-129961118D01*
X134864892Y-130202175D01*
X134864890Y-130202187D01*
X134844357Y-130449994D01*
X131355643Y-130449994D01*
X131335109Y-130202187D01*
X131335107Y-130202175D01*
X131274063Y-129961118D01*
X131174173Y-129733393D01*
X131038166Y-129525217D01*
X130995849Y-129479249D01*
X130869744Y-129342262D01*
X130673509Y-129189526D01*
X130673507Y-129189525D01*
X130673506Y-129189524D01*
X130454811Y-129071172D01*
X130454802Y-129071169D01*
X130219616Y-128990429D01*
X129974335Y-128949500D01*
X129725665Y-128949500D01*
X129480383Y-128990429D01*
X129245197Y-129071169D01*
X129245188Y-129071172D01*
X129026493Y-129189524D01*
X128830257Y-129342261D01*
X128661833Y-129525217D01*
X128525826Y-129733393D01*
X128425936Y-129961118D01*
X128364892Y-130202175D01*
X128364890Y-130202187D01*
X128344357Y-130449994D01*
X112350270Y-130449994D01*
X112344091Y-130392517D01*
X112339144Y-130379254D01*
X112293797Y-130257671D01*
X112293793Y-130257664D01*
X112207547Y-130142455D01*
X112207544Y-130142452D01*
X112092335Y-130056206D01*
X112092328Y-130056202D01*
X111957482Y-130005908D01*
X111957483Y-130005908D01*
X111897883Y-129999501D01*
X111897881Y-129999500D01*
X111897873Y-129999500D01*
X111897864Y-129999500D01*
X110302129Y-129999500D01*
X110302123Y-129999501D01*
X110242516Y-130005908D01*
X110107671Y-130056202D01*
X110107664Y-130056206D01*
X109992455Y-130142452D01*
X109992452Y-130142455D01*
X109906206Y-130257664D01*
X109906202Y-130257671D01*
X109855908Y-130392517D01*
X109849728Y-130450005D01*
X109849501Y-130452123D01*
X109849500Y-130452135D01*
X107017464Y-130452135D01*
X107231365Y-130200311D01*
X107432211Y-129904085D01*
X107599853Y-129587880D01*
X107732324Y-129255403D01*
X107828071Y-128910552D01*
X107870948Y-128649016D01*
X107885970Y-128557385D01*
X107885970Y-128557382D01*
X107885972Y-128557371D01*
X107905348Y-128200000D01*
X107905348Y-128199997D01*
X180294652Y-128199997D01*
X180294652Y-128200002D01*
X180314028Y-128557368D01*
X180314029Y-128557385D01*
X180371926Y-128910539D01*
X180371932Y-128910565D01*
X180467672Y-129255392D01*
X180467674Y-129255399D01*
X180600142Y-129587870D01*
X180600151Y-129587888D01*
X180767784Y-129904077D01*
X180767787Y-129904082D01*
X180767789Y-129904085D01*
X180968426Y-130200003D01*
X180968634Y-130200309D01*
X180968641Y-130200319D01*
X181180727Y-130450005D01*
X181200332Y-130473086D01*
X181460163Y-130719211D01*
X181745081Y-130935800D01*
X182051747Y-131120315D01*
X182051749Y-131120316D01*
X182051751Y-131120317D01*
X182051755Y-131120319D01*
X182250188Y-131212123D01*
X182376565Y-131270591D01*
X182715726Y-131384868D01*
X183065254Y-131461805D01*
X183421052Y-131500500D01*
X183421058Y-131500500D01*
X183778942Y-131500500D01*
X183778948Y-131500500D01*
X184134746Y-131461805D01*
X184484274Y-131384868D01*
X184823435Y-131270591D01*
X185148253Y-131120315D01*
X185454919Y-130935800D01*
X185739837Y-130719211D01*
X185999668Y-130473086D01*
X186231365Y-130200311D01*
X186432211Y-129904085D01*
X186599853Y-129587880D01*
X186732324Y-129255403D01*
X186828071Y-128910552D01*
X186870948Y-128649016D01*
X186885970Y-128557385D01*
X186885970Y-128557382D01*
X186885972Y-128557371D01*
X186905348Y-128200000D01*
X186885972Y-127842629D01*
X186880220Y-127807546D01*
X186828073Y-127489460D01*
X186828072Y-127489459D01*
X186828071Y-127489448D01*
X186732324Y-127144597D01*
X186599853Y-126812120D01*
X186432211Y-126495915D01*
X186231365Y-126199689D01*
X186231361Y-126199684D01*
X186231358Y-126199680D01*
X185999668Y-125926914D01*
X185910570Y-125842516D01*
X185739837Y-125680789D01*
X185739830Y-125680783D01*
X185739827Y-125680781D01*
X185672245Y-125629407D01*
X185454919Y-125464200D01*
X185148253Y-125279685D01*
X185148252Y-125279684D01*
X185148248Y-125279682D01*
X185148244Y-125279680D01*
X184823447Y-125129414D01*
X184823441Y-125129411D01*
X184823435Y-125129409D01*
X184653854Y-125072270D01*
X184484273Y-125015131D01*
X184134744Y-124938194D01*
X183778949Y-124899500D01*
X183778948Y-124899500D01*
X183421052Y-124899500D01*
X183421050Y-124899500D01*
X183065255Y-124938194D01*
X182715726Y-125015131D01*
X182459970Y-125101306D01*
X182376565Y-125129409D01*
X182376563Y-125129410D01*
X182376552Y-125129414D01*
X182051755Y-125279680D01*
X182051751Y-125279682D01*
X181823367Y-125417096D01*
X181745081Y-125464200D01*
X181689826Y-125506204D01*
X181460172Y-125680781D01*
X181460163Y-125680789D01*
X181200331Y-125926914D01*
X180968641Y-126199680D01*
X180968634Y-126199690D01*
X180767790Y-126495913D01*
X180767784Y-126495922D01*
X180600151Y-126812111D01*
X180600142Y-126812129D01*
X180467674Y-127144600D01*
X180467672Y-127144607D01*
X180371932Y-127489434D01*
X180371926Y-127489460D01*
X180314029Y-127842614D01*
X180314028Y-127842627D01*
X180314028Y-127842629D01*
X180308179Y-127950500D01*
X180294652Y-128199997D01*
X107905348Y-128199997D01*
X107885972Y-127842629D01*
X107880220Y-127807546D01*
X107828073Y-127489460D01*
X107828072Y-127489459D01*
X107828071Y-127489448D01*
X107732324Y-127144597D01*
X107599853Y-126812120D01*
X107432211Y-126495915D01*
X107231365Y-126199689D01*
X107231361Y-126199684D01*
X107231358Y-126199680D01*
X106999668Y-125926914D01*
X106973509Y-125902135D01*
X109849500Y-125902135D01*
X109849500Y-127497870D01*
X109849501Y-127497876D01*
X109855908Y-127557483D01*
X109906202Y-127692328D01*
X109906206Y-127692335D01*
X109992452Y-127807544D01*
X109992455Y-127807547D01*
X110107664Y-127893793D01*
X110107671Y-127893797D01*
X110242517Y-127944091D01*
X110242516Y-127944091D01*
X110249444Y-127944835D01*
X110302127Y-127950500D01*
X111897872Y-127950499D01*
X111957483Y-127944091D01*
X112092331Y-127893796D01*
X112207546Y-127807546D01*
X112293796Y-127692331D01*
X112344091Y-127557483D01*
X112350500Y-127497873D01*
X112350499Y-125902128D01*
X112344091Y-125842517D01*
X112339353Y-125829815D01*
X112293797Y-125707671D01*
X112293793Y-125707664D01*
X112207547Y-125592455D01*
X112207544Y-125592452D01*
X112092335Y-125506206D01*
X112092328Y-125506202D01*
X111957482Y-125455908D01*
X111957483Y-125455908D01*
X111897883Y-125449501D01*
X111897881Y-125449500D01*
X111897873Y-125449500D01*
X111897864Y-125449500D01*
X110302129Y-125449500D01*
X110302123Y-125449501D01*
X110242516Y-125455908D01*
X110107671Y-125506202D01*
X110107664Y-125506206D01*
X109992455Y-125592452D01*
X109992452Y-125592455D01*
X109906206Y-125707664D01*
X109906202Y-125707671D01*
X109855908Y-125842517D01*
X109849501Y-125902116D01*
X109849501Y-125902123D01*
X109849500Y-125902135D01*
X106973509Y-125902135D01*
X106910570Y-125842516D01*
X106739837Y-125680789D01*
X106739830Y-125680783D01*
X106739827Y-125680781D01*
X106672245Y-125629407D01*
X106454919Y-125464200D01*
X106148253Y-125279685D01*
X106148252Y-125279684D01*
X106148248Y-125279682D01*
X106148244Y-125279680D01*
X105976009Y-125199996D01*
X114794435Y-125199996D01*
X114794435Y-125200003D01*
X114814630Y-125379249D01*
X114814631Y-125379254D01*
X114874211Y-125549523D01*
X114956692Y-125680789D01*
X114970184Y-125702262D01*
X115097738Y-125829816D01*
X115250478Y-125925789D01*
X115420745Y-125985368D01*
X115420750Y-125985369D01*
X115599996Y-126005565D01*
X115600000Y-126005565D01*
X115600004Y-126005565D01*
X115779249Y-125985369D01*
X115779252Y-125985368D01*
X115779255Y-125985368D01*
X115880348Y-125949994D01*
X128344357Y-125949994D01*
X128344357Y-125950005D01*
X128364890Y-126197812D01*
X128364892Y-126197824D01*
X128425936Y-126438881D01*
X128525826Y-126666606D01*
X128661833Y-126874782D01*
X128661836Y-126874785D01*
X128830256Y-127057738D01*
X129026491Y-127210474D01*
X129245190Y-127328828D01*
X129480386Y-127409571D01*
X129725665Y-127450500D01*
X129974335Y-127450500D01*
X130219614Y-127409571D01*
X130454810Y-127328828D01*
X130673509Y-127210474D01*
X130869744Y-127057738D01*
X131038164Y-126874785D01*
X131174173Y-126666607D01*
X131274063Y-126438881D01*
X131335108Y-126197821D01*
X131351039Y-126005565D01*
X131355643Y-125950005D01*
X131355643Y-125949994D01*
X134844357Y-125949994D01*
X134844357Y-125950005D01*
X134864890Y-126197812D01*
X134864892Y-126197824D01*
X134925936Y-126438881D01*
X135025826Y-126666606D01*
X135161833Y-126874782D01*
X135161836Y-126874785D01*
X135330256Y-127057738D01*
X135526491Y-127210474D01*
X135745190Y-127328828D01*
X135980386Y-127409571D01*
X136225665Y-127450500D01*
X136474335Y-127450500D01*
X136719614Y-127409571D01*
X136954810Y-127328828D01*
X137173509Y-127210474D01*
X137369744Y-127057738D01*
X137538164Y-126874785D01*
X137674173Y-126666607D01*
X137774063Y-126438881D01*
X137835108Y-126197821D01*
X137851039Y-126005565D01*
X137855643Y-125950005D01*
X137855643Y-125949994D01*
X139344357Y-125949994D01*
X139344357Y-125950005D01*
X139364890Y-126197812D01*
X139364892Y-126197824D01*
X139425936Y-126438881D01*
X139525826Y-126666606D01*
X139661833Y-126874782D01*
X139661836Y-126874785D01*
X139830256Y-127057738D01*
X140026491Y-127210474D01*
X140245190Y-127328828D01*
X140480386Y-127409571D01*
X140725665Y-127450500D01*
X140974335Y-127450500D01*
X141219614Y-127409571D01*
X141454810Y-127328828D01*
X141673509Y-127210474D01*
X141869744Y-127057738D01*
X142038164Y-126874785D01*
X142174173Y-126666607D01*
X142274063Y-126438881D01*
X142335108Y-126197821D01*
X142351039Y-126005565D01*
X142355643Y-125950005D01*
X142355643Y-125949994D01*
X145844357Y-125949994D01*
X145844357Y-125950005D01*
X145864890Y-126197812D01*
X145864892Y-126197824D01*
X145925936Y-126438881D01*
X146025826Y-126666606D01*
X146161833Y-126874782D01*
X146161836Y-126874785D01*
X146330256Y-127057738D01*
X146526491Y-127210474D01*
X146745190Y-127328828D01*
X146980386Y-127409571D01*
X147225665Y-127450500D01*
X147474335Y-127450500D01*
X147719614Y-127409571D01*
X147954810Y-127328828D01*
X148173509Y-127210474D01*
X148369744Y-127057738D01*
X148538164Y-126874785D01*
X148674173Y-126666607D01*
X148774063Y-126438881D01*
X148835108Y-126197821D01*
X148851039Y-126005565D01*
X148855643Y-125950005D01*
X148855643Y-125949994D01*
X148835109Y-125702187D01*
X148835107Y-125702175D01*
X148774063Y-125461118D01*
X148674173Y-125233393D01*
X148652355Y-125199998D01*
X153494532Y-125199998D01*
X153494532Y-125200001D01*
X153514364Y-125426686D01*
X153514366Y-125426697D01*
X153573258Y-125646488D01*
X153573261Y-125646497D01*
X153669431Y-125852732D01*
X153669432Y-125852734D01*
X153799954Y-126039141D01*
X153960858Y-126200045D01*
X153960861Y-126200047D01*
X154147266Y-126330568D01*
X154353504Y-126426739D01*
X154573308Y-126485635D01*
X154735230Y-126499801D01*
X154799998Y-126505468D01*
X154800000Y-126505468D01*
X154800002Y-126505468D01*
X154856673Y-126500509D01*
X155026692Y-126485635D01*
X155246496Y-126426739D01*
X155452734Y-126330568D01*
X155639139Y-126200047D01*
X155800047Y-126039139D01*
X155930568Y-125852734D01*
X156026739Y-125646496D01*
X156085635Y-125426692D01*
X156105468Y-125200000D01*
X156085635Y-124973308D01*
X156026739Y-124753504D01*
X155930568Y-124547266D01*
X155930567Y-124547264D01*
X155921589Y-124534442D01*
X155899262Y-124468235D01*
X155916273Y-124400468D01*
X155948855Y-124364051D01*
X155957546Y-124357546D01*
X156043796Y-124242331D01*
X156094091Y-124107483D01*
X156100500Y-124047873D01*
X156100499Y-122352128D01*
X156094091Y-122292517D01*
X156043796Y-122157669D01*
X156043795Y-122157668D01*
X156043793Y-122157664D01*
X155957547Y-122042455D01*
X155957544Y-122042452D01*
X155842335Y-121956206D01*
X155842328Y-121956202D01*
X155707482Y-121905908D01*
X155707483Y-121905908D01*
X155647883Y-121899501D01*
X155647881Y-121899500D01*
X155647873Y-121899500D01*
X155647864Y-121899500D01*
X153952129Y-121899500D01*
X153952123Y-121899501D01*
X153892516Y-121905908D01*
X153757671Y-121956202D01*
X153757664Y-121956206D01*
X153642455Y-122042452D01*
X153642452Y-122042455D01*
X153556206Y-122157664D01*
X153556202Y-122157671D01*
X153505908Y-122292517D01*
X153499501Y-122352116D01*
X153499501Y-122352123D01*
X153499500Y-122352135D01*
X153499500Y-124047870D01*
X153499501Y-124047876D01*
X153505908Y-124107483D01*
X153556202Y-124242328D01*
X153556206Y-124242335D01*
X153642452Y-124357544D01*
X153642453Y-124357545D01*
X153642454Y-124357546D01*
X153651142Y-124364050D01*
X153651145Y-124364052D01*
X153693017Y-124419985D01*
X153698001Y-124489677D01*
X153678415Y-124534435D01*
X153669434Y-124547262D01*
X153669431Y-124547267D01*
X153573261Y-124753502D01*
X153573258Y-124753511D01*
X153514366Y-124973302D01*
X153514364Y-124973313D01*
X153494532Y-125199998D01*
X148652355Y-125199998D01*
X148538166Y-125025217D01*
X148458056Y-124938195D01*
X148369744Y-124842262D01*
X148173509Y-124689526D01*
X148173507Y-124689525D01*
X148173506Y-124689524D01*
X147954811Y-124571172D01*
X147954802Y-124571169D01*
X147719616Y-124490429D01*
X147474335Y-124449500D01*
X147225665Y-124449500D01*
X146980383Y-124490429D01*
X146745197Y-124571169D01*
X146745188Y-124571172D01*
X146526493Y-124689524D01*
X146344421Y-124831237D01*
X146330256Y-124842262D01*
X146322693Y-124850478D01*
X146161833Y-125025217D01*
X146025826Y-125233393D01*
X145925936Y-125461118D01*
X145864892Y-125702175D01*
X145864890Y-125702187D01*
X145844357Y-125949994D01*
X142355643Y-125949994D01*
X142335109Y-125702187D01*
X142335107Y-125702175D01*
X142274063Y-125461118D01*
X142174173Y-125233393D01*
X142038166Y-125025217D01*
X141958056Y-124938195D01*
X141869744Y-124842262D01*
X141673509Y-124689526D01*
X141673507Y-124689525D01*
X141673506Y-124689524D01*
X141454811Y-124571172D01*
X141454802Y-124571169D01*
X141219616Y-124490429D01*
X140974335Y-124449500D01*
X140725665Y-124449500D01*
X140480383Y-124490429D01*
X140245197Y-124571169D01*
X140245188Y-124571172D01*
X140026493Y-124689524D01*
X139844421Y-124831237D01*
X139830256Y-124842262D01*
X139822693Y-124850478D01*
X139661833Y-125025217D01*
X139525826Y-125233393D01*
X139425936Y-125461118D01*
X139364892Y-125702175D01*
X139364890Y-125702187D01*
X139344357Y-125949994D01*
X137855643Y-125949994D01*
X137835109Y-125702187D01*
X137835107Y-125702175D01*
X137774063Y-125461118D01*
X137674173Y-125233393D01*
X137538166Y-125025217D01*
X137458056Y-124938195D01*
X137369744Y-124842262D01*
X137173509Y-124689526D01*
X137173507Y-124689525D01*
X137173506Y-124689524D01*
X136954811Y-124571172D01*
X136954802Y-124571169D01*
X136719616Y-124490429D01*
X136474335Y-124449500D01*
X136225665Y-124449500D01*
X135980383Y-124490429D01*
X135745197Y-124571169D01*
X135745188Y-124571172D01*
X135526493Y-124689524D01*
X135344421Y-124831237D01*
X135330256Y-124842262D01*
X135322693Y-124850478D01*
X135161833Y-125025217D01*
X135025826Y-125233393D01*
X134925936Y-125461118D01*
X134864892Y-125702175D01*
X134864890Y-125702187D01*
X134844357Y-125949994D01*
X131355643Y-125949994D01*
X131335109Y-125702187D01*
X131335107Y-125702175D01*
X131274063Y-125461118D01*
X131174173Y-125233393D01*
X131038166Y-125025217D01*
X130958056Y-124938195D01*
X130869744Y-124842262D01*
X130673509Y-124689526D01*
X130673507Y-124689525D01*
X130673506Y-124689524D01*
X130454811Y-124571172D01*
X130454802Y-124571169D01*
X130219616Y-124490429D01*
X129974335Y-124449500D01*
X129725665Y-124449500D01*
X129480383Y-124490429D01*
X129245197Y-124571169D01*
X129245188Y-124571172D01*
X129026493Y-124689524D01*
X128844421Y-124831237D01*
X128830256Y-124842262D01*
X128822693Y-124850478D01*
X128661833Y-125025217D01*
X128525826Y-125233393D01*
X128425936Y-125461118D01*
X128364892Y-125702175D01*
X128364890Y-125702187D01*
X128344357Y-125949994D01*
X115880348Y-125949994D01*
X115949522Y-125925789D01*
X116102262Y-125829816D01*
X116229816Y-125702262D01*
X116325789Y-125549522D01*
X116385368Y-125379255D01*
X116396587Y-125279682D01*
X116405565Y-125200003D01*
X116405565Y-125199996D01*
X116385369Y-125020750D01*
X116385368Y-125020745D01*
X116368767Y-124973302D01*
X116325789Y-124850478D01*
X116229816Y-124697738D01*
X116102262Y-124570184D01*
X116045368Y-124534435D01*
X115949523Y-124474211D01*
X115779254Y-124414631D01*
X115779249Y-124414630D01*
X115600004Y-124394435D01*
X115599996Y-124394435D01*
X115420750Y-124414630D01*
X115420745Y-124414631D01*
X115250476Y-124474211D01*
X115097737Y-124570184D01*
X114970184Y-124697737D01*
X114874211Y-124850476D01*
X114814631Y-125020745D01*
X114814630Y-125020750D01*
X114794435Y-125199996D01*
X105976009Y-125199996D01*
X105823447Y-125129414D01*
X105823441Y-125129411D01*
X105823435Y-125129409D01*
X105653854Y-125072270D01*
X105484273Y-125015131D01*
X105134744Y-124938194D01*
X104778949Y-124899500D01*
X104778948Y-124899500D01*
X104421052Y-124899500D01*
X104421050Y-124899500D01*
X104065255Y-124938194D01*
X103715726Y-125015131D01*
X103459970Y-125101306D01*
X103376565Y-125129409D01*
X103376563Y-125129410D01*
X103376552Y-125129414D01*
X103051755Y-125279680D01*
X103051751Y-125279682D01*
X102823367Y-125417096D01*
X102745081Y-125464200D01*
X102689826Y-125506204D01*
X102460172Y-125680781D01*
X102460163Y-125680789D01*
X102200331Y-125926914D01*
X101968641Y-126199680D01*
X101968634Y-126199690D01*
X101767790Y-126495913D01*
X101767784Y-126495922D01*
X101600151Y-126812111D01*
X101600142Y-126812129D01*
X101467674Y-127144600D01*
X101467672Y-127144607D01*
X101371932Y-127489434D01*
X101371926Y-127489460D01*
X101314029Y-127842614D01*
X101314028Y-127842627D01*
X101314028Y-127842629D01*
X101308179Y-127950500D01*
X101294652Y-128199997D01*
X99100553Y-128199997D01*
X99100500Y-128197438D01*
X99100500Y-124199996D01*
X117794435Y-124199996D01*
X117794435Y-124200003D01*
X117814630Y-124379249D01*
X117814631Y-124379254D01*
X117874211Y-124549523D01*
X117962180Y-124689524D01*
X117970184Y-124702262D01*
X118097738Y-124829816D01*
X118250478Y-124925789D01*
X118386280Y-124973308D01*
X118420745Y-124985368D01*
X118420750Y-124985369D01*
X118599996Y-125005565D01*
X118600000Y-125005565D01*
X118600004Y-125005565D01*
X118779249Y-124985369D01*
X118779252Y-124985368D01*
X118779255Y-124985368D01*
X118949522Y-124925789D01*
X119034027Y-124872691D01*
X119101264Y-124853690D01*
X119165973Y-124872691D01*
X119250475Y-124925788D01*
X119420745Y-124985368D01*
X119420750Y-124985369D01*
X119599996Y-125005565D01*
X119600000Y-125005565D01*
X119600004Y-125005565D01*
X119779249Y-124985369D01*
X119779252Y-124985368D01*
X119779255Y-124985368D01*
X119949522Y-124925789D01*
X120102262Y-124829816D01*
X120229816Y-124702262D01*
X120325789Y-124549522D01*
X120385368Y-124379255D01*
X120387081Y-124364052D01*
X120405565Y-124200003D01*
X120405565Y-124199996D01*
X120385369Y-124020750D01*
X120385368Y-124020745D01*
X120325788Y-123850476D01*
X120229815Y-123697737D01*
X120102262Y-123570184D01*
X119949523Y-123474211D01*
X119779254Y-123414631D01*
X119779249Y-123414630D01*
X119600004Y-123394435D01*
X119599996Y-123394435D01*
X119420750Y-123414630D01*
X119420737Y-123414633D01*
X119250479Y-123474209D01*
X119165971Y-123527309D01*
X119098734Y-123546309D01*
X119034029Y-123527309D01*
X118949520Y-123474209D01*
X118779262Y-123414633D01*
X118779249Y-123414630D01*
X118600004Y-123394435D01*
X118599996Y-123394435D01*
X118420750Y-123414630D01*
X118420745Y-123414631D01*
X118250476Y-123474211D01*
X118097737Y-123570184D01*
X117970184Y-123697737D01*
X117874211Y-123850476D01*
X117814631Y-124020745D01*
X117814630Y-124020750D01*
X117794435Y-124199996D01*
X99100500Y-124199996D01*
X99100500Y-119902135D01*
X109849500Y-119902135D01*
X109849500Y-121497870D01*
X109849501Y-121497876D01*
X109855908Y-121557483D01*
X109906202Y-121692328D01*
X109906206Y-121692335D01*
X109992452Y-121807544D01*
X109992455Y-121807547D01*
X110107664Y-121893793D01*
X110107671Y-121893797D01*
X110242517Y-121944091D01*
X110242516Y-121944091D01*
X110249444Y-121944835D01*
X110302127Y-121950500D01*
X111897872Y-121950499D01*
X111957483Y-121944091D01*
X112092331Y-121893796D01*
X112207546Y-121807546D01*
X112293796Y-121692331D01*
X112344091Y-121557483D01*
X112350500Y-121497873D01*
X112350499Y-119902135D01*
X113349500Y-119902135D01*
X113349500Y-121497870D01*
X113349501Y-121497876D01*
X113355908Y-121557483D01*
X113406202Y-121692328D01*
X113406206Y-121692335D01*
X113492452Y-121807544D01*
X113492455Y-121807547D01*
X113607664Y-121893793D01*
X113607671Y-121893797D01*
X113742517Y-121944091D01*
X113742516Y-121944091D01*
X113749444Y-121944835D01*
X113802127Y-121950500D01*
X115397872Y-121950499D01*
X115457483Y-121944091D01*
X115592331Y-121893796D01*
X115707546Y-121807546D01*
X115793796Y-121692331D01*
X115844091Y-121557483D01*
X115850500Y-121497873D01*
X115850499Y-119902135D01*
X116849500Y-119902135D01*
X116849500Y-121497870D01*
X116849501Y-121497876D01*
X116855908Y-121557483D01*
X116906202Y-121692328D01*
X116906206Y-121692335D01*
X116992452Y-121807544D01*
X116992455Y-121807547D01*
X117107664Y-121893793D01*
X117107671Y-121893797D01*
X117242517Y-121944091D01*
X117242516Y-121944091D01*
X117249444Y-121944835D01*
X117302127Y-121950500D01*
X118897872Y-121950499D01*
X118957483Y-121944091D01*
X119092331Y-121893796D01*
X119207546Y-121807546D01*
X119293796Y-121692331D01*
X119344091Y-121557483D01*
X119350500Y-121497873D01*
X119350499Y-119902135D01*
X120349500Y-119902135D01*
X120349500Y-121497870D01*
X120349501Y-121497876D01*
X120355908Y-121557483D01*
X120406202Y-121692328D01*
X120406206Y-121692335D01*
X120492452Y-121807544D01*
X120492455Y-121807547D01*
X120607664Y-121893793D01*
X120607671Y-121893797D01*
X120742517Y-121944091D01*
X120742516Y-121944091D01*
X120749444Y-121944835D01*
X120802127Y-121950500D01*
X122397872Y-121950499D01*
X122457483Y-121944091D01*
X122592331Y-121893796D01*
X122707546Y-121807546D01*
X122793796Y-121692331D01*
X122844091Y-121557483D01*
X122850500Y-121497873D01*
X122850499Y-119902128D01*
X122844091Y-119842517D01*
X122839353Y-119829815D01*
X122793797Y-119707671D01*
X122793793Y-119707664D01*
X122707547Y-119592455D01*
X122707544Y-119592452D01*
X122592335Y-119506206D01*
X122592328Y-119506202D01*
X122457482Y-119455908D01*
X122457483Y-119455908D01*
X122397883Y-119449501D01*
X122397881Y-119449500D01*
X122397873Y-119449500D01*
X122397864Y-119449500D01*
X120802129Y-119449500D01*
X120802123Y-119449501D01*
X120742516Y-119455908D01*
X120607671Y-119506202D01*
X120607664Y-119506206D01*
X120492455Y-119592452D01*
X120492452Y-119592455D01*
X120406206Y-119707664D01*
X120406202Y-119707671D01*
X120355908Y-119842517D01*
X120349501Y-119902116D01*
X120349501Y-119902123D01*
X120349500Y-119902135D01*
X119350499Y-119902135D01*
X119350499Y-119902128D01*
X119344091Y-119842517D01*
X119339353Y-119829815D01*
X119293797Y-119707671D01*
X119293793Y-119707664D01*
X119207547Y-119592455D01*
X119207544Y-119592452D01*
X119092335Y-119506206D01*
X119092328Y-119506202D01*
X118957482Y-119455908D01*
X118957483Y-119455908D01*
X118897883Y-119449501D01*
X118897881Y-119449500D01*
X118897873Y-119449500D01*
X118897864Y-119449500D01*
X117302129Y-119449500D01*
X117302123Y-119449501D01*
X117242516Y-119455908D01*
X117107671Y-119506202D01*
X117107664Y-119506206D01*
X116992455Y-119592452D01*
X116992452Y-119592455D01*
X116906206Y-119707664D01*
X116906202Y-119707671D01*
X116855908Y-119842517D01*
X116849501Y-119902116D01*
X116849501Y-119902123D01*
X116849500Y-119902135D01*
X115850499Y-119902135D01*
X115850499Y-119902128D01*
X115844091Y-119842517D01*
X115839353Y-119829815D01*
X115793797Y-119707671D01*
X115793793Y-119707664D01*
X115707547Y-119592455D01*
X115707544Y-119592452D01*
X115592335Y-119506206D01*
X115592328Y-119506202D01*
X115457482Y-119455908D01*
X115457483Y-119455908D01*
X115397883Y-119449501D01*
X115397881Y-119449500D01*
X115397873Y-119449500D01*
X115397864Y-119449500D01*
X113802129Y-119449500D01*
X113802123Y-119449501D01*
X113742516Y-119455908D01*
X113607671Y-119506202D01*
X113607664Y-119506206D01*
X113492455Y-119592452D01*
X113492452Y-119592455D01*
X113406206Y-119707664D01*
X113406202Y-119707671D01*
X113355908Y-119842517D01*
X113349501Y-119902116D01*
X113349501Y-119902123D01*
X113349500Y-119902135D01*
X112350499Y-119902135D01*
X112350499Y-119902128D01*
X112344091Y-119842517D01*
X112339353Y-119829815D01*
X112293797Y-119707671D01*
X112293793Y-119707664D01*
X112207547Y-119592455D01*
X112207544Y-119592452D01*
X112092335Y-119506206D01*
X112092328Y-119506202D01*
X111957482Y-119455908D01*
X111957483Y-119455908D01*
X111897883Y-119449501D01*
X111897881Y-119449500D01*
X111897873Y-119449500D01*
X111897864Y-119449500D01*
X110302129Y-119449500D01*
X110302123Y-119449501D01*
X110242516Y-119455908D01*
X110107671Y-119506202D01*
X110107664Y-119506206D01*
X109992455Y-119592452D01*
X109992452Y-119592455D01*
X109906206Y-119707664D01*
X109906202Y-119707671D01*
X109855908Y-119842517D01*
X109849501Y-119902116D01*
X109849501Y-119902123D01*
X109849500Y-119902135D01*
X99100500Y-119902135D01*
X99100500Y-119399996D01*
X131094435Y-119399996D01*
X131094435Y-119400003D01*
X131114630Y-119579249D01*
X131114631Y-119579254D01*
X131174211Y-119749523D01*
X131237646Y-119850478D01*
X131270184Y-119902262D01*
X131397738Y-120029816D01*
X131550478Y-120125789D01*
X131720745Y-120185368D01*
X131720750Y-120185369D01*
X131899996Y-120205565D01*
X131900000Y-120205565D01*
X131900004Y-120205565D01*
X131949430Y-120199996D01*
X137794435Y-120199996D01*
X137794435Y-120200003D01*
X137814630Y-120379249D01*
X137814631Y-120379254D01*
X137874211Y-120549523D01*
X137904387Y-120597547D01*
X137970184Y-120702262D01*
X138097738Y-120829816D01*
X138250478Y-120925789D01*
X138420745Y-120985368D01*
X138420750Y-120985369D01*
X138599996Y-121005565D01*
X138600000Y-121005565D01*
X138600004Y-121005565D01*
X138779249Y-120985369D01*
X138779252Y-120985368D01*
X138779255Y-120985368D01*
X138949522Y-120925789D01*
X139102262Y-120829816D01*
X139229816Y-120702262D01*
X139325789Y-120549522D01*
X139385368Y-120379255D01*
X139385369Y-120379249D01*
X139405565Y-120200003D01*
X139405565Y-120199996D01*
X139385369Y-120020750D01*
X139385368Y-120020745D01*
X139343909Y-119902262D01*
X139325789Y-119850478D01*
X139229816Y-119697738D01*
X139102262Y-119570184D01*
X139000439Y-119506204D01*
X138949523Y-119474211D01*
X138779254Y-119414631D01*
X138779249Y-119414630D01*
X138600004Y-119394435D01*
X138599996Y-119394435D01*
X138420750Y-119414630D01*
X138420745Y-119414631D01*
X138250476Y-119474211D01*
X138097737Y-119570184D01*
X137970184Y-119697737D01*
X137874211Y-119850476D01*
X137814631Y-120020745D01*
X137814630Y-120020750D01*
X137794435Y-120199996D01*
X131949430Y-120199996D01*
X132079249Y-120185369D01*
X132079252Y-120185368D01*
X132079255Y-120185368D01*
X132249522Y-120125789D01*
X132402262Y-120029816D01*
X132529816Y-119902262D01*
X132625789Y-119749522D01*
X132685368Y-119579255D01*
X132687735Y-119558250D01*
X132705565Y-119400003D01*
X132705565Y-119399996D01*
X132685369Y-119220750D01*
X132685368Y-119220745D01*
X132684228Y-119217486D01*
X132625789Y-119050478D01*
X132625188Y-119049522D01*
X132529815Y-118897737D01*
X132402262Y-118770184D01*
X132249523Y-118674211D01*
X132079254Y-118614631D01*
X132079249Y-118614630D01*
X131900004Y-118594435D01*
X131899996Y-118594435D01*
X131720750Y-118614630D01*
X131720745Y-118614631D01*
X131550476Y-118674211D01*
X131397737Y-118770184D01*
X131270184Y-118897737D01*
X131174211Y-119050476D01*
X131114631Y-119220745D01*
X131114630Y-119220750D01*
X131094435Y-119399996D01*
X99100500Y-119399996D01*
X99100500Y-95119999D01*
X103244341Y-95119999D01*
X103244341Y-95120000D01*
X103264936Y-95355403D01*
X103264938Y-95355413D01*
X103326094Y-95583655D01*
X103326096Y-95583659D01*
X103326097Y-95583663D01*
X103409358Y-95762217D01*
X103425965Y-95797830D01*
X103425967Y-95797834D01*
X103515562Y-95925788D01*
X103561501Y-95991396D01*
X103561506Y-95991402D01*
X103728597Y-96158493D01*
X103728603Y-96158498D01*
X103914158Y-96288425D01*
X103957783Y-96343002D01*
X103964977Y-96412500D01*
X103933454Y-96474855D01*
X103914158Y-96491575D01*
X103728597Y-96621505D01*
X103561505Y-96788597D01*
X103425965Y-96982169D01*
X103425964Y-96982171D01*
X103326098Y-97196335D01*
X103326094Y-97196344D01*
X103264938Y-97424586D01*
X103264936Y-97424596D01*
X103244341Y-97659999D01*
X103244341Y-97660000D01*
X103264936Y-97895403D01*
X103264938Y-97895413D01*
X103326094Y-98123655D01*
X103326096Y-98123659D01*
X103326097Y-98123663D01*
X103409358Y-98302217D01*
X103425965Y-98337830D01*
X103425967Y-98337834D01*
X103534281Y-98492521D01*
X103561501Y-98531396D01*
X103561506Y-98531402D01*
X103728597Y-98698493D01*
X103728603Y-98698498D01*
X103914158Y-98828425D01*
X103957783Y-98883002D01*
X103964977Y-98952500D01*
X103933454Y-99014855D01*
X103914158Y-99031575D01*
X103728597Y-99161505D01*
X103561505Y-99328597D01*
X103425965Y-99522169D01*
X103425964Y-99522171D01*
X103326098Y-99736335D01*
X103326094Y-99736344D01*
X103264938Y-99964586D01*
X103264936Y-99964596D01*
X103244341Y-100199999D01*
X103244341Y-100200000D01*
X103264936Y-100435403D01*
X103264938Y-100435413D01*
X103326094Y-100663655D01*
X103326096Y-100663659D01*
X103326097Y-100663663D01*
X103409358Y-100842217D01*
X103425965Y-100877830D01*
X103425967Y-100877834D01*
X103515406Y-101005565D01*
X103561501Y-101071396D01*
X103561506Y-101071402D01*
X103728597Y-101238493D01*
X103728603Y-101238498D01*
X103914158Y-101368425D01*
X103957783Y-101423002D01*
X103964977Y-101492500D01*
X103933454Y-101554855D01*
X103914158Y-101571575D01*
X103728597Y-101701505D01*
X103561505Y-101868597D01*
X103425965Y-102062169D01*
X103425964Y-102062171D01*
X103326098Y-102276335D01*
X103326094Y-102276344D01*
X103264938Y-102504586D01*
X103264936Y-102504596D01*
X103244341Y-102739999D01*
X103244341Y-102740000D01*
X103264936Y-102975403D01*
X103264938Y-102975413D01*
X103326094Y-103203655D01*
X103326096Y-103203659D01*
X103326097Y-103203663D01*
X103407290Y-103377781D01*
X103425965Y-103417830D01*
X103425967Y-103417834D01*
X103516991Y-103547829D01*
X103561501Y-103611396D01*
X103561506Y-103611402D01*
X103728597Y-103778493D01*
X103728603Y-103778498D01*
X103914158Y-103908425D01*
X103957783Y-103963002D01*
X103964977Y-104032500D01*
X103933454Y-104094855D01*
X103914158Y-104111575D01*
X103728597Y-104241505D01*
X103561505Y-104408597D01*
X103425965Y-104602169D01*
X103425964Y-104602171D01*
X103326098Y-104816335D01*
X103326094Y-104816344D01*
X103264938Y-105044586D01*
X103264936Y-105044596D01*
X103244341Y-105279999D01*
X103244341Y-105280000D01*
X103264936Y-105515403D01*
X103264938Y-105515413D01*
X103326094Y-105743655D01*
X103326096Y-105743659D01*
X103326097Y-105743663D01*
X103409358Y-105922217D01*
X103425965Y-105957830D01*
X103425967Y-105957834D01*
X103470022Y-106020750D01*
X103561501Y-106151396D01*
X103561506Y-106151402D01*
X103728597Y-106318493D01*
X103728603Y-106318498D01*
X103914158Y-106448425D01*
X103957783Y-106503002D01*
X103964977Y-106572500D01*
X103933454Y-106634855D01*
X103914158Y-106651575D01*
X103728597Y-106781505D01*
X103561505Y-106948597D01*
X103425965Y-107142169D01*
X103425964Y-107142171D01*
X103326098Y-107356335D01*
X103326094Y-107356344D01*
X103264938Y-107584586D01*
X103264936Y-107584596D01*
X103244341Y-107819999D01*
X103244341Y-107820000D01*
X103264936Y-108055403D01*
X103264938Y-108055413D01*
X103326094Y-108283655D01*
X103326096Y-108283659D01*
X103326097Y-108283663D01*
X103330000Y-108292032D01*
X103425965Y-108497830D01*
X103425967Y-108497834D01*
X103534281Y-108652521D01*
X103561501Y-108691396D01*
X103561506Y-108691402D01*
X103728597Y-108858493D01*
X103728603Y-108858498D01*
X103914158Y-108988425D01*
X103957783Y-109043002D01*
X103964977Y-109112500D01*
X103933454Y-109174855D01*
X103914158Y-109191575D01*
X103728597Y-109321505D01*
X103561505Y-109488597D01*
X103425965Y-109682169D01*
X103425964Y-109682171D01*
X103326098Y-109896335D01*
X103326094Y-109896344D01*
X103264938Y-110124586D01*
X103264936Y-110124596D01*
X103244341Y-110359999D01*
X103244341Y-110360000D01*
X103264936Y-110595403D01*
X103264938Y-110595413D01*
X103326094Y-110823655D01*
X103326096Y-110823659D01*
X103326097Y-110823663D01*
X103403334Y-110989297D01*
X103425965Y-111037830D01*
X103425967Y-111037834D01*
X103484909Y-111122011D01*
X103561501Y-111231396D01*
X103561506Y-111231402D01*
X103728597Y-111398493D01*
X103728603Y-111398498D01*
X103914158Y-111528425D01*
X103957783Y-111583002D01*
X103964977Y-111652500D01*
X103933454Y-111714855D01*
X103914158Y-111731575D01*
X103728597Y-111861505D01*
X103561505Y-112028597D01*
X103425965Y-112222169D01*
X103425964Y-112222171D01*
X103326098Y-112436335D01*
X103326094Y-112436344D01*
X103264938Y-112664586D01*
X103264936Y-112664596D01*
X103244341Y-112899999D01*
X103244341Y-112900000D01*
X103264936Y-113135403D01*
X103264938Y-113135413D01*
X103326094Y-113363655D01*
X103326096Y-113363659D01*
X103326097Y-113363663D01*
X103330000Y-113372032D01*
X103425965Y-113577830D01*
X103425967Y-113577834D01*
X103534281Y-113732521D01*
X103561501Y-113771396D01*
X103561506Y-113771402D01*
X103728597Y-113938493D01*
X103728603Y-113938498D01*
X103914158Y-114068425D01*
X103957783Y-114123002D01*
X103964977Y-114192500D01*
X103933454Y-114254855D01*
X103914158Y-114271575D01*
X103728597Y-114401505D01*
X103561505Y-114568597D01*
X103425965Y-114762169D01*
X103425964Y-114762171D01*
X103326098Y-114976335D01*
X103326094Y-114976344D01*
X103264938Y-115204586D01*
X103264936Y-115204596D01*
X103244341Y-115439999D01*
X103244341Y-115440000D01*
X103264936Y-115675403D01*
X103264938Y-115675413D01*
X103326094Y-115903655D01*
X103326096Y-115903659D01*
X103326097Y-115903663D01*
X103409155Y-116081781D01*
X103425965Y-116117830D01*
X103425967Y-116117834D01*
X103534281Y-116272521D01*
X103561505Y-116311401D01*
X103728599Y-116478495D01*
X103825384Y-116546265D01*
X103922165Y-116614032D01*
X103922167Y-116614033D01*
X103922170Y-116614035D01*
X104136337Y-116713903D01*
X104364592Y-116775063D01*
X104552918Y-116791539D01*
X104599999Y-116795659D01*
X104600000Y-116795659D01*
X104600001Y-116795659D01*
X104639234Y-116792226D01*
X104835408Y-116775063D01*
X105063663Y-116713903D01*
X105277830Y-116614035D01*
X105471401Y-116478495D01*
X105638495Y-116311401D01*
X105768730Y-116125405D01*
X105823307Y-116081781D01*
X105892805Y-116074587D01*
X105955160Y-116106110D01*
X105971879Y-116125405D01*
X106101890Y-116311078D01*
X106268917Y-116478105D01*
X106462421Y-116613600D01*
X106676507Y-116713429D01*
X106676516Y-116713433D01*
X106890000Y-116770634D01*
X106890000Y-115873012D01*
X106947007Y-115905925D01*
X107074174Y-115940000D01*
X107205826Y-115940000D01*
X107332993Y-115905925D01*
X107390000Y-115873012D01*
X107390000Y-116770633D01*
X107603483Y-116713433D01*
X107603492Y-116713429D01*
X107817578Y-116613600D01*
X108011082Y-116478105D01*
X108178105Y-116311082D01*
X108313600Y-116117578D01*
X108413429Y-115903492D01*
X108413432Y-115903486D01*
X108470636Y-115690000D01*
X107573012Y-115690000D01*
X107605925Y-115632993D01*
X107640000Y-115505826D01*
X107640000Y-115374174D01*
X107605925Y-115247007D01*
X107573012Y-115190000D01*
X108470636Y-115190000D01*
X108470635Y-115189999D01*
X108413432Y-114976513D01*
X108413429Y-114976507D01*
X108313600Y-114762422D01*
X108313599Y-114762420D01*
X108178113Y-114568926D01*
X108178108Y-114568920D01*
X108011078Y-114401890D01*
X107825405Y-114271879D01*
X107781780Y-114217302D01*
X107774588Y-114147804D01*
X107806110Y-114085449D01*
X107825406Y-114068730D01*
X107825842Y-114068425D01*
X108011401Y-113938495D01*
X108178495Y-113771401D01*
X108314035Y-113577830D01*
X108413903Y-113363663D01*
X108475063Y-113135408D01*
X108495659Y-112900000D01*
X108475063Y-112664592D01*
X108413903Y-112436337D01*
X108410000Y-112427967D01*
X108388521Y-112381904D01*
X108378029Y-112312827D01*
X108406549Y-112249043D01*
X108465026Y-112210804D01*
X108500903Y-112205500D01*
X108870500Y-112205500D01*
X108937539Y-112225185D01*
X108983294Y-112277989D01*
X108994500Y-112329500D01*
X108994500Y-115999996D01*
X108994500Y-117576000D01*
X108994501Y-117576009D01*
X109006052Y-117683450D01*
X109006054Y-117683462D01*
X109017260Y-117734972D01*
X109051383Y-117837497D01*
X109051386Y-117837503D01*
X109129171Y-117958537D01*
X109129179Y-117958548D01*
X109174923Y-118011340D01*
X109174926Y-118011343D01*
X109174930Y-118011347D01*
X109283664Y-118105567D01*
X109283667Y-118105568D01*
X109283668Y-118105569D01*
X109400555Y-118158951D01*
X109414541Y-118165338D01*
X109481580Y-118185023D01*
X109481584Y-118185024D01*
X109624000Y-118205500D01*
X109624003Y-118205500D01*
X119873703Y-118205500D01*
X119873711Y-118205500D01*
X120013653Y-118185743D01*
X120079627Y-118166736D01*
X120097034Y-118158945D01*
X120106721Y-118155091D01*
X120117433Y-118151342D01*
X120117434Y-118151343D01*
X120220760Y-118115186D01*
X120247820Y-118109011D01*
X120286118Y-118104696D01*
X120313880Y-118104696D01*
X120352175Y-118109010D01*
X120379239Y-118115187D01*
X120482565Y-118151343D01*
X120493276Y-118155091D01*
X120502968Y-118158947D01*
X120520373Y-118166736D01*
X120520380Y-118166738D01*
X120586335Y-118185740D01*
X120586338Y-118185740D01*
X120586347Y-118185743D01*
X120726289Y-118205500D01*
X141750179Y-118205500D01*
X141817218Y-118225185D01*
X141862973Y-118277989D01*
X141872917Y-118347147D01*
X141867220Y-118370455D01*
X141814633Y-118520737D01*
X141814630Y-118520750D01*
X141794435Y-118699996D01*
X141794435Y-118700003D01*
X141814630Y-118879249D01*
X141814631Y-118879254D01*
X141874211Y-119049523D01*
X141939091Y-119152778D01*
X141958091Y-119220015D01*
X141939091Y-119284722D01*
X141874211Y-119387976D01*
X141814631Y-119558245D01*
X141814630Y-119558250D01*
X141794435Y-119737496D01*
X141794435Y-119737503D01*
X141814630Y-119916749D01*
X141814631Y-119916754D01*
X141874211Y-120087023D01*
X141970184Y-120239762D01*
X142097738Y-120367316D01*
X142250478Y-120463289D01*
X142420745Y-120522868D01*
X142420750Y-120522869D01*
X142599996Y-120543065D01*
X142600000Y-120543065D01*
X142600004Y-120543065D01*
X142779249Y-120522869D01*
X142779252Y-120522868D01*
X142779255Y-120522868D01*
X142949522Y-120463289D01*
X143102262Y-120367316D01*
X143229816Y-120239762D01*
X143325789Y-120087022D01*
X143385368Y-119916755D01*
X143387001Y-119902262D01*
X143405565Y-119737503D01*
X143405565Y-119737496D01*
X143385369Y-119558250D01*
X143385368Y-119558245D01*
X143325788Y-119387975D01*
X143284855Y-119322833D01*
X143260908Y-119284721D01*
X143241908Y-119217486D01*
X143260908Y-119152778D01*
X143304284Y-119083745D01*
X143325788Y-119049524D01*
X143325789Y-119049522D01*
X143385368Y-118879255D01*
X143385369Y-118879249D01*
X143405565Y-118700003D01*
X143405565Y-118699996D01*
X146794435Y-118699996D01*
X146794435Y-118700003D01*
X146814630Y-118879249D01*
X146814631Y-118879254D01*
X146874211Y-119049523D01*
X146939090Y-119152777D01*
X146970184Y-119202262D01*
X147097738Y-119329816D01*
X147176410Y-119379249D01*
X147232721Y-119414632D01*
X147250478Y-119425789D01*
X147336556Y-119455909D01*
X147420745Y-119485368D01*
X147420750Y-119485369D01*
X147599996Y-119505565D01*
X147600000Y-119505565D01*
X147600004Y-119505565D01*
X147779249Y-119485369D01*
X147779252Y-119485368D01*
X147779255Y-119485368D01*
X147949522Y-119425789D01*
X148102262Y-119329816D01*
X148229816Y-119202262D01*
X148325789Y-119049522D01*
X148385368Y-118879255D01*
X148385369Y-118879249D01*
X148405565Y-118700003D01*
X148405565Y-118699996D01*
X148385369Y-118520750D01*
X148385368Y-118520745D01*
X148325788Y-118350476D01*
X148247062Y-118225185D01*
X148229816Y-118197738D01*
X148102262Y-118070184D01*
X148069379Y-118049522D01*
X147949523Y-117974211D01*
X147779254Y-117914631D01*
X147779249Y-117914630D01*
X147600004Y-117894435D01*
X147599996Y-117894435D01*
X147420750Y-117914630D01*
X147420745Y-117914631D01*
X147250476Y-117974211D01*
X147097737Y-118070184D01*
X146970184Y-118197737D01*
X146874211Y-118350476D01*
X146814631Y-118520745D01*
X146814630Y-118520750D01*
X146794435Y-118699996D01*
X143405565Y-118699996D01*
X143385369Y-118520750D01*
X143385366Y-118520737D01*
X143332780Y-118370455D01*
X143329218Y-118300676D01*
X143363946Y-118240049D01*
X143425940Y-118207821D01*
X143449821Y-118205500D01*
X143475990Y-118205500D01*
X143476000Y-118205500D01*
X143583456Y-118193947D01*
X143634967Y-118182741D01*
X143683066Y-118166732D01*
X143737497Y-118148616D01*
X143737501Y-118148613D01*
X143737504Y-118148613D01*
X143858543Y-118070825D01*
X143911347Y-118025070D01*
X144005567Y-117916336D01*
X144065338Y-117785459D01*
X144085023Y-117718420D01*
X144085024Y-117718416D01*
X144087672Y-117699996D01*
X152794435Y-117699996D01*
X152794435Y-117700003D01*
X152814630Y-117879249D01*
X152814631Y-117879254D01*
X152874211Y-118049523D01*
X152959804Y-118185742D01*
X152970184Y-118202262D01*
X153097738Y-118329816D01*
X153100000Y-118331237D01*
X153121913Y-118345006D01*
X153168204Y-118397341D01*
X153178852Y-118466395D01*
X153150477Y-118530243D01*
X153121913Y-118554994D01*
X153097737Y-118570184D01*
X152970184Y-118697737D01*
X152874211Y-118850476D01*
X152814631Y-119020745D01*
X152814630Y-119020750D01*
X152794435Y-119199996D01*
X152794435Y-119200003D01*
X152814630Y-119379249D01*
X152814631Y-119379254D01*
X152874211Y-119549523D01*
X152967341Y-119697737D01*
X152970184Y-119702262D01*
X153097738Y-119829816D01*
X153250478Y-119925789D01*
X153420745Y-119985368D01*
X153420750Y-119985369D01*
X153599996Y-120005565D01*
X153600000Y-120005565D01*
X153600004Y-120005565D01*
X153779249Y-119985369D01*
X153779252Y-119985368D01*
X153779255Y-119985368D01*
X153949522Y-119925789D01*
X153963900Y-119916755D01*
X154034027Y-119872691D01*
X154101264Y-119853690D01*
X154165973Y-119872691D01*
X154250475Y-119925788D01*
X154420745Y-119985368D01*
X154420750Y-119985369D01*
X154599996Y-120005565D01*
X154600000Y-120005565D01*
X154600004Y-120005565D01*
X154779249Y-119985369D01*
X154779252Y-119985368D01*
X154779255Y-119985368D01*
X154949522Y-119925789D01*
X155102262Y-119829816D01*
X155229816Y-119702262D01*
X155325789Y-119549522D01*
X155385368Y-119379255D01*
X155385369Y-119379249D01*
X155405565Y-119200003D01*
X155405565Y-119199996D01*
X155385369Y-119020750D01*
X155385368Y-119020745D01*
X155342326Y-118897738D01*
X155325789Y-118850478D01*
X155229816Y-118697738D01*
X155102262Y-118570184D01*
X155078084Y-118554992D01*
X155031796Y-118502661D01*
X155021146Y-118433607D01*
X155049521Y-118369758D01*
X155078082Y-118345009D01*
X155102262Y-118329816D01*
X155229816Y-118202262D01*
X155325789Y-118049522D01*
X155385368Y-117879255D01*
X155390072Y-117837504D01*
X155405565Y-117700003D01*
X155405565Y-117699996D01*
X155385369Y-117520750D01*
X155385368Y-117520745D01*
X155348929Y-117416608D01*
X155325789Y-117350478D01*
X155229816Y-117197738D01*
X155102262Y-117070184D01*
X155034027Y-117027309D01*
X154949523Y-116974211D01*
X154779254Y-116914631D01*
X154779249Y-116914630D01*
X154600004Y-116894435D01*
X154599996Y-116894435D01*
X154420750Y-116914630D01*
X154420737Y-116914633D01*
X154250479Y-116974209D01*
X154165971Y-117027309D01*
X154098734Y-117046309D01*
X154034029Y-117027309D01*
X153949520Y-116974209D01*
X153779262Y-116914633D01*
X153779249Y-116914630D01*
X153600004Y-116894435D01*
X153599996Y-116894435D01*
X153420750Y-116914630D01*
X153420745Y-116914631D01*
X153250476Y-116974211D01*
X153097737Y-117070184D01*
X152970184Y-117197737D01*
X152874211Y-117350476D01*
X152814631Y-117520745D01*
X152814630Y-117520750D01*
X152794435Y-117699996D01*
X144087672Y-117699996D01*
X144105500Y-117576000D01*
X144105500Y-116699994D01*
X182594357Y-116699994D01*
X182594357Y-116700005D01*
X182614890Y-116947812D01*
X182614892Y-116947824D01*
X182675936Y-117188881D01*
X182746819Y-117350476D01*
X182775827Y-117416607D01*
X182906742Y-117616988D01*
X182926929Y-117683877D01*
X182907749Y-117751063D01*
X182862367Y-117793637D01*
X182857670Y-117796201D01*
X182742455Y-117882452D01*
X182742452Y-117882455D01*
X182656206Y-117997664D01*
X182656202Y-117997671D01*
X182605908Y-118132517D01*
X182600186Y-118185742D01*
X182599501Y-118192123D01*
X182599500Y-118192135D01*
X182599500Y-120287870D01*
X182599501Y-120287876D01*
X182605908Y-120347483D01*
X182656202Y-120482328D01*
X182656206Y-120482335D01*
X182742452Y-120597544D01*
X182742455Y-120597547D01*
X182857664Y-120683793D01*
X182857671Y-120683797D01*
X182992517Y-120734091D01*
X182992516Y-120734091D01*
X182999444Y-120734835D01*
X183052127Y-120740500D01*
X185147872Y-120740499D01*
X185207483Y-120734091D01*
X185342331Y-120683796D01*
X185457546Y-120597546D01*
X185543796Y-120482331D01*
X185594091Y-120347483D01*
X185600500Y-120287873D01*
X185600499Y-118192128D01*
X185594091Y-118132517D01*
X185585907Y-118110575D01*
X185543797Y-117997671D01*
X185543793Y-117997664D01*
X185457547Y-117882455D01*
X185457544Y-117882452D01*
X185342332Y-117796204D01*
X185337635Y-117793639D01*
X185288232Y-117744232D01*
X185273382Y-117675958D01*
X185293257Y-117616989D01*
X185424173Y-117416607D01*
X185524063Y-117188881D01*
X185585108Y-116947821D01*
X185587858Y-116914631D01*
X185605643Y-116700005D01*
X185605643Y-116699994D01*
X185585109Y-116452187D01*
X185585107Y-116452175D01*
X185524063Y-116211118D01*
X185424173Y-115983393D01*
X185288166Y-115775217D01*
X185262197Y-115747007D01*
X185119744Y-115592262D01*
X184923509Y-115439526D01*
X184923507Y-115439525D01*
X184923506Y-115439524D01*
X184704811Y-115321172D01*
X184704802Y-115321169D01*
X184469616Y-115240429D01*
X184224335Y-115199500D01*
X183975665Y-115199500D01*
X183730383Y-115240429D01*
X183495197Y-115321169D01*
X183495188Y-115321172D01*
X183276493Y-115439524D01*
X183080257Y-115592261D01*
X182911833Y-115775217D01*
X182775826Y-115983393D01*
X182675936Y-116211118D01*
X182614892Y-116452175D01*
X182614890Y-116452187D01*
X182594357Y-116699994D01*
X144105500Y-116699994D01*
X144105500Y-113699996D01*
X178694435Y-113699996D01*
X178694435Y-113700003D01*
X178714630Y-113879249D01*
X178714631Y-113879254D01*
X178774211Y-114049523D01*
X178835966Y-114147804D01*
X178870184Y-114202262D01*
X178997738Y-114329816D01*
X179088080Y-114386582D01*
X179112444Y-114401891D01*
X179150478Y-114425789D01*
X179320745Y-114485368D01*
X179320750Y-114485369D01*
X179499996Y-114505565D01*
X179500000Y-114505565D01*
X179500004Y-114505565D01*
X179679249Y-114485369D01*
X179679252Y-114485368D01*
X179679255Y-114485368D01*
X179849522Y-114425789D01*
X180002262Y-114329816D01*
X180129816Y-114202262D01*
X180225789Y-114049522D01*
X180285368Y-113879255D01*
X180305565Y-113700000D01*
X180291800Y-113577834D01*
X180285369Y-113520750D01*
X180285368Y-113520745D01*
X180230403Y-113363664D01*
X180225789Y-113350478D01*
X180129816Y-113197738D01*
X180002262Y-113070184D01*
X179849523Y-112974211D01*
X179679254Y-112914631D01*
X179679249Y-112914630D01*
X179500004Y-112894435D01*
X179499996Y-112894435D01*
X179320750Y-112914630D01*
X179320745Y-112914631D01*
X179150476Y-112974211D01*
X178997737Y-113070184D01*
X178870184Y-113197737D01*
X178774211Y-113350476D01*
X178714631Y-113520745D01*
X178714630Y-113520750D01*
X178694435Y-113699996D01*
X144105500Y-113699996D01*
X144105500Y-111824000D01*
X144093947Y-111716544D01*
X144082741Y-111665033D01*
X144071081Y-111630000D01*
X144048616Y-111562502D01*
X144048613Y-111562496D01*
X143970828Y-111441462D01*
X143970825Y-111441457D01*
X143933601Y-111398498D01*
X143925076Y-111388659D01*
X143925072Y-111388656D01*
X143925070Y-111388653D01*
X143816336Y-111294433D01*
X143816333Y-111294431D01*
X143816331Y-111294430D01*
X143685465Y-111234664D01*
X143685460Y-111234662D01*
X143685459Y-111234662D01*
X143618420Y-111214977D01*
X143618422Y-111214977D01*
X143618417Y-111214976D01*
X143570944Y-111208150D01*
X143476000Y-111194500D01*
X143475998Y-111194500D01*
X143411404Y-111194500D01*
X143344365Y-111174815D01*
X143298610Y-111122011D01*
X143288666Y-111052853D01*
X143317691Y-110989297D01*
X143370449Y-110953459D01*
X143449519Y-110925790D01*
X143449518Y-110925790D01*
X143449522Y-110925789D01*
X143602262Y-110829816D01*
X143729816Y-110702262D01*
X143825789Y-110549522D01*
X143885368Y-110379255D01*
X143885369Y-110379249D01*
X143905565Y-110200003D01*
X143905565Y-110199996D01*
X143885369Y-110020750D01*
X143885368Y-110020745D01*
X143825788Y-109850476D01*
X143729815Y-109697737D01*
X143602262Y-109570184D01*
X143449523Y-109474211D01*
X143279254Y-109414631D01*
X143279249Y-109414630D01*
X143100004Y-109394435D01*
X143099996Y-109394435D01*
X142920750Y-109414630D01*
X142920745Y-109414631D01*
X142750476Y-109474211D01*
X142597737Y-109570184D01*
X142470184Y-109697737D01*
X142374211Y-109850476D01*
X142314631Y-110020745D01*
X142314630Y-110020750D01*
X142294435Y-110199996D01*
X142294435Y-110200003D01*
X142314630Y-110379249D01*
X142314631Y-110379254D01*
X142374211Y-110549523D01*
X142403040Y-110595403D01*
X142470184Y-110702262D01*
X142597738Y-110829816D01*
X142601265Y-110832032D01*
X142750480Y-110925790D01*
X142829551Y-110953459D01*
X142886327Y-110994180D01*
X142912074Y-111059133D01*
X142898618Y-111127695D01*
X142850230Y-111178097D01*
X142788596Y-111194500D01*
X132229500Y-111194500D01*
X132162461Y-111174815D01*
X132116706Y-111122011D01*
X132105500Y-111070500D01*
X132105500Y-106199996D01*
X139294435Y-106199996D01*
X139294435Y-106200003D01*
X139314630Y-106379249D01*
X139314631Y-106379254D01*
X139374211Y-106549523D01*
X139374511Y-106550000D01*
X139470184Y-106702262D01*
X139597738Y-106829816D01*
X139750478Y-106925789D01*
X139920745Y-106985368D01*
X139920750Y-106985369D01*
X140099996Y-107005565D01*
X140100000Y-107005565D01*
X140100004Y-107005565D01*
X140279249Y-106985369D01*
X140279252Y-106985368D01*
X140279255Y-106985368D01*
X140449522Y-106925789D01*
X140602262Y-106829816D01*
X140729816Y-106702262D01*
X140825789Y-106549522D01*
X140885368Y-106379255D01*
X140905565Y-106200000D01*
X140905565Y-106199996D01*
X145794435Y-106199996D01*
X145794435Y-106200003D01*
X145814630Y-106379249D01*
X145814631Y-106379254D01*
X145874211Y-106549523D01*
X145874511Y-106550000D01*
X145970184Y-106702262D01*
X146097738Y-106829816D01*
X146250478Y-106925789D01*
X146420745Y-106985368D01*
X146420750Y-106985369D01*
X146599996Y-107005565D01*
X146600000Y-107005565D01*
X146600004Y-107005565D01*
X146779249Y-106985369D01*
X146779252Y-106985368D01*
X146779255Y-106985368D01*
X146949522Y-106925789D01*
X147102262Y-106829816D01*
X147229816Y-106702262D01*
X147325789Y-106549522D01*
X147385368Y-106379255D01*
X147405565Y-106200000D01*
X147405565Y-106199996D01*
X147794435Y-106199996D01*
X147794435Y-106200003D01*
X147814630Y-106379249D01*
X147814631Y-106379254D01*
X147874211Y-106549523D01*
X147874511Y-106550000D01*
X147970184Y-106702262D01*
X148097738Y-106829816D01*
X148250478Y-106925789D01*
X148420745Y-106985368D01*
X148420750Y-106985369D01*
X148599996Y-107005565D01*
X148600000Y-107005565D01*
X148600004Y-107005565D01*
X148779249Y-106985369D01*
X148779252Y-106985368D01*
X148779255Y-106985368D01*
X148949522Y-106925789D01*
X149102262Y-106829816D01*
X149229816Y-106702262D01*
X149325789Y-106549522D01*
X149385368Y-106379255D01*
X149405565Y-106200000D01*
X149400089Y-106151402D01*
X149385369Y-106020750D01*
X149385368Y-106020745D01*
X149352141Y-105925788D01*
X149325789Y-105850478D01*
X149229816Y-105697738D01*
X149102262Y-105570184D01*
X149015079Y-105515403D01*
X148949523Y-105474211D01*
X148779254Y-105414631D01*
X148779249Y-105414630D01*
X148600004Y-105394435D01*
X148599996Y-105394435D01*
X148420750Y-105414630D01*
X148420745Y-105414631D01*
X148250476Y-105474211D01*
X148097737Y-105570184D01*
X147970184Y-105697737D01*
X147874211Y-105850476D01*
X147814631Y-106020745D01*
X147814630Y-106020750D01*
X147794435Y-106199996D01*
X147405565Y-106199996D01*
X147400089Y-106151402D01*
X147385369Y-106020750D01*
X147385368Y-106020745D01*
X147352141Y-105925788D01*
X147325789Y-105850478D01*
X147229816Y-105697738D01*
X147102262Y-105570184D01*
X147015079Y-105515403D01*
X146949523Y-105474211D01*
X146779254Y-105414631D01*
X146779249Y-105414630D01*
X146600004Y-105394435D01*
X146599996Y-105394435D01*
X146420750Y-105414630D01*
X146420745Y-105414631D01*
X146250476Y-105474211D01*
X146097737Y-105570184D01*
X145970184Y-105697737D01*
X145874211Y-105850476D01*
X145814631Y-106020745D01*
X145814630Y-106020750D01*
X145794435Y-106199996D01*
X140905565Y-106199996D01*
X140900089Y-106151402D01*
X140885369Y-106020750D01*
X140885368Y-106020745D01*
X140852141Y-105925788D01*
X140825789Y-105850478D01*
X140729816Y-105697738D01*
X140602262Y-105570184D01*
X140515079Y-105515403D01*
X140449523Y-105474211D01*
X140279254Y-105414631D01*
X140279249Y-105414630D01*
X140100004Y-105394435D01*
X140099996Y-105394435D01*
X139920750Y-105414630D01*
X139920745Y-105414631D01*
X139750476Y-105474211D01*
X139597737Y-105570184D01*
X139470184Y-105697737D01*
X139374211Y-105850476D01*
X139314631Y-106020745D01*
X139314630Y-106020750D01*
X139294435Y-106199996D01*
X132105500Y-106199996D01*
X132105500Y-105199996D01*
X149794435Y-105199996D01*
X149794435Y-105200003D01*
X149814630Y-105379249D01*
X149814631Y-105379254D01*
X149874211Y-105549523D01*
X149967341Y-105697737D01*
X149970184Y-105702262D01*
X150097738Y-105829816D01*
X150250478Y-105925789D01*
X150364943Y-105965842D01*
X150420745Y-105985368D01*
X150420750Y-105985369D01*
X150599996Y-106005565D01*
X150600000Y-106005565D01*
X150600004Y-106005565D01*
X150779249Y-105985369D01*
X150779252Y-105985368D01*
X150779255Y-105985368D01*
X150949522Y-105925789D01*
X151102262Y-105829816D01*
X151229816Y-105702262D01*
X151325789Y-105549522D01*
X151385368Y-105379255D01*
X151385369Y-105379249D01*
X151405565Y-105200003D01*
X151405565Y-105199996D01*
X151385369Y-105020750D01*
X151385368Y-105020745D01*
X151325788Y-104850476D01*
X151273361Y-104767039D01*
X151229816Y-104697738D01*
X151102262Y-104570184D01*
X150949523Y-104474211D01*
X150779254Y-104414631D01*
X150779249Y-104414630D01*
X150600004Y-104394435D01*
X150599996Y-104394435D01*
X150420750Y-104414630D01*
X150420745Y-104414631D01*
X150250476Y-104474211D01*
X150097737Y-104570184D01*
X149970184Y-104697737D01*
X149874211Y-104850476D01*
X149814631Y-105020745D01*
X149814630Y-105020750D01*
X149794435Y-105199996D01*
X132105500Y-105199996D01*
X132105500Y-104283437D01*
X132103252Y-104241505D01*
X132102603Y-104229400D01*
X132099769Y-104203042D01*
X132099275Y-104199996D01*
X132091114Y-104149632D01*
X132091114Y-104149630D01*
X132076920Y-104111575D01*
X132040832Y-104014821D01*
X132007347Y-103953498D01*
X131921123Y-103838317D01*
X131877782Y-103794976D01*
X131860469Y-103773266D01*
X131839966Y-103740636D01*
X131827918Y-103715619D01*
X131815190Y-103679245D01*
X131809011Y-103652175D01*
X131804696Y-103613870D01*
X131804697Y-103586111D01*
X131806419Y-103570828D01*
X131809010Y-103547825D01*
X131815186Y-103520761D01*
X131827919Y-103484373D01*
X131839966Y-103459361D01*
X131860469Y-103426731D01*
X131877777Y-103405026D01*
X131905026Y-103377777D01*
X131926731Y-103360469D01*
X131959361Y-103339966D01*
X131984373Y-103327919D01*
X132020761Y-103315186D01*
X132047822Y-103309010D01*
X132086118Y-103304696D01*
X132113880Y-103304696D01*
X132152173Y-103309010D01*
X132179237Y-103315187D01*
X132215620Y-103327918D01*
X132240636Y-103339966D01*
X132273266Y-103360469D01*
X132294975Y-103377781D01*
X132330246Y-103413052D01*
X132339708Y-103423667D01*
X132398349Y-103497586D01*
X132436308Y-103535933D01*
X132515391Y-103599996D01*
X132522268Y-103605567D01*
X132653145Y-103665338D01*
X132720184Y-103685023D01*
X132720188Y-103685024D01*
X132862604Y-103705500D01*
X132862607Y-103705500D01*
X137475990Y-103705500D01*
X137476000Y-103705500D01*
X137583456Y-103693947D01*
X137634967Y-103682741D01*
X137685097Y-103666056D01*
X137737497Y-103648616D01*
X137737501Y-103648613D01*
X137737504Y-103648613D01*
X137858543Y-103570825D01*
X137911347Y-103525070D01*
X138005567Y-103416336D01*
X138065338Y-103285459D01*
X138085023Y-103218420D01*
X138085024Y-103218416D01*
X138105500Y-103076000D01*
X138105500Y-102199996D01*
X152794435Y-102199996D01*
X152794435Y-102200003D01*
X152814630Y-102379249D01*
X152814631Y-102379254D01*
X152874211Y-102549523D01*
X152970184Y-102702262D01*
X153097738Y-102829816D01*
X153250478Y-102925789D01*
X153392267Y-102975403D01*
X153420745Y-102985368D01*
X153420750Y-102985369D01*
X153599996Y-103005565D01*
X153600000Y-103005565D01*
X153600004Y-103005565D01*
X153779249Y-102985369D01*
X153779252Y-102985368D01*
X153779255Y-102985368D01*
X153949522Y-102925789D01*
X154102262Y-102829816D01*
X154229816Y-102702262D01*
X154325789Y-102549522D01*
X154385368Y-102379255D01*
X154385369Y-102379249D01*
X154405565Y-102200003D01*
X154405565Y-102199996D01*
X154385369Y-102020750D01*
X154385368Y-102020745D01*
X154325788Y-101850476D01*
X154286582Y-101788080D01*
X154229816Y-101697738D01*
X154102262Y-101570184D01*
X154077866Y-101554855D01*
X153949523Y-101474211D01*
X153779254Y-101414631D01*
X153779249Y-101414630D01*
X153600004Y-101394435D01*
X153599996Y-101394435D01*
X153420750Y-101414630D01*
X153420745Y-101414631D01*
X153250476Y-101474211D01*
X153097737Y-101570184D01*
X152970184Y-101697737D01*
X152874211Y-101850476D01*
X152814631Y-102020745D01*
X152814630Y-102020750D01*
X152794435Y-102199996D01*
X138105500Y-102199996D01*
X138105500Y-100199996D01*
X148794435Y-100199996D01*
X148794435Y-100200003D01*
X148814630Y-100379249D01*
X148814631Y-100379254D01*
X148874211Y-100549523D01*
X148945931Y-100663664D01*
X148970184Y-100702262D01*
X149097738Y-100829816D01*
X149250478Y-100925789D01*
X149420745Y-100985368D01*
X149420750Y-100985369D01*
X149599996Y-101005565D01*
X149600000Y-101005565D01*
X149600004Y-101005565D01*
X149779249Y-100985369D01*
X149779252Y-100985368D01*
X149779255Y-100985368D01*
X149949522Y-100925789D01*
X150102262Y-100829816D01*
X150229816Y-100702262D01*
X150325789Y-100549522D01*
X150385368Y-100379255D01*
X150405565Y-100200000D01*
X150385368Y-100020745D01*
X150325789Y-99850478D01*
X150309145Y-99823990D01*
X150248810Y-99727967D01*
X150229816Y-99697738D01*
X150102262Y-99570184D01*
X150025847Y-99522169D01*
X149949523Y-99474211D01*
X149779254Y-99414631D01*
X149779249Y-99414630D01*
X149600004Y-99394435D01*
X149599996Y-99394435D01*
X149420750Y-99414630D01*
X149420745Y-99414631D01*
X149250476Y-99474211D01*
X149097737Y-99570184D01*
X148970184Y-99697737D01*
X148874211Y-99850476D01*
X148814631Y-100020745D01*
X148814630Y-100020750D01*
X148794435Y-100199996D01*
X138105500Y-100199996D01*
X138105500Y-99824000D01*
X138093947Y-99716544D01*
X138082741Y-99665033D01*
X138071527Y-99631340D01*
X138048616Y-99562502D01*
X138048613Y-99562496D01*
X138017548Y-99514158D01*
X137970825Y-99441457D01*
X137947581Y-99414632D01*
X137925076Y-99388659D01*
X137925072Y-99388656D01*
X137925070Y-99388653D01*
X137816336Y-99294433D01*
X137816333Y-99294431D01*
X137816331Y-99294430D01*
X137685465Y-99234664D01*
X137685460Y-99234662D01*
X137685459Y-99234662D01*
X137618420Y-99214977D01*
X137618422Y-99214977D01*
X137618417Y-99214976D01*
X137570944Y-99208150D01*
X137476000Y-99194500D01*
X132895685Y-99194500D01*
X132765685Y-99211502D01*
X132765674Y-99211504D01*
X132704059Y-99227901D01*
X132704047Y-99227905D01*
X132582788Y-99277770D01*
X132582786Y-99277771D01*
X132487983Y-99351806D01*
X132423030Y-99377554D01*
X132354469Y-99364098D01*
X132306670Y-99320048D01*
X132229820Y-99197743D01*
X132229815Y-99197737D01*
X132102262Y-99070184D01*
X131949523Y-98974211D01*
X131779254Y-98914631D01*
X131779249Y-98914630D01*
X131600004Y-98894435D01*
X131599996Y-98894435D01*
X131420750Y-98914630D01*
X131420745Y-98914631D01*
X131250476Y-98974211D01*
X131097739Y-99070183D01*
X130976164Y-99191758D01*
X130914841Y-99225242D01*
X130853548Y-99223053D01*
X130826043Y-99214976D01*
X130721848Y-99199996D01*
X130683622Y-99194500D01*
X130683620Y-99194500D01*
X128229500Y-99194500D01*
X128162461Y-99174815D01*
X128116706Y-99122011D01*
X128105500Y-99070500D01*
X128105500Y-95199996D01*
X133794435Y-95199996D01*
X133794435Y-95200003D01*
X133814630Y-95379249D01*
X133814631Y-95379254D01*
X133874211Y-95549523D01*
X133925848Y-95631702D01*
X133970184Y-95702262D01*
X134097738Y-95829816D01*
X134250478Y-95925789D01*
X134420745Y-95985368D01*
X134420750Y-95985369D01*
X134599996Y-96005565D01*
X134600000Y-96005565D01*
X134600004Y-96005565D01*
X134779249Y-95985369D01*
X134779252Y-95985368D01*
X134779255Y-95985368D01*
X134949522Y-95925789D01*
X135102262Y-95829816D01*
X135229816Y-95702262D01*
X135325789Y-95549522D01*
X135385368Y-95379255D01*
X135385369Y-95379249D01*
X135405565Y-95200003D01*
X135405565Y-95199996D01*
X135385369Y-95020750D01*
X135385368Y-95020745D01*
X135325788Y-94850476D01*
X135284878Y-94785368D01*
X135229816Y-94697738D01*
X135102262Y-94570184D01*
X135047720Y-94535913D01*
X134949523Y-94474211D01*
X134779254Y-94414631D01*
X134779249Y-94414630D01*
X134600004Y-94394435D01*
X134599996Y-94394435D01*
X134420750Y-94414630D01*
X134420745Y-94414631D01*
X134250476Y-94474211D01*
X134097737Y-94570184D01*
X133970184Y-94697737D01*
X133874211Y-94850476D01*
X133814631Y-95020745D01*
X133814630Y-95020750D01*
X133794435Y-95199996D01*
X128105500Y-95199996D01*
X128105500Y-93199996D01*
X141294435Y-93199996D01*
X141294435Y-93200003D01*
X141314630Y-93379249D01*
X141314631Y-93379254D01*
X141374211Y-93549523D01*
X141468763Y-93700000D01*
X141470184Y-93702262D01*
X141597738Y-93829816D01*
X141738224Y-93918089D01*
X141784514Y-93970423D01*
X141795471Y-94009199D01*
X141814630Y-94179249D01*
X141814631Y-94179254D01*
X141874211Y-94349523D01*
X141915122Y-94414632D01*
X141970184Y-94502262D01*
X142097738Y-94629816D01*
X142139943Y-94656335D01*
X142217933Y-94705340D01*
X142250478Y-94725789D01*
X142420745Y-94785368D01*
X142420750Y-94785369D01*
X142599996Y-94805565D01*
X142600000Y-94805565D01*
X142600004Y-94805565D01*
X142779249Y-94785369D01*
X142779252Y-94785368D01*
X142779255Y-94785368D01*
X142949522Y-94725789D01*
X143102262Y-94629816D01*
X143229816Y-94502262D01*
X143325789Y-94349522D01*
X143385368Y-94179255D01*
X143385369Y-94179249D01*
X143405565Y-94000003D01*
X143405565Y-93999996D01*
X143385369Y-93820750D01*
X143385368Y-93820745D01*
X143379159Y-93803002D01*
X143343117Y-93700000D01*
X168594659Y-93700000D01*
X168613975Y-93896129D01*
X168613976Y-93896132D01*
X168670207Y-94081501D01*
X168671188Y-94084733D01*
X168764086Y-94258532D01*
X168764090Y-94258539D01*
X168889116Y-94410883D01*
X169041460Y-94535909D01*
X169041467Y-94535913D01*
X169215266Y-94628811D01*
X169215269Y-94628811D01*
X169215273Y-94628814D01*
X169403868Y-94686024D01*
X169600000Y-94705341D01*
X169796132Y-94686024D01*
X169984727Y-94628814D01*
X170158538Y-94535910D01*
X170310883Y-94410883D01*
X170435910Y-94258538D01*
X170528814Y-94084727D01*
X170586024Y-93896132D01*
X170605341Y-93700000D01*
X170586024Y-93503868D01*
X170528814Y-93315273D01*
X170528811Y-93315269D01*
X170528811Y-93315266D01*
X170435913Y-93141467D01*
X170435909Y-93141460D01*
X170310883Y-92989116D01*
X170158539Y-92864090D01*
X170158532Y-92864086D01*
X169984733Y-92771188D01*
X169984727Y-92771186D01*
X169796132Y-92713976D01*
X169796129Y-92713975D01*
X169600000Y-92694659D01*
X169403870Y-92713975D01*
X169215266Y-92771188D01*
X169041467Y-92864086D01*
X169041460Y-92864090D01*
X168889116Y-92989116D01*
X168764090Y-93141460D01*
X168764086Y-93141467D01*
X168671188Y-93315266D01*
X168613975Y-93503870D01*
X168594659Y-93700000D01*
X143343117Y-93700000D01*
X143325789Y-93650478D01*
X143305691Y-93618493D01*
X143233669Y-93503870D01*
X143229816Y-93497738D01*
X143102262Y-93370184D01*
X143102260Y-93370182D01*
X142961775Y-93281909D01*
X142915485Y-93229575D01*
X142904528Y-93190799D01*
X142885369Y-93020750D01*
X142885368Y-93020745D01*
X142874301Y-92989117D01*
X142825789Y-92850478D01*
X142729816Y-92697738D01*
X142602262Y-92570184D01*
X142602259Y-92570182D01*
X142535467Y-92528213D01*
X142489176Y-92475878D01*
X142478529Y-92406825D01*
X142506904Y-92342977D01*
X142560486Y-92306178D01*
X142573787Y-92301524D01*
X142726527Y-92205551D01*
X142854081Y-92077997D01*
X142950054Y-91925257D01*
X143009633Y-91754990D01*
X143014860Y-91708599D01*
X143029830Y-91575738D01*
X143029830Y-91575731D01*
X143009634Y-91396485D01*
X143009633Y-91396480D01*
X142978007Y-91306098D01*
X142950054Y-91226213D01*
X142933581Y-91199996D01*
X145794435Y-91199996D01*
X145794435Y-91200003D01*
X145814630Y-91379249D01*
X145814631Y-91379254D01*
X145874211Y-91549523D01*
X145917918Y-91619081D01*
X145970184Y-91702262D01*
X146097738Y-91829816D01*
X146250478Y-91925789D01*
X146420745Y-91985368D01*
X146420750Y-91985369D01*
X146599996Y-92005565D01*
X146600000Y-92005565D01*
X146600004Y-92005565D01*
X146779249Y-91985369D01*
X146779252Y-91985368D01*
X146779255Y-91985368D01*
X146949522Y-91925789D01*
X147102262Y-91829816D01*
X147229816Y-91702262D01*
X147325789Y-91549522D01*
X147385368Y-91379255D01*
X147386134Y-91372455D01*
X147405565Y-91200003D01*
X147405565Y-91199996D01*
X158294435Y-91199996D01*
X158294435Y-91200003D01*
X158314630Y-91379249D01*
X158314631Y-91379254D01*
X158374211Y-91549523D01*
X158417918Y-91619081D01*
X158470184Y-91702262D01*
X158597738Y-91829816D01*
X158750478Y-91925789D01*
X158920745Y-91985368D01*
X158920750Y-91985369D01*
X159099996Y-92005565D01*
X159100000Y-92005565D01*
X159100004Y-92005565D01*
X159279249Y-91985369D01*
X159279252Y-91985368D01*
X159279255Y-91985368D01*
X159449522Y-91925789D01*
X159602262Y-91829816D01*
X159729816Y-91702262D01*
X159825789Y-91549522D01*
X159885368Y-91379255D01*
X159886134Y-91372455D01*
X159905565Y-91200003D01*
X159905565Y-91199996D01*
X159885369Y-91020750D01*
X159885368Y-91020745D01*
X159852141Y-90925788D01*
X159825789Y-90850478D01*
X159809152Y-90824001D01*
X159775328Y-90770170D01*
X159731235Y-90699996D01*
X163794435Y-90699996D01*
X163794435Y-90700003D01*
X163814630Y-90879249D01*
X163814631Y-90879254D01*
X163874211Y-91049523D01*
X163889260Y-91073473D01*
X163970184Y-91202262D01*
X164097738Y-91329816D01*
X164165593Y-91372452D01*
X164232721Y-91414632D01*
X164250478Y-91425789D01*
X164388860Y-91474211D01*
X164420745Y-91485368D01*
X164420750Y-91485369D01*
X164599996Y-91505565D01*
X164600000Y-91505565D01*
X164600004Y-91505565D01*
X164779249Y-91485369D01*
X164779252Y-91485368D01*
X164779255Y-91485368D01*
X164949522Y-91425789D01*
X165102262Y-91329816D01*
X165229816Y-91202262D01*
X165325789Y-91049522D01*
X165385368Y-90879255D01*
X165385369Y-90879249D01*
X165405565Y-90700003D01*
X165405565Y-90699996D01*
X165385369Y-90520750D01*
X165385368Y-90520745D01*
X165360549Y-90449816D01*
X165325789Y-90350478D01*
X165312403Y-90329175D01*
X165240647Y-90214976D01*
X165229816Y-90197738D01*
X165102262Y-90070184D01*
X165047720Y-90035913D01*
X164949523Y-89974211D01*
X164779254Y-89914631D01*
X164779249Y-89914630D01*
X164600004Y-89894435D01*
X164599996Y-89894435D01*
X164420750Y-89914630D01*
X164420745Y-89914631D01*
X164250476Y-89974211D01*
X164097737Y-90070184D01*
X163970184Y-90197737D01*
X163874211Y-90350476D01*
X163814631Y-90520745D01*
X163814630Y-90520750D01*
X163794435Y-90699996D01*
X159731235Y-90699996D01*
X159729816Y-90697738D01*
X159602262Y-90570184D01*
X159563436Y-90545788D01*
X159449523Y-90474211D01*
X159279254Y-90414631D01*
X159279249Y-90414630D01*
X159100004Y-90394435D01*
X159099996Y-90394435D01*
X158920750Y-90414630D01*
X158920745Y-90414631D01*
X158750476Y-90474211D01*
X158597737Y-90570184D01*
X158470184Y-90697737D01*
X158374211Y-90850476D01*
X158314631Y-91020745D01*
X158314630Y-91020750D01*
X158294435Y-91199996D01*
X147405565Y-91199996D01*
X147385369Y-91020750D01*
X147385368Y-91020745D01*
X147352141Y-90925788D01*
X147325789Y-90850478D01*
X147309152Y-90824001D01*
X147275328Y-90770170D01*
X147229816Y-90697738D01*
X147102262Y-90570184D01*
X147063436Y-90545788D01*
X146949523Y-90474211D01*
X146779254Y-90414631D01*
X146779249Y-90414630D01*
X146600004Y-90394435D01*
X146599996Y-90394435D01*
X146420750Y-90414630D01*
X146420745Y-90414631D01*
X146250476Y-90474211D01*
X146097737Y-90570184D01*
X145970184Y-90697737D01*
X145874211Y-90850476D01*
X145814631Y-91020745D01*
X145814630Y-91020750D01*
X145794435Y-91199996D01*
X142933581Y-91199996D01*
X142854081Y-91073473D01*
X142726527Y-90945919D01*
X142573788Y-90849946D01*
X142403519Y-90790366D01*
X142403514Y-90790365D01*
X142224269Y-90770170D01*
X142224261Y-90770170D01*
X142045015Y-90790365D01*
X142045010Y-90790366D01*
X141874741Y-90849946D01*
X141722002Y-90945919D01*
X141594449Y-91073472D01*
X141498476Y-91226211D01*
X141438896Y-91396480D01*
X141438895Y-91396485D01*
X141418700Y-91575731D01*
X141418700Y-91575738D01*
X141438895Y-91754984D01*
X141438896Y-91754989D01*
X141498476Y-91925258D01*
X141594449Y-92077997D01*
X141722002Y-92205550D01*
X141722008Y-92205555D01*
X141788796Y-92247521D01*
X141835087Y-92299855D01*
X141845735Y-92368909D01*
X141817360Y-92432757D01*
X141763783Y-92469554D01*
X141750480Y-92474209D01*
X141597737Y-92570184D01*
X141470184Y-92697737D01*
X141374211Y-92850476D01*
X141314631Y-93020745D01*
X141314630Y-93020750D01*
X141294435Y-93199996D01*
X128105500Y-93199996D01*
X128105500Y-90824010D01*
X128105500Y-90824000D01*
X128093947Y-90716544D01*
X128082741Y-90665033D01*
X128069605Y-90625565D01*
X128048616Y-90562502D01*
X128048613Y-90562496D01*
X128045432Y-90557546D01*
X127970825Y-90441457D01*
X127947581Y-90414632D01*
X127925076Y-90388659D01*
X127925072Y-90388656D01*
X127925070Y-90388653D01*
X127816336Y-90294433D01*
X127816333Y-90294431D01*
X127816331Y-90294430D01*
X127685465Y-90234664D01*
X127685460Y-90234662D01*
X127685459Y-90234662D01*
X127618420Y-90214977D01*
X127618422Y-90214977D01*
X127618417Y-90214976D01*
X127551395Y-90205340D01*
X127476000Y-90194500D01*
X109224000Y-90194500D01*
X109223991Y-90194500D01*
X109223990Y-90194501D01*
X109116549Y-90206052D01*
X109116537Y-90206054D01*
X109065027Y-90217260D01*
X108962502Y-90251383D01*
X108962496Y-90251386D01*
X108841462Y-90329171D01*
X108841451Y-90329179D01*
X108788659Y-90374923D01*
X108694433Y-90483664D01*
X108694430Y-90483668D01*
X108634664Y-90614534D01*
X108614976Y-90681582D01*
X108609949Y-90716549D01*
X108594502Y-90823990D01*
X108594500Y-90824001D01*
X108594500Y-91944301D01*
X108574815Y-92011340D01*
X108522011Y-92057095D01*
X108452853Y-92067039D01*
X108389297Y-92038014D01*
X108358118Y-91996706D01*
X108314035Y-91902171D01*
X108314034Y-91902169D01*
X108178494Y-91708597D01*
X108011402Y-91541506D01*
X108011395Y-91541501D01*
X107817834Y-91405967D01*
X107817830Y-91405965D01*
X107760548Y-91379254D01*
X107603663Y-91306097D01*
X107603659Y-91306096D01*
X107603655Y-91306094D01*
X107375413Y-91244938D01*
X107375403Y-91244936D01*
X107140001Y-91224341D01*
X107139999Y-91224341D01*
X106904596Y-91244936D01*
X106904586Y-91244938D01*
X106676344Y-91306094D01*
X106676335Y-91306098D01*
X106462171Y-91405964D01*
X106462169Y-91405965D01*
X106268600Y-91541503D01*
X106146673Y-91663430D01*
X106085350Y-91696914D01*
X106015658Y-91691930D01*
X105959725Y-91650058D01*
X105942810Y-91619081D01*
X105893797Y-91487671D01*
X105893793Y-91487664D01*
X105807547Y-91372455D01*
X105807544Y-91372452D01*
X105692335Y-91286206D01*
X105692328Y-91286202D01*
X105557482Y-91235908D01*
X105557483Y-91235908D01*
X105497883Y-91229501D01*
X105497881Y-91229500D01*
X105497873Y-91229500D01*
X105497864Y-91229500D01*
X103702129Y-91229500D01*
X103702123Y-91229501D01*
X103642516Y-91235908D01*
X103507671Y-91286202D01*
X103507664Y-91286206D01*
X103392455Y-91372452D01*
X103392452Y-91372455D01*
X103306206Y-91487664D01*
X103306202Y-91487671D01*
X103255908Y-91622517D01*
X103249501Y-91682116D01*
X103249500Y-91682135D01*
X103249500Y-93477870D01*
X103249501Y-93477876D01*
X103255908Y-93537483D01*
X103306202Y-93672328D01*
X103306206Y-93672335D01*
X103392452Y-93787544D01*
X103392455Y-93787547D01*
X103507664Y-93873793D01*
X103507671Y-93873797D01*
X103639081Y-93922810D01*
X103695015Y-93964681D01*
X103719432Y-94030145D01*
X103704580Y-94098418D01*
X103683430Y-94126673D01*
X103561503Y-94248600D01*
X103425965Y-94442169D01*
X103425964Y-94442171D01*
X103326098Y-94656335D01*
X103326094Y-94656344D01*
X103264938Y-94884586D01*
X103264936Y-94884596D01*
X103244341Y-95119999D01*
X99100500Y-95119999D01*
X99100500Y-92199996D01*
X101294435Y-92199996D01*
X101294435Y-92200003D01*
X101314630Y-92379249D01*
X101314631Y-92379254D01*
X101374211Y-92549523D01*
X101465407Y-92694659D01*
X101470184Y-92702262D01*
X101597738Y-92829816D01*
X101750478Y-92925789D01*
X101920745Y-92985368D01*
X101920750Y-92985369D01*
X102099996Y-93005565D01*
X102100000Y-93005565D01*
X102100004Y-93005565D01*
X102279249Y-92985369D01*
X102279252Y-92985368D01*
X102279255Y-92985368D01*
X102449522Y-92925789D01*
X102602262Y-92829816D01*
X102729816Y-92702262D01*
X102825789Y-92549522D01*
X102885368Y-92379255D01*
X102886534Y-92368909D01*
X102905565Y-92200003D01*
X102905565Y-92199996D01*
X102885369Y-92020750D01*
X102885368Y-92020745D01*
X102852141Y-91925788D01*
X102825789Y-91850478D01*
X102729816Y-91697738D01*
X102602262Y-91570184D01*
X102569379Y-91549522D01*
X102449523Y-91474211D01*
X102279254Y-91414631D01*
X102279249Y-91414630D01*
X102100004Y-91394435D01*
X102099996Y-91394435D01*
X101920750Y-91414630D01*
X101920745Y-91414631D01*
X101750476Y-91474211D01*
X101597737Y-91570184D01*
X101470184Y-91697737D01*
X101374211Y-91850476D01*
X101314631Y-92020745D01*
X101314630Y-92020750D01*
X101294435Y-92199996D01*
X99100500Y-92199996D01*
X99100500Y-88699996D01*
X101794435Y-88699996D01*
X101794435Y-88700003D01*
X101814630Y-88879249D01*
X101814631Y-88879254D01*
X101874211Y-89049523D01*
X101902291Y-89094211D01*
X101970184Y-89202262D01*
X102097738Y-89329816D01*
X102176410Y-89379249D01*
X102232721Y-89414632D01*
X102250478Y-89425789D01*
X102378186Y-89470476D01*
X102420745Y-89485368D01*
X102420750Y-89485369D01*
X102599996Y-89505565D01*
X102600000Y-89505565D01*
X102600004Y-89505565D01*
X102779249Y-89485369D01*
X102779252Y-89485368D01*
X102779255Y-89485368D01*
X102949522Y-89425789D01*
X103102262Y-89329816D01*
X103229816Y-89202262D01*
X103325789Y-89049522D01*
X103385368Y-88879255D01*
X103388610Y-88850480D01*
X103405565Y-88700003D01*
X103405565Y-88699996D01*
X103385369Y-88520750D01*
X103385368Y-88520745D01*
X103341170Y-88394435D01*
X103325789Y-88350478D01*
X103231235Y-88199996D01*
X110794435Y-88199996D01*
X110794435Y-88200003D01*
X110814630Y-88379249D01*
X110814631Y-88379254D01*
X110874211Y-88549523D01*
X110931981Y-88641462D01*
X110970184Y-88702262D01*
X111097738Y-88829816D01*
X111250478Y-88925789D01*
X111306149Y-88945269D01*
X111420745Y-88985368D01*
X111420750Y-88985369D01*
X111599996Y-89005565D01*
X111600000Y-89005565D01*
X111600004Y-89005565D01*
X111779249Y-88985369D01*
X111779252Y-88985368D01*
X111779255Y-88985368D01*
X111949522Y-88925789D01*
X112102262Y-88829816D01*
X112229816Y-88702262D01*
X112325789Y-88549522D01*
X112385368Y-88379255D01*
X112387077Y-88364090D01*
X112405565Y-88200003D01*
X112405565Y-88199996D01*
X112385369Y-88020750D01*
X112385368Y-88020745D01*
X112341170Y-87894435D01*
X112325789Y-87850478D01*
X112229816Y-87697738D01*
X112102262Y-87570184D01*
X112069379Y-87549522D01*
X111949523Y-87474211D01*
X111779254Y-87414631D01*
X111779249Y-87414630D01*
X111600004Y-87394435D01*
X111599996Y-87394435D01*
X111420750Y-87414630D01*
X111420745Y-87414631D01*
X111250476Y-87474211D01*
X111097737Y-87570184D01*
X110970184Y-87697737D01*
X110874211Y-87850476D01*
X110814631Y-88020745D01*
X110814630Y-88020750D01*
X110794435Y-88199996D01*
X103231235Y-88199996D01*
X103229816Y-88197738D01*
X103102262Y-88070184D01*
X103069379Y-88049522D01*
X102949523Y-87974211D01*
X102779254Y-87914631D01*
X102779249Y-87914630D01*
X102600004Y-87894435D01*
X102599996Y-87894435D01*
X102420750Y-87914630D01*
X102420745Y-87914631D01*
X102250476Y-87974211D01*
X102097737Y-88070184D01*
X101970184Y-88197737D01*
X101874211Y-88350476D01*
X101814631Y-88520745D01*
X101814630Y-88520750D01*
X101794435Y-88699996D01*
X99100500Y-88699996D01*
X99100500Y-85199996D01*
X108294435Y-85199996D01*
X108294435Y-85200003D01*
X108314630Y-85379249D01*
X108314631Y-85379254D01*
X108374211Y-85549523D01*
X108466116Y-85695788D01*
X108470184Y-85702262D01*
X108597738Y-85829816D01*
X108750478Y-85925789D01*
X108920745Y-85985368D01*
X108920750Y-85985369D01*
X109099996Y-86005565D01*
X109100000Y-86005565D01*
X109100004Y-86005565D01*
X109279249Y-85985369D01*
X109279252Y-85985368D01*
X109279255Y-85985368D01*
X109449522Y-85925789D01*
X109602262Y-85829816D01*
X109729816Y-85702262D01*
X109825789Y-85549522D01*
X109885368Y-85379255D01*
X109892098Y-85319523D01*
X109905565Y-85200003D01*
X109905565Y-85199996D01*
X122794435Y-85199996D01*
X122794435Y-85200003D01*
X122814630Y-85379249D01*
X122814631Y-85379254D01*
X122874211Y-85549523D01*
X122966116Y-85695788D01*
X122970184Y-85702262D01*
X123097738Y-85829816D01*
X123250478Y-85925789D01*
X123420745Y-85985368D01*
X123420750Y-85985369D01*
X123599996Y-86005565D01*
X123600000Y-86005565D01*
X123600004Y-86005565D01*
X123779249Y-85985369D01*
X123779252Y-85985368D01*
X123779255Y-85985368D01*
X123949522Y-85925789D01*
X124102262Y-85829816D01*
X124229816Y-85702262D01*
X124325789Y-85549522D01*
X124385368Y-85379255D01*
X124392098Y-85319523D01*
X124405565Y-85200003D01*
X124405565Y-85199996D01*
X124385369Y-85020750D01*
X124385368Y-85020745D01*
X124380056Y-85005565D01*
X124325789Y-84850478D01*
X124229816Y-84697738D01*
X124102262Y-84570184D01*
X123999422Y-84505565D01*
X123949523Y-84474211D01*
X123779254Y-84414631D01*
X123779249Y-84414630D01*
X123600004Y-84394435D01*
X123599996Y-84394435D01*
X123420750Y-84414630D01*
X123420745Y-84414631D01*
X123250476Y-84474211D01*
X123097737Y-84570184D01*
X122970184Y-84697737D01*
X122874211Y-84850476D01*
X122814631Y-85020745D01*
X122814630Y-85020750D01*
X122794435Y-85199996D01*
X109905565Y-85199996D01*
X109885369Y-85020750D01*
X109885368Y-85020745D01*
X109880056Y-85005565D01*
X109825789Y-84850478D01*
X109729816Y-84697738D01*
X109602262Y-84570184D01*
X109499422Y-84505565D01*
X109449523Y-84474211D01*
X109279254Y-84414631D01*
X109279249Y-84414630D01*
X109100004Y-84394435D01*
X109099996Y-84394435D01*
X108920750Y-84414630D01*
X108920745Y-84414631D01*
X108750476Y-84474211D01*
X108597737Y-84570184D01*
X108470184Y-84697737D01*
X108374211Y-84850476D01*
X108314631Y-85020745D01*
X108314630Y-85020750D01*
X108294435Y-85199996D01*
X99100500Y-85199996D01*
X99100500Y-83699996D01*
X110794435Y-83699996D01*
X110794435Y-83700003D01*
X110814630Y-83879249D01*
X110814631Y-83879254D01*
X110874211Y-84049523D01*
X110900113Y-84090745D01*
X110970184Y-84202262D01*
X111097738Y-84329816D01*
X111176410Y-84379249D01*
X111232721Y-84414632D01*
X111250478Y-84425789D01*
X111317540Y-84449255D01*
X111420745Y-84485368D01*
X111420750Y-84485369D01*
X111599996Y-84505565D01*
X111600000Y-84505565D01*
X111600004Y-84505565D01*
X111779249Y-84485369D01*
X111779252Y-84485368D01*
X111779255Y-84485368D01*
X111949522Y-84425789D01*
X112102262Y-84329816D01*
X112229816Y-84202262D01*
X112325789Y-84049522D01*
X112385368Y-83879255D01*
X112385369Y-83879249D01*
X112405565Y-83700003D01*
X112405565Y-83699996D01*
X119794435Y-83699996D01*
X119794435Y-83700003D01*
X119814630Y-83879249D01*
X119814631Y-83879254D01*
X119874211Y-84049523D01*
X119900113Y-84090745D01*
X119970184Y-84202262D01*
X120097738Y-84329816D01*
X120176410Y-84379249D01*
X120232721Y-84414632D01*
X120250478Y-84425789D01*
X120317540Y-84449255D01*
X120420745Y-84485368D01*
X120420750Y-84485369D01*
X120599996Y-84505565D01*
X120600000Y-84505565D01*
X120600004Y-84505565D01*
X120779249Y-84485369D01*
X120779252Y-84485368D01*
X120779255Y-84485368D01*
X120949522Y-84425789D01*
X121102262Y-84329816D01*
X121229816Y-84202262D01*
X121325789Y-84049522D01*
X121385368Y-83879255D01*
X121385369Y-83879249D01*
X121405565Y-83700003D01*
X121405565Y-83699996D01*
X121385369Y-83520750D01*
X121385368Y-83520745D01*
X121341170Y-83394435D01*
X121325789Y-83350478D01*
X121229816Y-83197738D01*
X121102262Y-83070184D01*
X121068944Y-83049249D01*
X120949523Y-82974211D01*
X120779254Y-82914631D01*
X120779249Y-82914630D01*
X120600004Y-82894435D01*
X120599996Y-82894435D01*
X120420750Y-82914630D01*
X120420745Y-82914631D01*
X120250476Y-82974211D01*
X120097737Y-83070184D01*
X119970184Y-83197737D01*
X119874211Y-83350476D01*
X119814631Y-83520745D01*
X119814630Y-83520750D01*
X119794435Y-83699996D01*
X112405565Y-83699996D01*
X112385369Y-83520750D01*
X112385368Y-83520745D01*
X112341170Y-83394435D01*
X112325789Y-83350478D01*
X112229816Y-83197738D01*
X112102262Y-83070184D01*
X112068944Y-83049249D01*
X111949523Y-82974211D01*
X111779254Y-82914631D01*
X111779249Y-82914630D01*
X111600004Y-82894435D01*
X111599996Y-82894435D01*
X111420750Y-82914630D01*
X111420745Y-82914631D01*
X111250476Y-82974211D01*
X111097737Y-83070184D01*
X110970184Y-83197737D01*
X110874211Y-83350476D01*
X110814631Y-83520745D01*
X110814630Y-83520750D01*
X110794435Y-83699996D01*
X99100500Y-83699996D01*
X99100500Y-81699996D01*
X110794435Y-81699996D01*
X110794435Y-81700003D01*
X110814630Y-81879249D01*
X110814631Y-81879254D01*
X110874211Y-82049523D01*
X110933707Y-82144210D01*
X110970184Y-82202262D01*
X111097738Y-82329816D01*
X111250478Y-82425789D01*
X111420745Y-82485368D01*
X111420750Y-82485369D01*
X111599996Y-82505565D01*
X111600000Y-82505565D01*
X111600004Y-82505565D01*
X111779249Y-82485369D01*
X111779252Y-82485368D01*
X111779255Y-82485368D01*
X111949522Y-82425789D01*
X112102262Y-82329816D01*
X112229816Y-82202262D01*
X112325789Y-82049522D01*
X112385368Y-81879255D01*
X112385369Y-81879249D01*
X112405565Y-81700003D01*
X112405565Y-81699996D01*
X119794435Y-81699996D01*
X119794435Y-81700003D01*
X119814630Y-81879249D01*
X119814631Y-81879254D01*
X119874211Y-82049523D01*
X119933707Y-82144210D01*
X119970184Y-82202262D01*
X120097738Y-82329816D01*
X120250478Y-82425789D01*
X120420745Y-82485368D01*
X120420750Y-82485369D01*
X120599996Y-82505565D01*
X120600000Y-82505565D01*
X120600004Y-82505565D01*
X120779249Y-82485369D01*
X120779252Y-82485368D01*
X120779255Y-82485368D01*
X120949522Y-82425789D01*
X121102262Y-82329816D01*
X121229816Y-82202262D01*
X121325789Y-82049522D01*
X121385368Y-81879255D01*
X121385369Y-81879249D01*
X121405565Y-81700003D01*
X121405565Y-81699996D01*
X121385369Y-81520750D01*
X121385368Y-81520745D01*
X121378284Y-81500499D01*
X121325789Y-81350478D01*
X121229816Y-81197738D01*
X121102262Y-81070184D01*
X121069379Y-81049522D01*
X120949523Y-80974211D01*
X120779254Y-80914631D01*
X120779249Y-80914630D01*
X120600004Y-80894435D01*
X120599996Y-80894435D01*
X120420750Y-80914630D01*
X120420745Y-80914631D01*
X120250476Y-80974211D01*
X120097737Y-81070184D01*
X119970184Y-81197737D01*
X119874211Y-81350476D01*
X119814631Y-81520745D01*
X119814630Y-81520750D01*
X119794435Y-81699996D01*
X112405565Y-81699996D01*
X112385369Y-81520750D01*
X112385368Y-81520745D01*
X112378284Y-81500499D01*
X112325789Y-81350478D01*
X112229816Y-81197738D01*
X112102262Y-81070184D01*
X112069379Y-81049522D01*
X111949523Y-80974211D01*
X111779254Y-80914631D01*
X111779249Y-80914630D01*
X111600004Y-80894435D01*
X111599996Y-80894435D01*
X111420750Y-80914630D01*
X111420745Y-80914631D01*
X111250476Y-80974211D01*
X111097737Y-81070184D01*
X110970184Y-81197737D01*
X110874211Y-81350476D01*
X110814631Y-81520745D01*
X110814630Y-81520750D01*
X110794435Y-81699996D01*
X99100500Y-81699996D01*
X99100500Y-78202561D01*
X99100553Y-78200000D01*
X101294652Y-78200000D01*
X101310234Y-78487403D01*
X101314028Y-78557368D01*
X101314029Y-78557385D01*
X101371926Y-78910539D01*
X101371932Y-78910565D01*
X101467672Y-79255392D01*
X101467674Y-79255399D01*
X101600142Y-79587870D01*
X101600151Y-79587888D01*
X101767784Y-79904077D01*
X101767787Y-79904082D01*
X101767789Y-79904085D01*
X101966890Y-80197738D01*
X101968634Y-80200309D01*
X101968641Y-80200319D01*
X102200331Y-80473085D01*
X102200332Y-80473086D01*
X102460163Y-80719211D01*
X102745081Y-80935800D01*
X103051747Y-81120315D01*
X103051749Y-81120316D01*
X103051751Y-81120317D01*
X103051755Y-81120319D01*
X103219095Y-81197738D01*
X103376565Y-81270591D01*
X103715726Y-81384868D01*
X104065254Y-81461805D01*
X104421052Y-81500500D01*
X104421058Y-81500500D01*
X104778942Y-81500500D01*
X104778948Y-81500500D01*
X105134746Y-81461805D01*
X105484274Y-81384868D01*
X105823435Y-81270591D01*
X106148253Y-81120315D01*
X106454919Y-80935800D01*
X106739837Y-80719211D01*
X106999668Y-80473086D01*
X107231365Y-80200311D01*
X107432211Y-79904085D01*
X107599853Y-79587880D01*
X107732324Y-79255403D01*
X107747708Y-79199996D01*
X108294435Y-79199996D01*
X108294435Y-79200003D01*
X108314630Y-79379249D01*
X108314631Y-79379254D01*
X108374211Y-79549523D01*
X108440272Y-79654657D01*
X108470184Y-79702262D01*
X108597738Y-79829816D01*
X108676410Y-79879249D01*
X108732721Y-79914632D01*
X108750478Y-79925789D01*
X108888860Y-79974211D01*
X108920745Y-79985368D01*
X108920750Y-79985369D01*
X109099996Y-80005565D01*
X109100000Y-80005565D01*
X109100004Y-80005565D01*
X109279249Y-79985369D01*
X109279252Y-79985368D01*
X109279255Y-79985368D01*
X109449522Y-79925789D01*
X109602262Y-79829816D01*
X109729816Y-79702262D01*
X109825789Y-79549522D01*
X109885368Y-79379255D01*
X109885369Y-79379249D01*
X109905565Y-79200003D01*
X109905565Y-79199996D01*
X109885369Y-79020750D01*
X109885368Y-79020745D01*
X109846805Y-78910539D01*
X109836654Y-78881530D01*
X113774500Y-78881530D01*
X113774500Y-79088469D01*
X113814868Y-79291412D01*
X113814870Y-79291420D01*
X113894058Y-79482596D01*
X114009024Y-79654657D01*
X114155342Y-79800975D01*
X114155345Y-79800977D01*
X114327402Y-79915941D01*
X114518580Y-79995130D01*
X114721530Y-80035499D01*
X114721534Y-80035500D01*
X114721535Y-80035500D01*
X115178466Y-80035500D01*
X115178467Y-80035499D01*
X115381420Y-79995130D01*
X115572598Y-79915941D01*
X115744655Y-79800977D01*
X115819097Y-79726534D01*
X115880418Y-79693051D01*
X115950110Y-79698035D01*
X115994458Y-79726536D01*
X116097738Y-79829816D01*
X116176410Y-79879249D01*
X116232721Y-79914632D01*
X116250478Y-79925789D01*
X116388860Y-79974211D01*
X116420745Y-79985368D01*
X116420750Y-79985369D01*
X116599996Y-80005565D01*
X116600000Y-80005565D01*
X116600004Y-80005565D01*
X116779249Y-79985369D01*
X116779252Y-79985368D01*
X116779255Y-79985368D01*
X116949522Y-79925789D01*
X117102262Y-79829816D01*
X117229816Y-79702262D01*
X117325789Y-79549522D01*
X117385368Y-79379255D01*
X117385369Y-79379249D01*
X117405565Y-79200003D01*
X117405565Y-79199996D01*
X117385369Y-79020750D01*
X117385368Y-79020745D01*
X117346805Y-78910539D01*
X117336654Y-78881530D01*
X118574500Y-78881530D01*
X118574500Y-79088469D01*
X118614868Y-79291412D01*
X118614870Y-79291420D01*
X118694058Y-79482596D01*
X118809024Y-79654657D01*
X118955342Y-79800975D01*
X118955345Y-79800977D01*
X119127402Y-79915941D01*
X119318580Y-79995130D01*
X119521530Y-80035499D01*
X119521534Y-80035500D01*
X119521535Y-80035500D01*
X119978466Y-80035500D01*
X119978467Y-80035499D01*
X120181420Y-79995130D01*
X120372598Y-79915941D01*
X120544655Y-79800977D01*
X120645636Y-79699996D01*
X122794435Y-79699996D01*
X122794435Y-79700003D01*
X122814630Y-79879249D01*
X122814631Y-79879254D01*
X122874211Y-80049523D01*
X122967341Y-80197737D01*
X122970184Y-80202262D01*
X123097738Y-80329816D01*
X123176420Y-80379255D01*
X123232721Y-80414632D01*
X123250478Y-80425789D01*
X123385642Y-80473085D01*
X123420745Y-80485368D01*
X123420750Y-80485369D01*
X123599996Y-80505565D01*
X123600000Y-80505565D01*
X123600004Y-80505565D01*
X123779249Y-80485369D01*
X123779252Y-80485368D01*
X123779255Y-80485368D01*
X123949522Y-80425789D01*
X124102262Y-80329816D01*
X124229816Y-80202262D01*
X124325789Y-80049522D01*
X124385368Y-79879255D01*
X124385369Y-79879249D01*
X124405565Y-79700003D01*
X124405565Y-79699996D01*
X124385369Y-79520750D01*
X124385368Y-79520745D01*
X124341170Y-79394435D01*
X124325789Y-79350478D01*
X124229816Y-79197738D01*
X124102262Y-79070184D01*
X123949523Y-78974211D01*
X123779254Y-78914631D01*
X123779249Y-78914630D01*
X123600004Y-78894435D01*
X123599996Y-78894435D01*
X123420750Y-78914630D01*
X123420745Y-78914631D01*
X123250476Y-78974211D01*
X123097737Y-79070184D01*
X122970184Y-79197737D01*
X122874211Y-79350476D01*
X122814631Y-79520745D01*
X122814630Y-79520750D01*
X122794435Y-79699996D01*
X120645636Y-79699996D01*
X120690977Y-79654655D01*
X120805941Y-79482598D01*
X120885130Y-79291420D01*
X120925500Y-79088465D01*
X120925500Y-78881535D01*
X120885130Y-78678580D01*
X120805941Y-78487402D01*
X120690977Y-78315345D01*
X120690975Y-78315342D01*
X120544657Y-78169024D01*
X120458626Y-78111541D01*
X120372598Y-78054059D01*
X120181420Y-77974870D01*
X120181412Y-77974868D01*
X119978469Y-77934500D01*
X119978465Y-77934500D01*
X119521535Y-77934500D01*
X119521530Y-77934500D01*
X119318587Y-77974868D01*
X119318579Y-77974870D01*
X119127403Y-78054058D01*
X118955342Y-78169024D01*
X118809024Y-78315342D01*
X118694058Y-78487403D01*
X118614870Y-78678579D01*
X118614868Y-78678587D01*
X118574500Y-78881530D01*
X117336654Y-78881530D01*
X117325789Y-78850478D01*
X117229816Y-78697738D01*
X117102262Y-78570184D01*
X117081870Y-78557371D01*
X116949523Y-78474211D01*
X116779254Y-78414631D01*
X116779249Y-78414630D01*
X116600004Y-78394435D01*
X116599996Y-78394435D01*
X116420750Y-78414630D01*
X116420745Y-78414631D01*
X116250474Y-78474212D01*
X116174130Y-78522182D01*
X116106893Y-78541182D01*
X116040058Y-78520814D01*
X116005056Y-78486078D01*
X115997127Y-78474212D01*
X115890977Y-78315345D01*
X115890975Y-78315342D01*
X115744657Y-78169024D01*
X115658626Y-78111541D01*
X115572598Y-78054059D01*
X115381420Y-77974870D01*
X115381412Y-77974868D01*
X115178469Y-77934500D01*
X115178465Y-77934500D01*
X114721535Y-77934500D01*
X114721530Y-77934500D01*
X114518587Y-77974868D01*
X114518579Y-77974870D01*
X114327403Y-78054058D01*
X114155342Y-78169024D01*
X114009024Y-78315342D01*
X113894058Y-78487403D01*
X113814870Y-78678579D01*
X113814868Y-78678587D01*
X113774500Y-78881530D01*
X109836654Y-78881530D01*
X109825789Y-78850478D01*
X109729816Y-78697738D01*
X109602262Y-78570184D01*
X109581870Y-78557371D01*
X109449523Y-78474211D01*
X109279254Y-78414631D01*
X109279249Y-78414630D01*
X109100004Y-78394435D01*
X109099996Y-78394435D01*
X108920750Y-78414630D01*
X108920745Y-78414631D01*
X108750476Y-78474211D01*
X108597737Y-78570184D01*
X108470184Y-78697737D01*
X108374211Y-78850476D01*
X108314631Y-79020745D01*
X108314630Y-79020750D01*
X108294435Y-79199996D01*
X107747708Y-79199996D01*
X107828071Y-78910552D01*
X107877205Y-78610847D01*
X107885970Y-78557385D01*
X107885970Y-78557382D01*
X107885972Y-78557371D01*
X107905348Y-78200000D01*
X107903668Y-78169023D01*
X107897435Y-78054058D01*
X107885972Y-77842629D01*
X107870947Y-77750983D01*
X107828073Y-77489460D01*
X107828072Y-77489459D01*
X107828071Y-77489448D01*
X107778444Y-77310708D01*
X107732327Y-77144607D01*
X107732325Y-77144600D01*
X107599857Y-76812129D01*
X107599848Y-76812111D01*
X107597428Y-76807547D01*
X107572269Y-76760092D01*
X112739500Y-76760092D01*
X112739500Y-76909907D01*
X112768723Y-77056822D01*
X112768725Y-77056830D01*
X112826051Y-77195229D01*
X112826056Y-77195238D01*
X112909280Y-77319790D01*
X112909283Y-77319794D01*
X113015205Y-77425716D01*
X113015209Y-77425719D01*
X113139761Y-77508943D01*
X113139767Y-77508946D01*
X113139768Y-77508947D01*
X113278170Y-77566275D01*
X113425092Y-77595499D01*
X113425096Y-77595500D01*
X113425097Y-77595500D01*
X113774904Y-77595500D01*
X113774905Y-77595499D01*
X113921830Y-77566275D01*
X114060232Y-77508947D01*
X114184791Y-77425719D01*
X114290719Y-77319791D01*
X114373947Y-77195232D01*
X114431275Y-77056830D01*
X114460500Y-76909903D01*
X114460500Y-76835000D01*
X114460500Y-76769108D01*
X114460500Y-76767791D01*
X120589500Y-76767791D01*
X120589500Y-76902209D01*
X120602440Y-76950500D01*
X120624290Y-77032047D01*
X120624291Y-77032048D01*
X120691495Y-77148450D01*
X120691497Y-77148453D01*
X120691498Y-77148454D01*
X120786546Y-77243502D01*
X120902954Y-77310710D01*
X121032791Y-77345500D01*
X121032794Y-77345500D01*
X121167206Y-77345500D01*
X121167209Y-77345500D01*
X121297046Y-77310710D01*
X121413454Y-77243502D01*
X121508502Y-77148454D01*
X121575710Y-77032046D01*
X121610500Y-76902209D01*
X121610500Y-76767791D01*
X121575710Y-76637954D01*
X121508502Y-76521546D01*
X121413454Y-76426498D01*
X121413453Y-76426497D01*
X121413450Y-76426495D01*
X121297048Y-76359291D01*
X121297047Y-76359290D01*
X121264152Y-76350476D01*
X121167209Y-76324500D01*
X121032791Y-76324500D01*
X120954888Y-76345374D01*
X120902952Y-76359290D01*
X120902951Y-76359291D01*
X120786549Y-76426495D01*
X120786544Y-76426499D01*
X120691499Y-76521544D01*
X120691495Y-76521549D01*
X120624291Y-76637951D01*
X120624290Y-76637952D01*
X120607666Y-76699996D01*
X120589500Y-76767791D01*
X114460500Y-76767791D01*
X114460500Y-76760097D01*
X114431275Y-76613170D01*
X114373947Y-76474768D01*
X114373946Y-76474767D01*
X114373943Y-76474761D01*
X114290719Y-76350209D01*
X114290716Y-76350205D01*
X114184794Y-76244283D01*
X114184790Y-76244280D01*
X114060238Y-76161056D01*
X114060229Y-76161051D01*
X113921830Y-76103725D01*
X113921822Y-76103723D01*
X113774907Y-76074500D01*
X113774903Y-76074500D01*
X113765892Y-76074500D01*
X113565892Y-76074500D01*
X113500000Y-76074500D01*
X113425097Y-76074500D01*
X113425092Y-76074500D01*
X113278177Y-76103723D01*
X113278169Y-76103725D01*
X113139770Y-76161051D01*
X113139761Y-76161056D01*
X113015209Y-76244280D01*
X113015205Y-76244283D01*
X112909283Y-76350205D01*
X112909280Y-76350209D01*
X112826056Y-76474761D01*
X112826051Y-76474770D01*
X112768725Y-76613169D01*
X112768723Y-76613177D01*
X112739500Y-76760092D01*
X107572269Y-76760092D01*
X107494376Y-76613170D01*
X107432215Y-76495922D01*
X107432213Y-76495919D01*
X107432211Y-76495915D01*
X107231365Y-76199689D01*
X107231361Y-76199684D01*
X107231358Y-76199680D01*
X106999668Y-75926914D01*
X106949355Y-75879255D01*
X106739837Y-75680789D01*
X106739830Y-75680783D01*
X106739827Y-75680781D01*
X106631828Y-75598683D01*
X106454919Y-75464200D01*
X106148253Y-75279685D01*
X106148252Y-75279684D01*
X106148248Y-75279682D01*
X106148244Y-75279680D01*
X105823447Y-75129414D01*
X105823441Y-75129411D01*
X105823435Y-75129409D01*
X105586340Y-75049522D01*
X105484273Y-75015131D01*
X105134744Y-74938194D01*
X104778949Y-74899500D01*
X104778948Y-74899500D01*
X104421052Y-74899500D01*
X104421050Y-74899500D01*
X104065255Y-74938194D01*
X103715726Y-75015131D01*
X103459970Y-75101306D01*
X103376565Y-75129409D01*
X103376563Y-75129410D01*
X103376552Y-75129414D01*
X103051755Y-75279680D01*
X103051751Y-75279682D01*
X102902588Y-75369431D01*
X102745081Y-75464200D01*
X102670697Y-75520745D01*
X102460172Y-75680781D01*
X102460163Y-75680789D01*
X102200331Y-75926914D01*
X101968641Y-76199680D01*
X101968634Y-76199690D01*
X101767790Y-76495913D01*
X101767784Y-76495922D01*
X101600151Y-76812111D01*
X101600142Y-76812129D01*
X101467674Y-77144600D01*
X101467672Y-77144607D01*
X101371932Y-77489434D01*
X101371926Y-77489460D01*
X101314029Y-77842614D01*
X101314028Y-77842631D01*
X101296332Y-78169023D01*
X101294652Y-78200000D01*
X99100553Y-78200000D01*
X99100606Y-78197437D01*
X99106536Y-78054058D01*
X99119072Y-77750961D01*
X99119915Y-77740792D01*
X99174874Y-77299881D01*
X99176554Y-77289809D01*
X99267734Y-76854951D01*
X99270241Y-76845055D01*
X99397022Y-76419205D01*
X99400336Y-76409553D01*
X99561840Y-75995654D01*
X99565954Y-75986275D01*
X99600978Y-75914632D01*
X99761088Y-75587120D01*
X99765949Y-75578136D01*
X99993389Y-75196445D01*
X99998982Y-75187885D01*
X100257153Y-74826294D01*
X100263422Y-74818240D01*
X100363569Y-74699996D01*
X110794435Y-74699996D01*
X110794435Y-74700003D01*
X110814630Y-74879249D01*
X110814631Y-74879254D01*
X110874211Y-75049523D01*
X110943877Y-75160395D01*
X110970184Y-75202262D01*
X111097738Y-75329816D01*
X111137274Y-75354658D01*
X111250420Y-75425753D01*
X111250478Y-75425789D01*
X111420742Y-75485367D01*
X111420745Y-75485368D01*
X111420750Y-75485369D01*
X111599996Y-75505565D01*
X111600000Y-75505565D01*
X111600004Y-75505565D01*
X111779249Y-75485369D01*
X111779252Y-75485368D01*
X111779255Y-75485368D01*
X111949522Y-75425789D01*
X112102262Y-75329816D01*
X112229816Y-75202262D01*
X112325789Y-75049522D01*
X112385368Y-74879255D01*
X112385369Y-74879249D01*
X112405565Y-74700003D01*
X112405565Y-74699996D01*
X112392217Y-74581530D01*
X113774500Y-74581530D01*
X113774500Y-74788469D01*
X113814868Y-74991412D01*
X113814870Y-74991420D01*
X113894059Y-75182598D01*
X113933667Y-75241876D01*
X114009024Y-75354657D01*
X114155342Y-75500975D01*
X114155345Y-75500977D01*
X114327402Y-75615941D01*
X114518580Y-75695130D01*
X114721530Y-75735499D01*
X114721534Y-75735500D01*
X114721535Y-75735500D01*
X115178466Y-75735500D01*
X115178467Y-75735499D01*
X115381420Y-75695130D01*
X115572598Y-75615941D01*
X115744655Y-75500977D01*
X115890977Y-75354655D01*
X116005941Y-75182598D01*
X116085130Y-74991420D01*
X116093910Y-74947278D01*
X116126294Y-74885370D01*
X116187009Y-74850795D01*
X116256779Y-74854534D01*
X116313451Y-74895400D01*
X116332569Y-74930516D01*
X116374211Y-75049523D01*
X116443877Y-75160395D01*
X116470184Y-75202262D01*
X116597738Y-75329816D01*
X116637274Y-75354658D01*
X116750420Y-75425753D01*
X116750478Y-75425789D01*
X116920742Y-75485367D01*
X116920745Y-75485368D01*
X116920750Y-75485369D01*
X117099996Y-75505565D01*
X117100000Y-75505565D01*
X117100004Y-75505565D01*
X117279249Y-75485369D01*
X117279252Y-75485368D01*
X117279255Y-75485368D01*
X117279256Y-75485367D01*
X117279259Y-75485367D01*
X117327611Y-75468447D01*
X117449522Y-75425789D01*
X117449525Y-75425786D01*
X117449622Y-75425753D01*
X117519401Y-75422190D01*
X117556548Y-75437799D01*
X117600478Y-75465403D01*
X117758636Y-75520745D01*
X117770745Y-75524982D01*
X117770750Y-75524983D01*
X117949996Y-75545179D01*
X117950000Y-75545179D01*
X117950004Y-75545179D01*
X118129249Y-75524983D01*
X118129252Y-75524982D01*
X118129255Y-75524982D01*
X118299522Y-75465403D01*
X118452262Y-75369430D01*
X118565205Y-75256486D01*
X118626524Y-75223004D01*
X118696216Y-75227988D01*
X118752150Y-75269859D01*
X118755985Y-75275279D01*
X118809022Y-75354654D01*
X118809025Y-75354658D01*
X118955342Y-75500975D01*
X118955345Y-75500977D01*
X119127402Y-75615941D01*
X119318580Y-75695130D01*
X119521530Y-75735499D01*
X119521534Y-75735500D01*
X119521535Y-75735500D01*
X119978466Y-75735500D01*
X119978467Y-75735499D01*
X120181420Y-75695130D01*
X120372598Y-75615941D01*
X120544655Y-75500977D01*
X120690977Y-75354655D01*
X120805941Y-75182598D01*
X120885130Y-74991420D01*
X120925500Y-74788465D01*
X120925500Y-74581535D01*
X120885130Y-74378580D01*
X120805941Y-74187402D01*
X120690977Y-74015345D01*
X120690975Y-74015342D01*
X120544657Y-73869024D01*
X120458626Y-73811541D01*
X120372598Y-73754059D01*
X120181420Y-73674870D01*
X120181412Y-73674868D01*
X119978469Y-73634500D01*
X119978465Y-73634500D01*
X119521535Y-73634500D01*
X119521530Y-73634500D01*
X119318587Y-73674868D01*
X119318579Y-73674870D01*
X119127403Y-73754058D01*
X118955342Y-73869024D01*
X118809025Y-74015341D01*
X118809022Y-74015345D01*
X118712235Y-74160198D01*
X118658623Y-74205003D01*
X118589298Y-74213710D01*
X118526271Y-74183556D01*
X118521452Y-74178988D01*
X118452262Y-74109798D01*
X118299523Y-74013825D01*
X118129254Y-73954245D01*
X118129249Y-73954244D01*
X117950004Y-73934049D01*
X117949996Y-73934049D01*
X117770750Y-73954244D01*
X117770742Y-73954246D01*
X117600375Y-74013860D01*
X117530596Y-74017421D01*
X117493449Y-74001812D01*
X117449523Y-73974211D01*
X117279254Y-73914631D01*
X117279249Y-73914630D01*
X117100004Y-73894435D01*
X117099996Y-73894435D01*
X116920750Y-73914630D01*
X116920745Y-73914631D01*
X116750476Y-73974211D01*
X116597737Y-74070184D01*
X116470184Y-74197737D01*
X116374208Y-74350480D01*
X116336372Y-74458610D01*
X116295650Y-74515386D01*
X116230697Y-74541133D01*
X116162136Y-74527676D01*
X116111733Y-74479289D01*
X116097715Y-74441851D01*
X116085130Y-74378580D01*
X116005941Y-74187402D01*
X115890977Y-74015345D01*
X115890975Y-74015342D01*
X115744657Y-73869024D01*
X115658626Y-73811541D01*
X115572598Y-73754059D01*
X115381420Y-73674870D01*
X115381412Y-73674868D01*
X115178469Y-73634500D01*
X115178465Y-73634500D01*
X114721535Y-73634500D01*
X114721530Y-73634500D01*
X114518587Y-73674868D01*
X114518579Y-73674870D01*
X114327403Y-73754058D01*
X114155342Y-73869024D01*
X114009024Y-74015342D01*
X113894058Y-74187403D01*
X113814870Y-74378579D01*
X113814868Y-74378587D01*
X113774500Y-74581530D01*
X112392217Y-74581530D01*
X112385369Y-74520750D01*
X112385368Y-74520745D01*
X112362681Y-74455909D01*
X112325789Y-74350478D01*
X112229816Y-74197738D01*
X112102262Y-74070184D01*
X112056523Y-74041444D01*
X111949523Y-73974211D01*
X111779254Y-73914631D01*
X111779249Y-73914630D01*
X111600004Y-73894435D01*
X111599996Y-73894435D01*
X111420750Y-73914630D01*
X111420745Y-73914631D01*
X111250476Y-73974211D01*
X111097737Y-74070184D01*
X110970184Y-74197737D01*
X110874211Y-74350476D01*
X110814631Y-74520745D01*
X110814630Y-74520750D01*
X110794435Y-74699996D01*
X100363569Y-74699996D01*
X100550581Y-74479191D01*
X100557500Y-74471675D01*
X100871675Y-74157500D01*
X100879191Y-74150581D01*
X101218240Y-73863422D01*
X101226294Y-73857153D01*
X101587885Y-73598982D01*
X101596445Y-73593389D01*
X101978136Y-73365949D01*
X101987120Y-73361088D01*
X102386280Y-73165951D01*
X102395654Y-73161840D01*
X102809553Y-73000336D01*
X102819205Y-72997022D01*
X103245055Y-72870241D01*
X103254951Y-72867734D01*
X103689809Y-72776554D01*
X103699881Y-72774874D01*
X104140792Y-72719915D01*
X104150961Y-72719072D01*
X104597437Y-72700605D01*
X104602561Y-72700500D01*
X104665892Y-72700500D01*
X130976000Y-72700500D01*
X131043039Y-72720185D01*
G37*
%TD.AperFunction*%
%TD*%
%TA.AperFunction,Conductor*%
%TO.N,+2V8*%
G36*
X127543039Y-90719685D02*
G01*
X127588794Y-90772489D01*
X127600000Y-90824000D01*
X127600000Y-99700000D01*
X130683622Y-99700000D01*
X130750661Y-99719685D01*
X130796416Y-99772489D01*
X130806842Y-99810117D01*
X130814630Y-99879250D01*
X130814631Y-99879254D01*
X130874211Y-100049523D01*
X130967341Y-100197737D01*
X130970184Y-100202262D01*
X131097738Y-100329816D01*
X131250478Y-100425789D01*
X131420745Y-100485368D01*
X131420750Y-100485369D01*
X131599996Y-100505565D01*
X131600000Y-100505565D01*
X131600002Y-100505565D01*
X131629449Y-100502246D01*
X131664610Y-100498285D01*
X131733432Y-100510339D01*
X131784811Y-100557688D01*
X131802436Y-100625298D01*
X131801714Y-100635388D01*
X131794435Y-100699995D01*
X131794435Y-100700004D01*
X131801714Y-100764611D01*
X131789659Y-100833433D01*
X131742310Y-100884812D01*
X131674699Y-100902436D01*
X131664611Y-100901714D01*
X131600004Y-100894435D01*
X131599996Y-100894435D01*
X131420750Y-100914630D01*
X131420745Y-100914631D01*
X131250476Y-100974211D01*
X131097737Y-101070184D01*
X130970184Y-101197737D01*
X130874211Y-101350476D01*
X130814631Y-101520745D01*
X130814630Y-101520750D01*
X130794435Y-101699996D01*
X130794435Y-101700003D01*
X130814630Y-101879249D01*
X130814631Y-101879254D01*
X130874211Y-102049523D01*
X130967341Y-102197738D01*
X130970184Y-102202262D01*
X131097738Y-102329816D01*
X131250478Y-102425789D01*
X131420745Y-102485368D01*
X131420750Y-102485369D01*
X131599996Y-102505565D01*
X131600000Y-102505565D01*
X131600004Y-102505565D01*
X131779249Y-102485369D01*
X131779252Y-102485368D01*
X131779255Y-102485368D01*
X131949522Y-102425789D01*
X132102262Y-102329816D01*
X132229816Y-102202262D01*
X132325789Y-102049522D01*
X132385368Y-101879255D01*
X132386569Y-101868599D01*
X132405565Y-101700003D01*
X132405565Y-101699997D01*
X132398285Y-101635389D01*
X132410339Y-101566567D01*
X132457688Y-101515188D01*
X132525298Y-101497563D01*
X132535385Y-101498284D01*
X132561857Y-101501267D01*
X132599998Y-101505565D01*
X132600000Y-101505565D01*
X132600004Y-101505565D01*
X132779249Y-101485369D01*
X132779252Y-101485368D01*
X132779255Y-101485368D01*
X132949522Y-101425789D01*
X133102262Y-101329816D01*
X133229816Y-101202262D01*
X133325789Y-101049522D01*
X133385368Y-100879255D01*
X133385529Y-100877830D01*
X133405565Y-100700003D01*
X133405565Y-100699996D01*
X133385369Y-100520750D01*
X133385368Y-100520745D01*
X133335861Y-100379262D01*
X133325789Y-100350478D01*
X133229816Y-100197738D01*
X133102262Y-100070184D01*
X133069379Y-100049522D01*
X132949521Y-99974210D01*
X132854731Y-99941042D01*
X132797954Y-99900320D01*
X132772207Y-99835367D01*
X132785663Y-99766806D01*
X132834050Y-99716403D01*
X132895685Y-99700000D01*
X137476000Y-99700000D01*
X137543039Y-99719685D01*
X137588794Y-99772489D01*
X137600000Y-99824000D01*
X137600000Y-103076000D01*
X137580315Y-103143039D01*
X137527511Y-103188794D01*
X137476000Y-103200000D01*
X132862604Y-103200000D01*
X132795565Y-103180315D01*
X132757610Y-103141971D01*
X132729819Y-103097742D01*
X132729817Y-103097739D01*
X132602262Y-102970184D01*
X132449523Y-102874211D01*
X132279254Y-102814631D01*
X132279249Y-102814630D01*
X132100004Y-102794435D01*
X132099996Y-102794435D01*
X131920750Y-102814630D01*
X131920745Y-102814631D01*
X131750476Y-102874211D01*
X131597737Y-102970184D01*
X131470184Y-103097737D01*
X131374211Y-103250476D01*
X131314631Y-103420745D01*
X131314630Y-103420750D01*
X131294435Y-103599996D01*
X131294435Y-103600003D01*
X131314630Y-103779249D01*
X131314631Y-103779254D01*
X131374211Y-103949523D01*
X131470184Y-104102262D01*
X131563681Y-104195759D01*
X131597166Y-104257082D01*
X131600000Y-104283440D01*
X131600000Y-111700000D01*
X143476000Y-111700000D01*
X143543039Y-111719685D01*
X143588794Y-111772489D01*
X143600000Y-111824000D01*
X143600000Y-117576000D01*
X143580315Y-117643039D01*
X143527511Y-117688794D01*
X143476000Y-117700000D01*
X120726289Y-117700000D01*
X120660315Y-117680993D01*
X120649521Y-117674210D01*
X120479254Y-117614631D01*
X120479249Y-117614630D01*
X120300004Y-117594435D01*
X120299996Y-117594435D01*
X120120750Y-117614630D01*
X120120745Y-117614631D01*
X119950478Y-117674210D01*
X119939685Y-117680993D01*
X119873711Y-117700000D01*
X109624000Y-117700000D01*
X109556961Y-117680315D01*
X109511206Y-117627511D01*
X109500000Y-117576000D01*
X109500000Y-115999996D01*
X111094435Y-115999996D01*
X111094435Y-116000003D01*
X111114630Y-116179249D01*
X111114631Y-116179254D01*
X111174211Y-116349523D01*
X111201112Y-116392335D01*
X111270184Y-116502262D01*
X111397738Y-116629816D01*
X111488080Y-116686582D01*
X111531561Y-116713903D01*
X111550478Y-116725789D01*
X111691295Y-116775063D01*
X111720745Y-116785368D01*
X111720750Y-116785369D01*
X111899996Y-116805565D01*
X111900000Y-116805565D01*
X111900004Y-116805565D01*
X112079249Y-116785369D01*
X112079252Y-116785368D01*
X112079255Y-116785368D01*
X112249522Y-116725789D01*
X112402262Y-116629816D01*
X112529816Y-116502262D01*
X112625789Y-116349522D01*
X112678863Y-116197844D01*
X113450000Y-116197844D01*
X113456401Y-116257372D01*
X113456403Y-116257379D01*
X113506645Y-116392086D01*
X113506649Y-116392093D01*
X113592809Y-116507187D01*
X113592812Y-116507190D01*
X113707906Y-116593350D01*
X113707913Y-116593354D01*
X113842620Y-116643596D01*
X113842627Y-116643598D01*
X113902155Y-116649999D01*
X113902172Y-116650000D01*
X114450000Y-116650000D01*
X114950000Y-116650000D01*
X115497828Y-116650000D01*
X115497844Y-116649999D01*
X115557372Y-116643598D01*
X115557379Y-116643596D01*
X115692086Y-116593354D01*
X115692093Y-116593350D01*
X115807187Y-116507190D01*
X115807190Y-116507187D01*
X115893350Y-116392093D01*
X115893354Y-116392086D01*
X115943596Y-116257379D01*
X115943598Y-116257372D01*
X115949999Y-116197844D01*
X115950000Y-116197827D01*
X115950000Y-115650000D01*
X114950000Y-115650000D01*
X114950000Y-116650000D01*
X114450000Y-116650000D01*
X114450000Y-115650000D01*
X113450000Y-115650000D01*
X113450000Y-116197844D01*
X112678863Y-116197844D01*
X112685368Y-116179255D01*
X112705565Y-116000000D01*
X112685368Y-115820745D01*
X112625789Y-115650478D01*
X112529816Y-115497738D01*
X112402262Y-115370184D01*
X112376381Y-115353922D01*
X114350000Y-115353922D01*
X114350000Y-115446078D01*
X114373852Y-115535095D01*
X114419930Y-115614905D01*
X114485095Y-115680070D01*
X114564905Y-115726148D01*
X114653922Y-115750000D01*
X114746078Y-115750000D01*
X114835095Y-115726148D01*
X114914905Y-115680070D01*
X114980070Y-115614905D01*
X115026148Y-115535095D01*
X115050000Y-115446078D01*
X115050000Y-115353922D01*
X115026148Y-115264905D01*
X114980070Y-115185095D01*
X114944975Y-115150000D01*
X114950000Y-115150000D01*
X115950000Y-115150000D01*
X115950000Y-114602172D01*
X115949999Y-114602155D01*
X115949997Y-114602135D01*
X116949500Y-114602135D01*
X116949500Y-116197870D01*
X116949501Y-116197876D01*
X116955908Y-116257483D01*
X117006202Y-116392328D01*
X117006206Y-116392335D01*
X117092452Y-116507544D01*
X117092455Y-116507547D01*
X117207664Y-116593793D01*
X117207671Y-116593797D01*
X117342517Y-116644091D01*
X117342516Y-116644091D01*
X117349444Y-116644835D01*
X117402127Y-116650500D01*
X118997872Y-116650499D01*
X119057483Y-116644091D01*
X119192331Y-116593796D01*
X119307546Y-116507546D01*
X119393796Y-116392331D01*
X119444091Y-116257483D01*
X119450500Y-116197873D01*
X119450499Y-114602128D01*
X119444091Y-114542517D01*
X119393884Y-114407906D01*
X119393797Y-114407671D01*
X119393793Y-114407664D01*
X119307547Y-114292455D01*
X119307544Y-114292452D01*
X119192335Y-114206206D01*
X119192328Y-114206202D01*
X119057482Y-114155908D01*
X119057483Y-114155908D01*
X118997883Y-114149501D01*
X118997881Y-114149500D01*
X118997873Y-114149500D01*
X118997864Y-114149500D01*
X117402129Y-114149500D01*
X117402123Y-114149501D01*
X117342516Y-114155908D01*
X117207671Y-114206202D01*
X117207664Y-114206206D01*
X117092455Y-114292452D01*
X117092452Y-114292455D01*
X117006206Y-114407664D01*
X117006202Y-114407671D01*
X116955908Y-114542517D01*
X116949501Y-114602116D01*
X116949501Y-114602123D01*
X116949500Y-114602135D01*
X115949997Y-114602135D01*
X115943598Y-114542627D01*
X115943596Y-114542620D01*
X115893354Y-114407913D01*
X115893350Y-114407906D01*
X115807190Y-114292812D01*
X115807187Y-114292809D01*
X115692093Y-114206649D01*
X115692086Y-114206645D01*
X115557379Y-114156403D01*
X115557372Y-114156401D01*
X115497844Y-114150000D01*
X114950000Y-114150000D01*
X114950000Y-115150000D01*
X114944975Y-115150000D01*
X114914905Y-115119930D01*
X114835095Y-115073852D01*
X114746078Y-115050000D01*
X114653922Y-115050000D01*
X114564905Y-115073852D01*
X114485095Y-115119930D01*
X114419930Y-115185095D01*
X114373852Y-115264905D01*
X114350000Y-115353922D01*
X112376381Y-115353922D01*
X112249523Y-115274211D01*
X112079254Y-115214631D01*
X112079249Y-115214630D01*
X111900004Y-115194435D01*
X111899996Y-115194435D01*
X111720750Y-115214630D01*
X111720745Y-115214631D01*
X111550476Y-115274211D01*
X111397737Y-115370184D01*
X111270184Y-115497737D01*
X111174211Y-115650476D01*
X111114631Y-115820745D01*
X111114630Y-115820750D01*
X111094435Y-115999996D01*
X109500000Y-115999996D01*
X109500000Y-114602155D01*
X113450000Y-114602155D01*
X113450000Y-115150000D01*
X114450000Y-115150000D01*
X114450000Y-114150000D01*
X113902155Y-114150000D01*
X113842627Y-114156401D01*
X113842620Y-114156403D01*
X113707913Y-114206645D01*
X113707906Y-114206649D01*
X113592812Y-114292809D01*
X113592809Y-114292812D01*
X113506649Y-114407906D01*
X113506645Y-114407913D01*
X113456403Y-114542620D01*
X113456401Y-114542627D01*
X113450000Y-114602155D01*
X109500000Y-114602155D01*
X109500000Y-111700000D01*
X107973212Y-111700000D01*
X107906173Y-111680315D01*
X107860418Y-111627511D01*
X107850474Y-111558353D01*
X107879499Y-111494797D01*
X107902088Y-111474425D01*
X108011082Y-111398105D01*
X108178105Y-111231082D01*
X108313600Y-111037578D01*
X108413429Y-110823492D01*
X108413432Y-110823486D01*
X108419726Y-110799996D01*
X123794435Y-110799996D01*
X123794435Y-110800003D01*
X123814630Y-110979249D01*
X123814631Y-110979254D01*
X123874211Y-111149523D01*
X123970184Y-111302262D01*
X124097738Y-111429816D01*
X124168733Y-111474425D01*
X124201154Y-111494797D01*
X124250478Y-111525789D01*
X124303497Y-111544341D01*
X124420745Y-111585368D01*
X124420750Y-111585369D01*
X124599996Y-111605565D01*
X124600000Y-111605565D01*
X124600004Y-111605565D01*
X124779249Y-111585369D01*
X124779252Y-111585368D01*
X124779255Y-111585368D01*
X124949522Y-111525789D01*
X125102262Y-111429816D01*
X125229816Y-111302262D01*
X125325789Y-111149522D01*
X125385368Y-110979255D01*
X125405565Y-110800000D01*
X125401069Y-110760099D01*
X125385369Y-110620750D01*
X125385368Y-110620745D01*
X125374720Y-110590315D01*
X125325789Y-110450478D01*
X125229816Y-110297738D01*
X125102262Y-110170184D01*
X125097133Y-110166961D01*
X124949523Y-110074211D01*
X124779254Y-110014631D01*
X124779249Y-110014630D01*
X124600004Y-109994435D01*
X124599996Y-109994435D01*
X124420750Y-110014630D01*
X124420745Y-110014631D01*
X124250476Y-110074211D01*
X124097737Y-110170184D01*
X123970184Y-110297737D01*
X123874211Y-110450476D01*
X123814631Y-110620745D01*
X123814630Y-110620750D01*
X123794435Y-110799996D01*
X108419726Y-110799996D01*
X108470636Y-110610000D01*
X107573012Y-110610000D01*
X107605925Y-110552993D01*
X107640000Y-110425826D01*
X107640000Y-110294174D01*
X107605925Y-110167007D01*
X107573012Y-110110000D01*
X108470636Y-110110000D01*
X108470635Y-110109999D01*
X108413432Y-109896513D01*
X108413429Y-109896507D01*
X108313600Y-109682422D01*
X108313599Y-109682420D01*
X108178113Y-109488926D01*
X108178108Y-109488920D01*
X108100869Y-109411681D01*
X108067384Y-109350358D01*
X108072368Y-109280666D01*
X108114240Y-109224733D01*
X108179704Y-109200316D01*
X108188550Y-109200000D01*
X109100000Y-109200000D01*
X109100000Y-104199996D01*
X124794435Y-104199996D01*
X124794435Y-104200003D01*
X124814630Y-104379249D01*
X124814631Y-104379254D01*
X124874211Y-104549523D01*
X124970184Y-104702262D01*
X125097738Y-104829816D01*
X125250478Y-104925789D01*
X125420745Y-104985368D01*
X125420750Y-104985369D01*
X125599996Y-105005565D01*
X125600000Y-105005565D01*
X125600004Y-105005565D01*
X125779249Y-104985369D01*
X125779252Y-104985368D01*
X125779255Y-104985368D01*
X125949522Y-104925789D01*
X126102262Y-104829816D01*
X126229816Y-104702262D01*
X126325789Y-104549522D01*
X126385368Y-104379255D01*
X126396164Y-104283440D01*
X126405565Y-104200003D01*
X126405565Y-104199996D01*
X126385369Y-104020750D01*
X126385368Y-104020745D01*
X126360446Y-103949522D01*
X126325789Y-103850478D01*
X126229816Y-103697738D01*
X126102262Y-103570184D01*
X125999422Y-103505565D01*
X125949523Y-103474211D01*
X125779254Y-103414631D01*
X125779249Y-103414630D01*
X125600004Y-103394435D01*
X125599996Y-103394435D01*
X125420750Y-103414630D01*
X125420745Y-103414631D01*
X125250476Y-103474211D01*
X125097737Y-103570184D01*
X124970184Y-103697737D01*
X124874211Y-103850476D01*
X124814631Y-104020745D01*
X124814630Y-104020750D01*
X124794435Y-104199996D01*
X109100000Y-104199996D01*
X109100000Y-100199996D01*
X113294435Y-100199996D01*
X113294435Y-100200003D01*
X113314630Y-100379249D01*
X113314631Y-100379254D01*
X113374211Y-100549523D01*
X113467968Y-100698736D01*
X113470184Y-100702262D01*
X113597738Y-100829816D01*
X113630623Y-100850479D01*
X113732721Y-100914632D01*
X113750478Y-100925789D01*
X113888860Y-100974211D01*
X113920745Y-100985368D01*
X113920750Y-100985369D01*
X114099996Y-101005565D01*
X114100000Y-101005565D01*
X114100004Y-101005565D01*
X114279249Y-100985369D01*
X114279252Y-100985368D01*
X114279255Y-100985368D01*
X114449522Y-100925789D01*
X114602262Y-100829816D01*
X114729816Y-100702262D01*
X114825789Y-100549522D01*
X114885368Y-100379255D01*
X114885369Y-100379249D01*
X114905565Y-100200003D01*
X114905565Y-100199996D01*
X117794435Y-100199996D01*
X117794435Y-100200003D01*
X117814630Y-100379249D01*
X117814631Y-100379254D01*
X117874211Y-100549523D01*
X117967968Y-100698736D01*
X117970184Y-100702262D01*
X118097738Y-100829816D01*
X118130623Y-100850479D01*
X118232721Y-100914632D01*
X118250478Y-100925789D01*
X118388860Y-100974211D01*
X118420745Y-100985368D01*
X118420750Y-100985369D01*
X118599996Y-101005565D01*
X118600000Y-101005565D01*
X118600004Y-101005565D01*
X118779249Y-100985369D01*
X118779252Y-100985368D01*
X118779255Y-100985368D01*
X118949522Y-100925789D01*
X119102262Y-100829816D01*
X119229816Y-100702262D01*
X119325789Y-100549522D01*
X119385368Y-100379255D01*
X119385369Y-100379249D01*
X119405565Y-100200003D01*
X119405565Y-100199996D01*
X119385369Y-100020750D01*
X119385368Y-100020745D01*
X119357479Y-99941042D01*
X119325789Y-99850478D01*
X119300428Y-99810117D01*
X119241544Y-99716403D01*
X119229816Y-99697738D01*
X119102262Y-99570184D01*
X119069379Y-99549522D01*
X118949523Y-99474211D01*
X118779254Y-99414631D01*
X118779249Y-99414630D01*
X118600004Y-99394435D01*
X118599996Y-99394435D01*
X118420750Y-99414630D01*
X118420745Y-99414631D01*
X118250476Y-99474211D01*
X118097737Y-99570184D01*
X117970184Y-99697737D01*
X117874211Y-99850476D01*
X117814631Y-100020745D01*
X117814630Y-100020750D01*
X117794435Y-100199996D01*
X114905565Y-100199996D01*
X114885369Y-100020750D01*
X114885368Y-100020745D01*
X114857479Y-99941042D01*
X114825789Y-99850478D01*
X114800428Y-99810117D01*
X114741544Y-99716403D01*
X114729816Y-99697738D01*
X114602262Y-99570184D01*
X114569379Y-99549522D01*
X114449523Y-99474211D01*
X114279254Y-99414631D01*
X114279249Y-99414630D01*
X114100004Y-99394435D01*
X114099996Y-99394435D01*
X113920750Y-99414630D01*
X113920745Y-99414631D01*
X113750476Y-99474211D01*
X113597737Y-99570184D01*
X113470184Y-99697737D01*
X113374211Y-99850476D01*
X113314631Y-100020745D01*
X113314630Y-100020750D01*
X113294435Y-100199996D01*
X109100000Y-100199996D01*
X109100000Y-99199996D01*
X123794435Y-99199996D01*
X123794435Y-99200003D01*
X123814630Y-99379249D01*
X123814633Y-99379262D01*
X123874209Y-99549520D01*
X123927309Y-99634029D01*
X123946309Y-99701266D01*
X123927309Y-99765971D01*
X123874209Y-99850479D01*
X123814633Y-100020737D01*
X123814630Y-100020750D01*
X123794435Y-100199996D01*
X123794435Y-100200003D01*
X123814630Y-100379249D01*
X123814633Y-100379262D01*
X123874209Y-100549520D01*
X123927309Y-100634029D01*
X123946309Y-100701266D01*
X123927309Y-100765971D01*
X123874209Y-100850479D01*
X123814633Y-101020737D01*
X123814630Y-101020750D01*
X123794435Y-101199996D01*
X123794435Y-101200003D01*
X123814630Y-101379249D01*
X123814631Y-101379254D01*
X123874211Y-101549523D01*
X123884921Y-101566567D01*
X123970184Y-101702262D01*
X124097738Y-101829816D01*
X124159461Y-101868599D01*
X124232721Y-101914632D01*
X124250478Y-101925789D01*
X124388860Y-101974211D01*
X124420745Y-101985368D01*
X124420750Y-101985369D01*
X124599996Y-102005565D01*
X124600000Y-102005565D01*
X124600004Y-102005565D01*
X124779249Y-101985369D01*
X124779252Y-101985368D01*
X124779255Y-101985368D01*
X124949522Y-101925789D01*
X125102262Y-101829816D01*
X125229816Y-101702262D01*
X125325789Y-101549522D01*
X125385368Y-101379255D01*
X125385956Y-101374035D01*
X125405565Y-101200003D01*
X125405565Y-101199996D01*
X125385369Y-101020750D01*
X125385368Y-101020745D01*
X125325788Y-100850475D01*
X125272691Y-100765973D01*
X125253690Y-100698736D01*
X125272691Y-100634027D01*
X125325788Y-100549524D01*
X125325789Y-100549522D01*
X125385368Y-100379255D01*
X125385369Y-100379249D01*
X125405565Y-100200003D01*
X125405565Y-100199996D01*
X125385369Y-100020750D01*
X125385368Y-100020745D01*
X125325788Y-99850475D01*
X125272691Y-99765973D01*
X125253690Y-99698736D01*
X125272691Y-99634027D01*
X125325788Y-99549524D01*
X125325789Y-99549522D01*
X125385368Y-99379255D01*
X125385369Y-99379249D01*
X125405565Y-99200003D01*
X125405565Y-99199996D01*
X125385369Y-99020750D01*
X125385368Y-99020745D01*
X125325788Y-98850476D01*
X125286582Y-98788080D01*
X125229816Y-98697738D01*
X125102262Y-98570184D01*
X124949523Y-98474211D01*
X124779254Y-98414631D01*
X124779249Y-98414630D01*
X124600004Y-98394435D01*
X124599996Y-98394435D01*
X124420750Y-98414630D01*
X124420745Y-98414631D01*
X124250476Y-98474211D01*
X124097737Y-98570184D01*
X123970184Y-98697737D01*
X123874211Y-98850476D01*
X123814631Y-99020745D01*
X123814630Y-99020750D01*
X123794435Y-99199996D01*
X109100000Y-99199996D01*
X109100000Y-97199996D01*
X121794435Y-97199996D01*
X121794435Y-97200003D01*
X121814630Y-97379249D01*
X121814631Y-97379254D01*
X121874211Y-97549523D01*
X121943629Y-97660000D01*
X121970184Y-97702262D01*
X122097738Y-97829816D01*
X122250478Y-97925789D01*
X122420745Y-97985368D01*
X122420750Y-97985369D01*
X122599996Y-98005565D01*
X122600000Y-98005565D01*
X122600004Y-98005565D01*
X122779249Y-97985369D01*
X122779252Y-97985368D01*
X122779255Y-97985368D01*
X122949522Y-97925789D01*
X123102262Y-97829816D01*
X123229816Y-97702262D01*
X123325789Y-97549522D01*
X123385368Y-97379255D01*
X123385369Y-97379249D01*
X123405565Y-97200003D01*
X123405565Y-97199996D01*
X123385369Y-97020750D01*
X123385368Y-97020745D01*
X123371870Y-96982171D01*
X123325789Y-96850478D01*
X123229816Y-96697738D01*
X123102262Y-96570184D01*
X122949523Y-96474211D01*
X122779254Y-96414631D01*
X122779249Y-96414630D01*
X122600004Y-96394435D01*
X122599996Y-96394435D01*
X122420750Y-96414630D01*
X122420745Y-96414631D01*
X122250476Y-96474211D01*
X122097737Y-96570184D01*
X121970184Y-96697737D01*
X121874211Y-96850476D01*
X121814631Y-97020745D01*
X121814630Y-97020750D01*
X121794435Y-97199996D01*
X109100000Y-97199996D01*
X109100000Y-90824000D01*
X109119685Y-90756961D01*
X109172489Y-90711206D01*
X109224000Y-90700000D01*
X127476000Y-90700000D01*
X127543039Y-90719685D01*
G37*
%TD.AperFunction*%
%TD*%
M02*
